<svg xmlns="http://www.w3.org/2000/svg" version="1.1" xmlns:xlink="http://www.w3.org/1999/xlink" xmlns:svgjs="http://svgjs.dev/svgjs" viewBox="0 0 600 600" opacity="1"><path d="M488.7552185058594,11.297072410583496C743.7238445281982,95.2405903339386,795.1098403930664,67.78243207931519,559.3619384765625,169.76988220214844C323.6140365600586,271.7573323249817,272.22804069519043,299.2154905796051,17.259414672851562,215.27197265625C-237.7092113494873,131.3284547328949,-186.32321548461914,103.87029647827148,49.424686431884766,1.8828463554382324C285.1725883483887,-100.10460376739502,233.7865924835205,-72.6464455127716,488.7552185058594,11.297072410583496C743.7238445281982,95.2405903339386,795.1098403930664,67.78243207931519,559.3619384765625,169.76988220214844" fill="url(&quot;#SvgjsLinearGradient1000&quot;)" transform="matrix(1.1133227481747965,-0.35912115049195253,-0.011165508995824469,-0.9866772518252042,-211.26942094844486,220.7268046715269)" stroke-width="17" stroke="hsl(340, 45%, 30%)"></path><defs><linearGradient id="SvgjsLinearGradient1000" gradientTransform="rotate(68, 0.5, 0.5)"><stop stop-color="hsl(46, 75%, 35%)" offset="0"></stop><stop stop-color="hsl(340, 57%, 15%)" offset="1"></stop></linearGradient><radialGradient id="SvgjsRadialGradient1001"><stop stop-color="hsl(340, 45%, 50%)" offset="0"></stop><stop stop-color="hsl(340, 45%, 80%)" offset="1"></stop></radialGradient><linearGradient id="SvgjsLinearGradient1002" gradientTransform="rotate(0, 0.5, 0.5)"><stop stop-color="hsl(46, 75%, 35%)" offset="0"></stop><stop stop-color="hsl(340, 57%, 15%)" offset="1"></stop></linearGradient></defs><path d="M607.9364284242216 -401.01329782157075C862.9050544465605 -317.06977989821564 914.2910503114286 -344.52793815283906 678.5431483949247 -242.5404880300058C442.79524647842084 -140.55303790717255 391.4092506135527 -113.09487965254914 136.4406245912138 -197.03839757590424C-118.52800143112506 -280.98191549925934 -67.1420055662569 -308.44007375388276 168.605896350247 -410.427523876716C404.3537982667509 -512.4149739995493 352.96780240188275 -484.95681574492585 607.9364284242216 -401.01329782157075C862.9050544465605 -317.06977989821564 914.2910503114286 -344.52793815283906 678.5431483949247 -242.5404880300058 " fill-opacity="1" fill="url(&quot;#SvgjsLinearGradient1002&quot;)" opacity="1" stroke-opacity="1" stroke-width="17" stroke="hsl(340, 45%, 30%)" transform="matrix(1.1133227481747965,-0.3591211504919524,-0.011165508995824358,-0.9866772518251997,44.45458304219949,375.1010774769572)"></path></svg>