<?xml version="1.0" encoding="UTF-8"?>
<svg id="Layer_1" xmlns="http://www.w3.org/2000/svg" version="1.1" xmlns:xlink="http://www.w3.org/1999/xlink" viewBox="0 0 763.5 345.6">
  <!-- Generator: Adobe Illustrator 29.3.1, SVG Export Plug-In . SVG Version: 2.1.0 Build 151)  -->
  <defs>
    <style>
      .st0 {
        fill: url(#linear-gradient75);
      }

      .st1 {
        fill: url(#linear-gradient2);
      }

      .st2 {
        fill: url(#linear-gradient81);
      }

      .st3 {
        fill: url(#linear-gradient36);
      }

      .st4 {
        fill: url(#linear-gradient39);
      }

      .st5 {
        fill: url(#linear-gradient107);
      }

      .st6 {
        fill: url(#linear-gradient34);
      }

      .st7 {
        fill: url(#linear-gradient58);
      }

      .st8 {
        fill: url(#linear-gradient73);
      }

      .st9 {
        fill: url(#linear-gradient83);
      }

      .st10 {
        fill: url(#linear-gradient33);
      }

      .st11 {
        fill: url(#linear-gradient10);
      }

      .st12 {
        fill: url(#linear-gradient63);
      }

      .st13 {
        fill: url(#linear-gradient82);
      }

      .st14 {
        fill: url(#linear-gradient71);
      }

      .st15 {
        fill: url(#linear-gradient32);
      }

      .st16 {
        fill: #231f20;
      }

      .st17 {
        fill: url(#linear-gradient21);
      }

      .st18 {
        fill: url(#linear-gradient85);
      }

      .st19 {
        fill: url(#linear-gradient112);
      }

      .st20 {
        fill: url(#linear-gradient37);
      }

      .st21 {
        fill: url(#linear-gradient56);
      }

      .st22 {
        fill: url(#linear-gradient27);
      }

      .st23 {
        fill: url(#linear-gradient53);
      }

      .st24 {
        fill: url(#linear-gradient57);
      }

      .st25 {
        fill: url(#linear-gradient113);
      }

      .st26 {
        fill: url(#linear-gradient35);
      }

      .st27 {
        fill: url(#linear-gradient116);
      }

      .st28 {
        fill: url(#linear-gradient119);
      }

      .st29 {
        fill: url(#linear-gradient26);
      }

      .st30 {
        fill: url(#linear-gradient1);
      }

      .st31 {
        fill: url(#linear-gradient118);
      }

      .st32 {
        fill: url(#linear-gradient109);
      }

      .st33 {
        fill: url(#linear-gradient9);
      }

      .st34 {
        fill: url(#linear-gradient18);
      }

      .st35 {
        fill: url(#linear-gradient61);
      }

      .st36 {
        fill: url(#linear-gradient101);
      }

      .st37 {
        fill: url(#linear-gradient23);
      }

      .st38 {
        fill: url(#linear-gradient72);
      }

      .st39 {
        fill: url(#linear-gradient43);
      }

      .st40 {
        fill: url(#linear-gradient78);
      }

      .st41 {
        fill: url(#linear-gradient69);
      }

      .st42 {
        fill: url(#linear-gradient8);
      }

      .st43 {
        fill: url(#linear-gradient11);
      }

      .st44 {
        fill: url(#linear-gradient104);
      }

      .st45 {
        fill: url(#linear-gradient105);
      }

      .st46 {
        fill: url(#linear-gradient16);
      }

      .st47 {
        fill: url(#linear-gradient24);
      }

      .st48 {
        fill: url(#linear-gradient95);
      }

      .st49 {
        fill: #ba8d2d;
      }

      .st50 {
        fill: url(#linear-gradient30);
      }

      .st51 {
        fill: url(#linear-gradient46);
      }

      .st52 {
        fill: url(#linear-gradient114);
      }

      .st53 {
        fill: url(#linear-gradient94);
      }

      .st54 {
        fill: url(#linear-gradient22);
      }

      .st55 {
        fill: url(#linear-gradient108);
      }

      .st56 {
        fill: url(#linear-gradient29);
      }

      .st57 {
        fill: #991e21;
      }

      .st58 {
        fill: url(#linear-gradient68);
      }

      .st59 {
        fill: url(#linear-gradient49);
      }

      .st60 {
        fill: url(#linear-gradient93);
      }

      .st61 {
        fill: url(#linear-gradient106);
      }

      .st62 {
        fill: url(#linear-gradient19);
      }

      .st63 {
        fill: url(#linear-gradient12);
      }

      .st64 {
        fill: url(#linear-gradient65);
      }

      .st65 {
        fill: url(#linear-gradient80);
      }

      .st66 {
        fill: url(#linear-gradient42);
      }

      .st67 {
        fill: url(#linear-gradient28);
      }

      .st68 {
        fill: url(#linear-gradient100);
      }

      .st69 {
        fill: url(#linear-gradient67);
      }

      .st70 {
        fill: url(#linear-gradient40);
      }

      .st71 {
        fill: url(#linear-gradient66);
      }

      .st72 {
        fill: url(#linear-gradient84);
      }

      .st73 {
        fill: url(#linear-gradient111);
      }

      .st74 {
        fill: url(#linear-gradient62);
      }

      .st75 {
        fill: #096b37;
      }

      .st76 {
        fill: url(#linear-gradient7);
      }

      .st77 {
        fill: url(#linear-gradient59);
      }

      .st78 {
        fill: #106b38;
      }

      .st79 {
        fill: url(#linear-gradient91);
      }

      .st80 {
        fill: url(#linear-gradient20);
      }

      .st81 {
        fill: url(#linear-gradient4);
      }

      .st82 {
        fill: url(#linear-gradient31);
      }

      .st83 {
        fill: url(#linear-gradient96);
      }

      .st84 {
        fill: url(#linear-gradient79);
      }

      .st85 {
        fill: url(#linear-gradient98);
      }

      .st86 {
        fill: url(#linear-gradient14);
      }

      .st87 {
        fill: url(#linear-gradient5);
      }

      .st88 {
        fill: url(#linear-gradient74);
      }

      .st89 {
        fill: url(#linear-gradient3);
      }

      .st90 {
        fill: url(#linear-gradient102);
      }

      .st91 {
        fill: url(#linear-gradient87);
      }

      .st92 {
        fill: url(#linear-gradient55);
      }

      .st93 {
        fill: url(#linear-gradient38);
      }

      .st94 {
        fill: url(#linear-gradient25);
      }

      .st95 {
        fill: url(#linear-gradient99);
      }

      .st96 {
        fill: url(#linear-gradient52);
      }

      .st97 {
        fill: url(#linear-gradient15);
      }

      .st98 {
        fill: url(#linear-gradient88);
      }

      .st99 {
        fill: url(#linear-gradient17);
      }

      .st100 {
        fill: url(#linear-gradient54);
      }

      .st101 {
        fill: url(#linear-gradient50);
      }

      .st102 {
        fill: url(#linear-gradient103);
      }

      .st103 {
        fill: url(#linear-gradient89);
      }

      .st104 {
        fill: url(#linear-gradient51);
      }

      .st105 {
        fill: url(#linear-gradient6);
      }

      .st106 {
        fill: url(#linear-gradient92);
      }

      .st107 {
        fill: url(#linear-gradient77);
      }

      .st108 {
        fill: url(#linear-gradient117);
      }

      .st109 {
        fill: url(#linear-gradient86);
      }

      .st110 {
        fill: url(#linear-gradient64);
      }

      .st111 {
        fill: url(#linear-gradient90);
      }

      .st112 {
        fill: url(#linear-gradient115);
      }

      .st113 {
        fill: url(#linear-gradient70);
      }

      .st114 {
        fill: url(#linear-gradient76);
      }

      .st115 {
        fill: url(#linear-gradient48);
      }

      .st116 {
        fill: url(#linear-gradient13);
      }

      .st117 {
        fill: url(#linear-gradient45);
      }

      .st118 {
        fill: url(#linear-gradient97);
      }

      .st119 {
        fill: url(#linear-gradient47);
      }

      .st120 {
        fill: url(#linear-gradient60);
      }

      .st121 {
        fill: url(#linear-gradient);
      }

      .st122 {
        fill: url(#linear-gradient44);
      }

      .st123 {
        fill: url(#linear-gradient41);
      }

      .st124 {
        fill: url(#linear-gradient110);
      }
    </style>
    <linearGradient id="linear-gradient" x1="199.2" y1="165.4" x2="199.2" y2="303.4" gradientUnits="userSpaceOnUse">
      <stop offset="0" stop-color="#306b58"/>
      <stop offset="1" stop-color="#1f4334"/>
    </linearGradient>
    <linearGradient id="linear-gradient1" x1="344.5" y1="165.4" x2="344.5" y2="303.4" xlink:href="#linear-gradient"/>
    <linearGradient id="linear-gradient2" x1="371.4" y1="165.4" x2="371.4" y2="303.4" xlink:href="#linear-gradient"/>
    <linearGradient id="linear-gradient3" x1="416.2" y1="165.4" x2="416.2" y2="303.4" xlink:href="#linear-gradient"/>
    <linearGradient id="linear-gradient4" x1="60.1" y1="165.4" x2="60.1" y2="303.4" xlink:href="#linear-gradient"/>
    <linearGradient id="linear-gradient5" x1="184.2" y1="165.4" x2="184.2" y2="303.4" xlink:href="#linear-gradient"/>
    <linearGradient id="linear-gradient6" x1="236.9" y1="165.4" x2="236.9" y2="303.4" xlink:href="#linear-gradient"/>
    <linearGradient id="linear-gradient7" x1="49.7" y1="165.4" x2="49.7" y2="303.4" xlink:href="#linear-gradient"/>
    <linearGradient id="linear-gradient8" x1="188.2" y1="165.4" x2="188.2" y2="303.4" xlink:href="#linear-gradient"/>
    <linearGradient id="linear-gradient9" x1="334.8" y1="165.4" x2="334.8" y2="303.4" xlink:href="#linear-gradient"/>
    <linearGradient id="linear-gradient10" x1="19.2" y1="165.4" x2="19.2" y2="303.4" xlink:href="#linear-gradient"/>
    <linearGradient id="linear-gradient11" x1="280.5" y1="165.4" x2="280.5" y2="303.4" xlink:href="#linear-gradient"/>
    <linearGradient id="linear-gradient12" x1="301.2" y1="165.4" x2="301.2" y2="303.4" xlink:href="#linear-gradient"/>
    <linearGradient id="linear-gradient13" x1="233.1" y1="165.4" x2="233.1" y2="303.4" xlink:href="#linear-gradient"/>
    <linearGradient id="linear-gradient14" x1="43.9" y1="165.4" x2="43.9" y2="303.4" xlink:href="#linear-gradient"/>
    <linearGradient id="linear-gradient15" x1="59.2" y1="165.4" x2="59.2" y2="303.4" xlink:href="#linear-gradient"/>
    <linearGradient id="linear-gradient16" x1="209.5" x2="209.5" y2="303.4" xlink:href="#linear-gradient"/>
    <linearGradient id="linear-gradient17" x1="90.8" y1="165.4" x2="90.8" y2="303.4" xlink:href="#linear-gradient"/>
    <linearGradient id="linear-gradient18" x1="129.6" y1="165.4" x2="129.6" y2="303.4" xlink:href="#linear-gradient"/>
    <linearGradient id="linear-gradient19" x1="199.4" y1="165.4" x2="199.4" y2="303.4" xlink:href="#linear-gradient"/>
    <linearGradient id="linear-gradient20" x1="430.6" y1="165.4" x2="430.6" y2="303.4" xlink:href="#linear-gradient"/>
    <linearGradient id="linear-gradient21" x1="363.2" y1="165.4" x2="363.2" y2="303.4" xlink:href="#linear-gradient"/>
    <linearGradient id="linear-gradient22" x1="267.1" y1="165.4" x2="267.1" y2="303.4" xlink:href="#linear-gradient"/>
    <linearGradient id="linear-gradient23" x1="398.5" y1="165.4" x2="398.5" y2="303.4" xlink:href="#linear-gradient"/>
    <linearGradient id="linear-gradient24" x1="302.3" y1="165.4" x2="302.3" y2="303.4" xlink:href="#linear-gradient"/>
    <linearGradient id="linear-gradient25" x1="167.1" y1="165.4" x2="167.1" y2="303.4" xlink:href="#linear-gradient"/>
    <linearGradient id="linear-gradient26" x1="378.7" y1="165.4" x2="378.7" y2="303.4" xlink:href="#linear-gradient"/>
    <linearGradient id="linear-gradient27" x1="413.3" y1="165.4" x2="413.3" y2="303.4" xlink:href="#linear-gradient"/>
    <linearGradient id="linear-gradient28" x1="194.5" x2="194.5" y2="303.4" xlink:href="#linear-gradient"/>
    <linearGradient id="linear-gradient29" x1="207.5" y1="165.4" x2="207.5" y2="303.4" xlink:href="#linear-gradient"/>
    <linearGradient id="linear-gradient30" x1="87.8" y1="165.4" x2="87.8" y2="303.4" xlink:href="#linear-gradient"/>
    <linearGradient id="linear-gradient31" x1="356.5" y1="165.4" x2="356.5" y2="303.4" xlink:href="#linear-gradient"/>
    <linearGradient id="linear-gradient32" x1="121" y1="165.4" x2="121" y2="303.4" xlink:href="#linear-gradient"/>
    <linearGradient id="linear-gradient33" x1="378.9" y1="165.4" x2="378.9" y2="303.4" xlink:href="#linear-gradient"/>
    <linearGradient id="linear-gradient34" x1="162.8" y1="165.4" x2="162.8" y2="303.4" xlink:href="#linear-gradient"/>
    <linearGradient id="linear-gradient35" x1="262" y1="165.4" x2="262" y2="303.4" xlink:href="#linear-gradient"/>
    <linearGradient id="linear-gradient36" x1="192.4" y1="165.4" x2="192.4" y2="303.4" xlink:href="#linear-gradient"/>
    <linearGradient id="linear-gradient37" x1="222" y1="79.8" x2="222" y2="142.9" gradientUnits="userSpaceOnUse">
      <stop offset="0" stop-color="#dcb765"/>
      <stop offset="1" stop-color="#c49931"/>
    </linearGradient>
    <linearGradient id="linear-gradient38" x1="136.3" y1="79.8" x2="136.3" y2="142.9" xlink:href="#linear-gradient37"/>
    <linearGradient id="linear-gradient39" x1="194.7" y1="79.8" x2="194.7" y2="142.9" xlink:href="#linear-gradient37"/>
    <linearGradient id="linear-gradient40" x1="265.6" y1="79.8" x2="265.6" y2="142.9" xlink:href="#linear-gradient37"/>
    <linearGradient id="linear-gradient41" x1="96.2" y1="79.8" x2="96.2" y2="142.9" xlink:href="#linear-gradient37"/>
    <linearGradient id="linear-gradient42" x1="300.9" y1="79.8" x2="300.9" y2="142.9" xlink:href="#linear-gradient37"/>
    <linearGradient id="linear-gradient43" x1="252.3" y1="79.8" x2="252.3" y2="142.9" xlink:href="#linear-gradient37"/>
    <linearGradient id="linear-gradient44" x1="182.8" y1="79.8" x2="182.8" y2="142.9" xlink:href="#linear-gradient37"/>
    <linearGradient id="linear-gradient45" x1="201.1" y1="79.8" x2="201.1" y2="142.9" xlink:href="#linear-gradient37"/>
    <linearGradient id="linear-gradient46" x1="132.5" y1="79.8" x2="132.5" y2="142.9" xlink:href="#linear-gradient37"/>
    <linearGradient id="linear-gradient47" x1="242.4" y1="79.8" x2="242.4" y2="142.9" xlink:href="#linear-gradient37"/>
    <linearGradient id="linear-gradient48" x1="15.4" y1="79.8" x2="15.4" y2="142.9" xlink:href="#linear-gradient37"/>
    <linearGradient id="linear-gradient49" x1="134.4" y1="79.8" x2="134.4" y2="142.9" xlink:href="#linear-gradient37"/>
    <linearGradient id="linear-gradient50" x1="136" y1="79.8" x2="136" y2="142.9" xlink:href="#linear-gradient37"/>
    <linearGradient id="linear-gradient51" x1="149.5" y1="79.8" x2="149.5" y2="142.9" xlink:href="#linear-gradient37"/>
    <linearGradient id="linear-gradient52" x1="443.7" y1="79.8" x2="443.7" y2="142.9" xlink:href="#linear-gradient37"/>
    <linearGradient id="linear-gradient53" x1="153.9" y1="79.8" x2="153.9" y2="142.9" xlink:href="#linear-gradient37"/>
    <linearGradient id="linear-gradient54" x1="447.8" y1="79.8" x2="447.8" y2="142.9" xlink:href="#linear-gradient37"/>
    <linearGradient id="linear-gradient55" x1="314.5" y1="79.8" x2="314.5" y2="142.9" xlink:href="#linear-gradient37"/>
    <linearGradient id="linear-gradient56" x1="172.4" y1="79.8" x2="172.4" y2="142.9" xlink:href="#linear-gradient37"/>
    <linearGradient id="linear-gradient57" x1="201.9" y1="79.8" x2="201.9" y2="142.9" xlink:href="#linear-gradient37"/>
    <linearGradient id="linear-gradient58" x1="30.6" y1="79.8" x2="30.6" y2="142.9" xlink:href="#linear-gradient37"/>
    <linearGradient id="linear-gradient59" x1="222.4" y1="79.8" x2="222.4" y2="142.9" xlink:href="#linear-gradient37"/>
    <linearGradient id="linear-gradient60" x1="150.6" y1="79.8" x2="150.6" y2="142.9" xlink:href="#linear-gradient37"/>
    <linearGradient id="linear-gradient61" x1="128.1" y1="79.8" x2="128.1" y2="142.9" xlink:href="#linear-gradient37"/>
    <linearGradient id="linear-gradient62" x1="113.7" y1="79.8" x2="113.7" y2="142.9" xlink:href="#linear-gradient37"/>
    <linearGradient id="linear-gradient63" x1="112" y1="79.8" x2="112" y2="142.9" xlink:href="#linear-gradient37"/>
    <linearGradient id="linear-gradient64" x1="42.7" y1="79.8" x2="42.7" y2="142.9" xlink:href="#linear-gradient37"/>
    <linearGradient id="linear-gradient65" x1="24.8" y1="79.8" x2="24.8" y2="142.9" xlink:href="#linear-gradient37"/>
    <linearGradient id="linear-gradient66" x1="27.4" y1="79.8" x2="27.4" y2="142.9" xlink:href="#linear-gradient37"/>
    <linearGradient id="linear-gradient67" x1="40.5" y1="79.8" x2="40.5" y2="142.9" xlink:href="#linear-gradient37"/>
    <linearGradient id="linear-gradient68" x1="5.8" y1="79.8" x2="5.8" y2="142.9" xlink:href="#linear-gradient37"/>
    <linearGradient id="linear-gradient69" x1="312.4" y1="79.8" x2="312.4" y2="142.9" xlink:href="#linear-gradient37"/>
    <linearGradient id="linear-gradient70" x1="311.6" y1="79.8" x2="311.6" y2="142.9" xlink:href="#linear-gradient37"/>
    <linearGradient id="linear-gradient71" x1="132.1" y1="79.8" x2="132.1" y2="142.9" xlink:href="#linear-gradient37"/>
    <linearGradient id="linear-gradient72" x1="307.1" y1="79.8" x2="307.1" y2="142.9" xlink:href="#linear-gradient37"/>
    <linearGradient id="linear-gradient73" x1="236.5" y1="79.8" x2="236.5" y2="142.9" xlink:href="#linear-gradient37"/>
    <linearGradient id="linear-gradient74" x1="62.1" y1="79.8" x2="62.1" y2="142.9" xlink:href="#linear-gradient37"/>
    <linearGradient id="linear-gradient75" x1="78.2" y1="79.8" x2="78.2" y2="142.9" xlink:href="#linear-gradient37"/>
    <linearGradient id="linear-gradient76" x1="64.2" y1="79.8" x2="64.2" y2="142.9" xlink:href="#linear-gradient37"/>
    <linearGradient id="linear-gradient77" x1="283.5" y1="79.8" x2="283.5" y2="142.9" xlink:href="#linear-gradient37"/>
    <linearGradient id="linear-gradient78" x1="332.5" y1="79.8" x2="332.5" y2="142.9" xlink:href="#linear-gradient37"/>
    <linearGradient id="linear-gradient79" x1="415.8" y1="79.8" x2="415.8" y2="142.9" xlink:href="#linear-gradient37"/>
    <linearGradient id="linear-gradient80" x1="165.2" y1="79.8" x2="165.2" y2="142.9" xlink:href="#linear-gradient37"/>
    <linearGradient id="linear-gradient81" x1="341.3" y1="79.8" x2="341.3" y2="142.9" xlink:href="#linear-gradient37"/>
    <linearGradient id="linear-gradient82" x1="79.3" y1="79.8" x2="79.3" y2="142.9" xlink:href="#linear-gradient37"/>
    <linearGradient id="linear-gradient83" x1="126.5" y1="79.8" x2="126.5" y2="142.9" xlink:href="#linear-gradient37"/>
    <linearGradient id="linear-gradient84" x1="176.9" y1="79.8" x2="176.9" y2="142.9" xlink:href="#linear-gradient37"/>
    <linearGradient id="linear-gradient85" x1="183.7" y1="79.8" x2="183.7" y2="142.9" xlink:href="#linear-gradient37"/>
    <linearGradient id="linear-gradient86" x1="369.8" y1="79.8" x2="369.8" y2="142.9" xlink:href="#linear-gradient37"/>
    <linearGradient id="linear-gradient87" x1="99.6" y1="79.8" x2="99.6" y2="142.9" xlink:href="#linear-gradient37"/>
    <linearGradient id="linear-gradient88" x1="240.5" y1="79.8" x2="240.5" y2="142.9" xlink:href="#linear-gradient37"/>
    <linearGradient id="linear-gradient89" x1="215.7" y1="79.8" x2="215.7" y2="142.9" xlink:href="#linear-gradient37"/>
    <linearGradient id="linear-gradient90" x1="392" y1="79.8" x2="392" y2="142.9" xlink:href="#linear-gradient37"/>
    <linearGradient id="linear-gradient91" x1="218.7" y1="79.8" x2="218.7" y2="142.9" xlink:href="#linear-gradient37"/>
    <linearGradient id="linear-gradient92" x1="219.8" y1="79.8" x2="219.8" y2="142.9" xlink:href="#linear-gradient37"/>
    <linearGradient id="linear-gradient93" x1="228.8" x2="228.8" y2="142.9" xlink:href="#linear-gradient37"/>
    <linearGradient id="linear-gradient94" x1="252.9" y1="79.8" x2="252.9" y2="142.9" xlink:href="#linear-gradient37"/>
    <linearGradient id="linear-gradient95" x1="267.5" y1="79.8" x2="267.5" y2="142.9" xlink:href="#linear-gradient37"/>
    <linearGradient id="linear-gradient96" x1="222.3" y1="79.8" x2="222.3" y2="142.9" xlink:href="#linear-gradient37"/>
    <linearGradient id="linear-gradient97" x1="221.8" y1="79.8" x2="221.8" y2="142.9" xlink:href="#linear-gradient37"/>
    <linearGradient id="linear-gradient98" x1="225.6" y1="79.8" x2="225.6" y2="142.9" xlink:href="#linear-gradient37"/>
    <linearGradient id="linear-gradient99" x1="300.4" y1="79.8" x2="300.4" y2="142.9" xlink:href="#linear-gradient37"/>
    <linearGradient id="linear-gradient100" x1="187.3" y1="79.8" x2="187.3" y2="142.9" xlink:href="#linear-gradient37"/>
    <linearGradient id="linear-gradient101" x1="232.4" y1="79.8" x2="232.4" y2="142.9" xlink:href="#linear-gradient37"/>
    <linearGradient id="linear-gradient102" x1="433.8" y1="79.8" x2="433.8" y2="142.9" xlink:href="#linear-gradient37"/>
    <linearGradient id="linear-gradient103" x1="367" y1="79.8" x2="367" y2="142.9" xlink:href="#linear-gradient37"/>
    <linearGradient id="linear-gradient104" x1="412.5" y1="79.8" x2="412.5" y2="142.9" xlink:href="#linear-gradient37"/>
    <linearGradient id="linear-gradient105" x1="37.6" y1="79.8" x2="37.6" y2="142.9" xlink:href="#linear-gradient37"/>
    <linearGradient id="linear-gradient106" x1="13.5" y1="79.8" x2="13.5" y2="142.9" xlink:href="#linear-gradient37"/>
    <linearGradient id="linear-gradient107" x1="71.5" y1="79.8" x2="71.5" y2="142.9" xlink:href="#linear-gradient37"/>
    <linearGradient id="linear-gradient108" x1="49.4" y1="79.8" x2="49.4" y2="142.9" xlink:href="#linear-gradient37"/>
    <linearGradient id="linear-gradient109" x1="107.7" y1="79.8" x2="107.7" y2="142.9" xlink:href="#linear-gradient37"/>
    <linearGradient id="linear-gradient110" x1="320.3" y1="79.8" x2="320.3" y2="142.9" xlink:href="#linear-gradient37"/>
    <linearGradient id="linear-gradient111" x1="218" x2="218" y2="142.9" xlink:href="#linear-gradient37"/>
    <linearGradient id="linear-gradient112" x1="336.4" y1="79.8" x2="336.4" y2="142.9" xlink:href="#linear-gradient37"/>
    <linearGradient id="linear-gradient113" x1="285.8" y1="79.8" x2="285.8" y2="142.9" xlink:href="#linear-gradient37"/>
    <linearGradient id="linear-gradient114" x1="346.6" y1="79.8" x2="346.6" y2="142.9" xlink:href="#linear-gradient37"/>
    <linearGradient id="linear-gradient115" x1="391.1" y1="79.8" x2="391.1" y2="142.9" xlink:href="#linear-gradient37"/>
    <linearGradient id="linear-gradient116" x1="232.9" y1="79.8" x2="232.9" y2="142.9" xlink:href="#linear-gradient37"/>
    <linearGradient id="linear-gradient117" x1="398.3" y1="79.8" x2="398.3" y2="142.9" xlink:href="#linear-gradient37"/>
    <linearGradient id="linear-gradient118" x1="398.1" y1="79.8" x2="398.1" y2="142.9" xlink:href="#linear-gradient37"/>
    <linearGradient id="linear-gradient119" x1="234.9" y1="79.8" x2="234.9" y2="142.9" xlink:href="#linear-gradient37"/>
  </defs>
  <g>
    <g>
      <path class="st121" d="M311.8,239.9c.4,1.5.6,3,.7,4.5.6,2.3,1.4,4.5,2.2,6.6,2.3,4.9,5.3,9.9,6.2,15.3-4.7,5-11.6,8.5-17.7,11.7-3.1,1.3-6.3,2.7-9.1,4.2-7.5,3-15.2,5.5-22.8,8-1.6.4-3.9.6-5.2,1.6-4.5,1-9.7,2.1-14,3.6q-2.6.4-11.3,2.4c-1,0-2,.2-2.9.5-10,1.6-20,2.7-30.2,3.5-5.6.3-11.1.6-16.6.9-2.4-.3-4.9-.4-7.3-.4-7.1-.6-14.2-1.3-21.2-1.9-12.3-1.5-24.4-4-36.5-6.4-5.8-1.5-11.6-3-17.4-4.5-3.6-1.2-7-2.2-10.5-3.3-8.4-3.1-15.9-7.3-23.6-11.9-.9,0-1.6,0-1.6,1.1,5,3.8,9.8,7.9,14.7,11.8,7.6,6.7,17.9,10.2,27.5,13.3,2.2.5,7.7,2.2,14.2,3.9,9.8,2.1,19.9,4.7,30.1,5.5,9,1.6,18.1,2.4,27.2,3.2.2,0,.3.2.5.3.3,0,.5,0,.8-.2h13.6c1,0,2-.2,3-.5,4.2-.2,5.9,0,6.1-.2,11.5-1,12.1-1.2,12.7-1.1.3-.2,4.9-.7,5.4-.9,13.5-1.1,26.6-6,39.7-9.2q5.1-1.8,5.8-1.9c13.3-4.6,26.4-10,38-17.9,2.1-1.9,4.2-3.9,6-6,3.1-5.8,6.6-11.7,7.5-18.3-.6-6.1-4.2-10.7-6-16.4v-.8c1.4.3,2.9.4,4.3.4.2-.4.3-.9.3-1.3-2.9-3.5-5.7-7.2-8.4-10.7-.5-.5-1.1-.8-1.8-.8-1.4,2.7-4.2,6.7-4.2,9.6.7.9,1.3,1.7,2.1,2.6"/>
      <path class="st30" d="M356,247.8c4.3-3.7,10,1.2,13,3.9l-5,.2c-2.6-.4-6.4-.4-8.1-2.6,0-.5,0-1,0-1.5M354.1,261.1c2.3.4,4.5,1,6.8,1.2q4.2,0,6.7-.2c4.3-.8,5.5-1.2,6.2-1.2.9,2.7,1.8,5,.3,7.4-5.8,5.3-12.4,9.5-19.2,13.5-17.3,9.9-35.1,18.4-53.4,25.4-.4.2-8.4,3.1-5.6,4.6,3-1.1,6.1-1.9,9.2-2.6,9.1-1.3,18.1-2.5,26.9-5.4q6.9-3.5,9.7-4.6c6-3.3,11.8-6.7,17.6-10.5,3-2.3,6-4.6,8.9-6.9,4.3-5.3,7.5-11.3,9.6-18.1.3-1.4.7-2.8,1-4.2,1-1.3,3.2-1.8,4.8-2.4,1-.7,2-1.3,3-1.9,4.8-4.3,7.2-11.1,6.5-18-.7-1.6-1.2-3.3-1.5-5-1.6-3.4-3.3-6.5-5.2-9.6,1.7-.2,2.8,1.6,4.3.9,0-.3.2-.6.3-.8-2.4-5.1-6.4-9.1-10-13.3-.7-.4-1.4-.6-2.2-.3-1.1,2.5-2,5.1-2.8,7.7-.5,2.9-.2,2.7,2,4.8.3.6.4,1.2.5,1.9,2.2,5.3,4.7,10.2,7.4,15.1.9,1.9,3.1,4.9,2.7,7.1-3.3,2-6.7,3.4-10.4,4.3-1.9-7.5-7.5-13-14.3-13.8-8.5.6-11.5,9.6-14.1,16.2,0,4.1.6,6.4,4.6,8.5"/>
      <path class="st1" d="M370.6,287.2c-.2,0-.5,0-.8,0-2.5,4.8-5.9,17.3,1.6,20,3.3-.3,5.6-5.7,4.2-8.4h-.6c-1.3,1.5-1.2,3.7-3.7,3.7-4.8-2-1.2-10.3-.4-13.6,0-.5,0-1.2-.3-1.8"/>
      <path class="st89" d="M417.7,236c1,0,4.4.4,5.1-.3q0-.6-.2-.9c-5.3-3-10.7-5.6-15.9-8.5h-1.1c0,.3-.2.5-.3.7q.7,8.6,1,10.1c1.2,1.2,3,1.7,4.4,2.6,1.3,1.5,2.6,3,3.9,4.5,3.1,2.7,6.3,5,9.6,7.3,6.8,4,13.7,8,20.4,12.3,1.7,1.6,3.5,2.5,3.9,4.8-2.5,4.2-8.9,8.2-13.6,9.8-11.3,6.3-23.1,11.4-35.1,15.5-4.4.8-8.9.4-12-3.1-2.8-4.8-1.4-10.7.5-15.6,1.1-2.1,2.2-3.8,3.5-6.3,1.5.5,2.5,1.9,4.2,1.9,2-2,3.8-4.2,5.5-6.5,3.3,1.4,6.5,4.2,9.5,6.2h.8c2.2-2.7,4.5-5.3,6.6-7.7,0-.3,0-.6-.2-.8-.8-.6-5.3-3.5-9.6-6.6-3-.2-4.4,6.6-6.8,6.6-.6-1.3-4.3-3-5.6-3.8-1.1-.8-2.7-2.9-4.3-2.6-1.9,2.3-6.1,6.1-6.1,9,1.4,1.1,2.8,2.2,4.1,3.3-1.6,3.4-3.3,6.7-4.9,10.1-1.3,3.6-2.4,7.3-3.2,11.1,0,1.9,0,3.7,0,5.6.3,1.2.6,2.3,1,3.5,2.3,4.4,5.7,6.4,10.7,6.9,3.8-.5,7.3-1.5,10.9-3,0,0,0-.2,0-.3,2.4-.8,4.7-1.8,6.9-3,8.6-3.7,16.8-8,24.9-12.5,0,0,.3.3.4.4h.4c0-.4,0-.7,0-1.1,1.8-1.2,3.7-2.3,5.6-3.3,2.6-2,4.9-4.5,6.7-7.3.4-1.2.8-2.4,1-3.7-.2-6.5-.7-15-7.4-18.5-.3-.3-.7-.6-1-.8-7.5-4.5-15.1-9.2-22.5-13.9-.3-.5-2-1.5-2-2.2"/>
      <path class="st81" d="M46.5,299.3c1.5-1,3-2,4.6-2.9,6.8-3.1,13.7-6.3,20.4-9.4,1.4-1,3.6-3.3,3.6-5-.6-.2-1.8,1.1-2.2,1.4-2.7,1.2-5.3,2.5-7.9,3.7-6.4,2.4-13,5-18.6,9-.8,1.8-1.4,2.7-1.4,4.5.5-.4,1-.8,1.5-1.3"/>
      <path class="st87" d="M185.2,283.2c-1.1,0-2.5,3.3-2.7,3.7-1.4,3.9-3.9,10.3.9,13.2,2.5-.5,4.4-4.7,4.4-6.9-.2,0-.4,0-.6,0-.5.9-1.5,3-2.9,2.1-2.9-3.8-.9-7.6,1-11.3,0-.3,0-.6,0-.8"/>
      <path class="st105" d="M238,272.9c-.2,0-.4,0-.6,0-2.1,3.8-4.1,7.3-4.6,11.7,0,4-.3,8.3,4.1,10.1,2.4-.8,4.6-6,4.2-8.2,0,0-.3,0-.4,0-.9,1.4-1.4,2.7-2.9,3.7-4.2-.6-3.1-7.2-2.8-10.1.9-2.4,2.7-4.9,3-7.3"/>
      <path class="st76" d="M80.8,256.2c3.4,0,6.7.5,10.1,1.4,1.1.6,5.6,2.9,5.2,4.4-.7.3-1.3.6-2,1-.9,0-1.7,0-2.6.2,0,0-1.4-.2-2.8-.6-3-1.3-5.8-3.3-7.9-6.1v-.3h0ZM2.3,285.2c3.2,5,7.2,7.1,13.1,8.2,2.5-.2,4.9-.6,7.2-.9,2.2-.9,4.4-1.9,6.4-3l6.1-4.6c2-1.7,4-3.6,6.1-5.2,9.4-8.5,19.6-16.4,31.5-21.4,1.6,5,4.4,9.3,8,12.4,5.1,3.5,13.6,6,17-.7,1.5-4.5,1.4-9.4,1.7-14.1-.2-1.4-.5-2.8-.8-4.2-4.3-7.3-13-6.5-20.4-6.2-2.3.6-1.6,1.1-2.3-2.2l-2.5-17c-1.1-10.1-1.9-18.4-2.7-25.5-.2-7.2-.6-11.1-.8-19.6,2.8.6,3.7,6,6.4,6.4l.5-.2c0-.2,0-.5,0-.7-3.1-7.5-6.4-15.3-9.5-22.8-.5-1.4-.9-3.2-2.2-4.1-.2,0-.4,0-.6,0q-1.7,3.1-2,3.9c-1.2,1.9-2.9,3.9-2.7,6.3,1.1,1.1,1.8,2.5,2.3,4.1.8,9.2,1.7,18.4,2.5,27.6,1.1,15.6,2,31.3,5.4,46.5,0,.2,0,.3,0,.5-7.1,2.7-13.9,7.8-20,12.3q-1,.9-20.2,16.9-2.1,1.8-6.7,4.8c-2.2,1.2-4.5,2.1-6.7,3.1-5.2.9-8.9-.4-12-4.5-2.6-5.1-1.3-10.7.3-15.8q2.5-5.1,4.7-9.4c2-3.1,4.5-5.9,6.3-9,.3,0,2.1,2.5,2.9,3.1,5.3,3,7.4,0,8.5-4.8,0-1.6.9-7.2-.6-8.1h-.6c0,0-.2.3-.3.4-.6,2.6-1.1,6.4-5,5.1-4-3.4-2.4-8.7-1.4-13.2.8-2.2,1.7-4.2,2.8-6.2,1-1.7,4.2-5.5,3.1-7.4h-.6c-4.3,5.9-8.1,12.6-9.4,19.7-.2,1.4-.3,2.8-.5,4.3,0,3.1.3,3.6.3,4.5-.7,1.1-2.7,3.2-4.2,5.2-4.4,6.6-7.6,12.8-9.6,20.3-.3,1.8-.5,3.6-.7,5.4,0,2.1.3,4.3.7,6.3.5,1,1,2.3,1.6,3.5"/>
      <path class="st42" d="M152.4,257c3.2-2.5,6.5-4.8,9.9-6.7q4.8-1.9,9.9-3.8c1.2-.2,2.5-.4,3.7-.5h2.4c4.9.8,17.1,5,15.1,11.5-5.1,5.4-12.8,8-19.7,10.1-8,1.8-9.6,2-9.9,2.2-8,1.3-16.1,2-24.2,2.1,0,0,0-.3-.2-.4,3.9-5.4,8.2-10.2,13.1-14.5M274.6,265.3c.4,2.3-3.2,2.5-4.9,2.6-3.4-.7-6.5-2.4-9.2-5,4.6-.2,10,0,14.1,2.4M104.4,197.4c2.5,14.4,2.5,29.2,3.1,43.7-.2,4.2.4,8.3.5,12.5,1,5,2.6,9.6,4.7,14.1,1.2,2.1,2.6,4,4,5.9,1.3,1.3,2.6,2.5,4,3.6,3.2,1.7,6.4,3.2,9.7,4.4-.6,2-1.1,4-1.6,6.1,0,.8,0,.9.5,1.4.2,0,.4-.2.6-.2l3.1-6.4h9.2c3.2-.5,6.4-.7,9.5-.6.3.2,7.1.9,9,1.3q2.5,0,12.6.2c2.4-.4,4.9-.6,7.2-.6,3.2-.7,6.5-1.2,9.8-1.5,3.7-.9,7.3-1.6,11-2,7.9-1.9,16.5-3.3,23.8-6.4q4.4-1.3,26.5-8.9.4.5,1.4,3.7c3.1,6.4,7.4,9.4,14.1,11.4,2.2.3,4.5,0,6.6-.5,3.2-1.7,3.9-4.8,4.8-7.9,0-4.2-.7-8.2-2.4-11.9-.9-1.2-2-2.2-3.1-3.2-5-2.8-11.4-3-16.9-2.5l-.5-.2q-.3-.9-2.3-10.3c-1.1-10.2-2.4-20.4-3.8-30.6-.5-7.8-1.2-13.2-1.7-20.3-.5-3.5-.8-6.8-1-10.3,0,0,3.2,3.9,4.8,5.7,2.1.3.9-1.8.5-2.8-2-7.4-4.8-15-7-22.4-.2-.2-.4-.3-.6-.5-2,1.1-5,7.7-5.2,10,.8,1.3,1.2,2.8,1.2,4.4,0,0,.2.2.3.3.7,12.2,1.6,24.4,3,36.5,1,14.1,3.4,28.1,5.8,42v.9c-3.7,1.2-7.3,2.4-11,3.7-5.8,2.5-12.2,3.5-18,5.9-5.7,1.4-11.2,3.2-17,4.2-5.7,1.4-11.4,2.5-17.2,3.1,1.4-1.2,2.8-2.5,4.1-3.8,3.1-4.6,5.8-9.4,7.9-14.7.8-3.3.9-5.5,0-8.6-3.3-4.8-8.7-6.4-14.3-7.7-3.7-.2-7.3,0-11,1-1.7.6-3.3,1.2-5,1.8-4.2,2.2-8.2,4.8-12.2,7.4-4.3,3.7-8.3,7.6-12.1,12,.8-2.1,1.5-4.2,2.3-6.3.7-3.4,1.3-6.8,1.6-10.3,0-3.6,0-7.2,0-10.8-1-15.3-2.6-30.6-3.9-45.8q-.6-9-.4-9.2c1.6,1.5,3.1,3.2,4.6,5,3.6,1.7-.7-7.5-.9-7.9-1.9-5.9-4.2-11.5-6.6-17.1-.4-.4-.8-.5-1.3-.4q-2.5,4-4.8,7.8c0,1.4,1,2.6,1.5,3.9.7,2.5,1.2,5,1.5,7.4.7,19,2.8,37.8,4.8,56.8.4,9,.7,18.3-1,27.2-1.4,4.2-3.3,8.1-5.5,11.9-1.6.2-3.5-.6-5-1.1-4.1-1.6-7.7-4.2-10.9-7.4-7.5-11.5-6.6-25.8-7-38.8-.4-7.5-1-15.1-1-22.6q-.2-.7-1.2-8.8c-.8-3.4-1.4-6.8-1.9-10.3-.6-1.5-1-3.1-1.1-4.7-1.8-5.7-2.8-11.5-4.9-17.1-.2-.7-.3-2.8-1.6-2q-.3.6-3.2,8.9c0,.3,0,.7,0,1,1.8,5.9,3.8,11.7,4.7,17.9.9,3.2,1.5,7,1.9,11"/>
      <path class="st33" d="M328.7,179.6q.2,4.5,1.2,15.4c1.3,7.6,2.1,15.4,3.3,23.1,2.1,16,4.2,32.1,5.8,48.1.3,4.8,0,9.5,0,14.3s0,.2,0,.3c.2-.2.4-.5.6-.7,1.2-3.6,2.3-7.1,3.5-10.6.2-1.9.5-3.8.8-5.6-.4-22.1-4-44.3-7-66.3,0-1.3-.3-2.5-.4-3.7-.5-3.5-1.9-8-1.5-11.5.2,0,.3.2.5.4,1.8,2.3,3.8,4.4,6,6.3.6-.2.6-.8.6-1.3-1.1-3.7-2.2-7.2-3.3-10.9-2-5-4.3-9.8-6.7-14.4l-1-.6c-.2,0-.4,0-.6.2-1.8,2.8-3.4,5.9-4.8,8.9,0,1.8,1.8,4.1,2.6,5.8.2.8.3,1.8.5,2.8"/>
      <path class="st11" d="M17.8,259.1c-2.1,4.8-4.9,14.1,1.4,17.2,4-.3,3.6-3.8,4-7,0-.5,0-1,0-1.5-.3,0-.6,0-.9,0-.4,2.1-1,3.9-3.6,2.8-1.8-1.7-1.8-4.1-1.8-6.4q1.3-4.6,1.3-5.2h-.3Z"/>
      <path class="st43" d="M274.6,175.3c1,12.3,1.7,24.6,3.7,36.8,1.1,10.6,2.6,21.2,4.2,31.8.2,4.5,1.2,8.9,1.8,13.4q.6,8.4.8,17.8l.5.2c0,0,.2-.2.3-.2,1-4,2.1-7.8,3.2-11.7.7-5.2.3-10.3,0-15.6-2.3-22.1-5.6-44.1-7.5-66.2.4.5,5.9,9.4,6.4,5.2-1.6-4.8-3.2-9.4-4.8-14.2-1.8-4.1-3.7-8-5.9-11.9-.7-.7-1.3-.2-1.8.3-1.3,2.7-2.6,5.4-3.9,8,0,.3,0,.6,0,.8,1.2,1.7,2.2,3.6,2.9,5.6"/>
      <path class="st63" d="M301.9,266.2c0,0,.3,0,.5.2,0,0,.3,0,.4-.2,2-2.7,4.1-5.3,6.2-7.9v-.6q-8.2-7-9.1-8h-.5q-1.7,2-3.6,4.5c-.8,1.4-2.3,2.9-2.3,4.5q6.9,6.1,8.4,7.6"/>
      <path class="st116" d="M228.9,247.4c1,2.9,1.7,3.8,4.9,4.6,4-.8,4.5-7.1,3.9-10.1,0,0-.2,0-.3,0q-.3.2-1.3,2.7c-.5.8-1.1,1.4-1.9,1.9-5.3.4-3.3-6.9-2.8-9.4.4-1.3,5.1-9.5,4.2-11.2h-.3c-3.8,5.1-6.3,11.3-6.9,18.1.2,1.1.4,2.4.6,3.7"/>
      <path class="st86" d="M38.7,198.9c.2,0,.4,0,.6-.2,0-.2.2-.4.2-.6h.3q0,.2,1.3,2.3c.8,1.6,2.2,4,2.2,5.8-.7.5-1.4.9-2.2,1.4-.8,1.4-1.3,3-1.4,4.6q.2,0,1.5-1.2c1.2-.6,2.1-.2,3.4,0,0,0,0,.2,0,.3-1.4.5-2.8,1.3-4,2.2-4.7,5.8.4,13.3,2.8,18.7.7,1.9,1.5,3.9,2.2,5.9q2.2,8.1,2.8,9.7c0,.9.3,1.8.8,2.5h.3c.6-5.1-1.5-10.1-2.6-15.1-.8-2.1-1.5-4.3-2.2-6.4-1.4-2.9-2.7-5.8-3.9-8.8-.5-.6-.8-1.4-.7-2.2,1.8-2.1,5.9-2.9,8.3-3.6q.3-.5,1.4-3.5c0-2.5-3.3-4.2-5.5-4.6.7-4.4,1.1-9,2.4-13.3,2.2-3.5,4.2-2.1,5.6,1.1h.5c.5-1.4.7-2.9.7-4.4-1.1-1.9-2-3.9-4.6-3.5-4.6,2.7-4.2,9.9-5.2,14.4-1.4-3.3-4.4-10.9-8.8-10.9-.4,1.9-.6,3.8-.4,5.7,1.5,1.3,2.9,2.5,4.3,3.7"/>
      <path class="st97" d="M58.8,250.3c.6,0,1.2-.2,1.7-.2,1.8-1.8,2.3-4.2,2.3-6.6-.5-.3-1.4,1.6-1.6,1.9-3.2,1.5-4.4-2.3-4.4-4.6.5-2.3,1.9-4.6,1.9-6.9-2.2.5-3,8.1-3.2,10.3,0,3.1.6,4.6,3.3,6.2"/>
      <path class="st46" d="M218.9,223c-2.9-2.1-4-1.2-5.3,1.8-1.1,3.9-2.2,8.9-3.3,12.9,0,0-.2,0-.3.2q-.3-.4-1.8-3.8c-.5-.7-.9-1.4-1.3-2.1-1.5-1.8-6.2-7.6-9.2-6.8-.4,2.3-.4,4.7,0,6.9,1.7.8,3.7,2.3,5.5,2.6.3-.2.5-.5.8-.7,1,1.2,2,2.5,3,3.7,1.1,2,2.2,4.7,3.4,6.8h.6c0-.2.2-.3.3-.4,2.1-8.8,2.6-11.8,3.4-15,.2-.7.6-1.2,1.2-1.7,1.9.7,3.6,2.2,4.5,4.3h.5c.5-1.9,1.1-4.6.5-6.5h-.5c-.5-.7-1.2-1.5-1.9-2.2"/>
      <path class="st99" d="M84.2,228.8l1.1-.5c2.2,3.3,4.5,6.7,5.3,10.6,0,0,.3.2.4.3,0,0,.3,0,.4-.2,2.3-5,2.5-10.5,4.8-15.4,2.3-2.5,3.8-.2,5.3,1.9,1.4-.2,1-4.4,1-5.5-1.5-1.6-2.2-2.7-4.4-3.1-4.5,1.7-4.9,11.7-6.4,14.8q-.9-1.5-3.4-6.4c-1.3-1.8-5-7.6-7.4-7.6-.7,1.9-1.8,4.4-1.6,6.3.4.7,2.8,2.6,5.1,4.8"/>
      <path class="st34" d="M130.3,237.7c3.4-.8,4.2-6.3,3.8-9h-.2c0,0-.3,0-.4,0-.5,1.6-1.1,3.3-3.1,3.3-3.9-2.1-3.5-6.9-3.3-10.7.9-2.8,1.9-5.4,2.9-8.1,0-.2-.2-.3-.3-.4-.3.2-.6.3-.9.5-2.2,3.9-3,8-3.8,12.3,0,4.3-.2,10.8,5.3,12.1"/>
      <path class="st62" d="M233.6,196.9c-2.8,1.3-5.6,2.7-8.3,4.1-14.5,6.4-29,12.4-43.1,19.5-5.9,3.2-12,6.3-17.1,10.5-.5.7-.9,4.2-.4,4.7,6.3-5.7,14.3-8.9,21.4-13.3q11.2-5.4,15.5-7.2c.5,0,.8,0,1.1-.4,9.9-4.4,19.8-8.7,29.7-13.1.6-.8,3-4.6,1.2-4.8"/>
      <path class="st80" d="M430.9,233.2c2.5-.6,2.8-2.2,3.5-4.6,0-1.1.3-4-.9-4.6,0,0-.2.3-.3.5-.3,2-1.1,4.6-3.7,3.7-2-1.9-.9-6.9-.6-9.3.3-1.2,2.4-6.4.4-6.6-1.7,2.3-2.1,6.8-2.3,9.6,0,4.1-.6,9.2,3.9,11.3"/>
      <path class="st17" d="M361.2,227.1c-1.1-.4-1.3-.5-1.4-1.6.3-1.4.7-4.8,2.1-5.7,1.7,1.1,4.7,2.3,4.7,4.6-1.5,1.8-3.4,2.7-5.4,2.7M361.7,213.8c-.2,0-.3,0-.5,0-.6,1.2-.5,3-.7,4.3-.6,1.8-1.3,3.6-1.9,5.4-.8,3.8-1.7,6.5,2.3,8.3,2.3,0,4.6-1,6.2-2.9,1.9-3.4,1.6-6.4.5-9.9-.6-.6-1.1-1.2-1.7-1.8-1.7-.9-3.3-1.6-4.2-3.3"/>
      <path class="st54" d="M267.4,228.7c1.7-.2,1.9-.6,3-1.9.5-1.2.6-3.8-.2-4.9h-.4c-.4.6-.7,1.2-1,1.7-1.5,1.1-3-.6-3.6-1.7,0-3.6,1.9-6.6,1.9-10.1-.2,0-.3,0-.5,0-2.8,4.3-6.1,14.7.8,17"/>
      <path class="st37" d="M399.1,208.8h-.3c-2,3.6-7.1,15.8-.6,18.3,1.2-.5,2.2-1.5,2.9-2.7.2-.7,1.7-5.8.4-5.6-.6,1.3-1.4,3.3-3,3.6-4.7-1.7-.2-10.6.7-13.1,0-.2,0-.4,0-.5"/>
      <path class="st47" d="M298.4,167.8c1.2,1.5,4.3,4.9,4.3,6.7-1.8.6-3.4,4.1-3.4,5.9,1.1,0,1.4-.8,1.8-1.6,1,0,3.4.3,3.7,1.4-1,.3-1.9.6-2.9.9-3.4,1.9-3.4,4-4.3,7.6,1.8,9.8,8,18.3,11.1,27.7,0,1.1,0,2.6,1,3.5,2.4-5.6-1.6-14.1-4.5-19-1.9-4.1-3.6-8.1-5.4-12.2-.2-.8-.2-1.6,0-2.4,2.9-1.6,6.1-2,9.1-2.9.8-1.2,1.3-2.5,1.7-3.9-.2-1.3-2.5-2.3-2.5-3-1.3-.6-2.5-1.2-3.7-1.8q0-1.1,1.2-10.1c.6-1.7,1-3.2,3-3.2,1.1.8,2.3,1.3,3,2.5.8-.2.9-4,.9-4.4-1.1-1.3-2.5-2.3-4-2.7-2.4.4-2.9,2.1-3.6,4.1-.5,3.1-.9,6.2-1.4,9.2-.9-.3-2.7-4-3.2-4.8-2.2-2.5-4.7-4.6-7.3-6.2,0,0-.2,0-.3,0-.3,1.7-.5,3.5-.6,5.2,1.5,1.3,3.3,2.2,5.2,2.5.4.2.7.5,1.1.7"/>
      <path class="st94" d="M175.3,210.6c-2-3.6-6.6-5.6-9.7-8.1-2.7.4-5.5,6.2-6.8,8.2,0,.3,0,.6,0,.9,2.8,2.3,6.1,4.3,8.6,6.7,2-.2,3.7-2.7,5-4.2h.3c.3,0,.4-.4.2-.7.9-.9,2.3-1.8,2.4-2.9"/>
      <path class="st29" d="M357.4,206.1c13.7-7.2,27.5-14.3,41.8-20.3,1.2-.6,5.9-3.5,7-3.2.9-1.4,1.4-3.1,1.5-4.9-.9-.3-6.5,3.2-7.5,3.6-8.7,3.5-17.1,8-25.7,11.6-.5.4-2.4,1.2-16.3,8.6-5.2,3.2-8.2,4.6-8.6,10.8,2-2.8,5-4.4,7.8-6.3"/>
      <path class="st22" d="M403.4,192c-.7,1.9-1.1,4-1,6.1,1.2,1.3,2.5,2.5,3.8,3.5.6,0,1.3-.4,1.7-.9,2.3,2.9,4,6.2,5,9.8h.2c0,0,.3-.3.5-.4q1.1-3.4,3.9-13.4c.2-.4.4-.8.7-1.2,2-1,4.6,1.3,5.1,3.2,1.4-.3,1.1-4,.8-5.2-1.5-1.4-3.7-3.9-5.9-2.3-2.2,4-3.3,9-4.8,13.4,0,0-.2,0-.3,0-.9-2.3-2-4.5-3.2-6.6-1.2-1.6-4.1-6-6.4-6.1"/>
      <path class="st67" d="M154.5,197.9c-.9,1.4-.6,3.8-.6,5.4,1.8-.8,3.5-1.8,5-3.1,11-5.8,22.2-11.3,33.2-17.1,5.8-2.7,11.5-5.4,17.3-8,6.9-2.7,13.9-5.4,20.7-8.2.9-.2,1.8-.5,2.8-.7,1.7-1.3,2-3.9,2.2-5.8-1.8-.8-5.8,1.6-7.4,2.3-13.4,4.9-26.3,10.7-39,17.1-10.9,5.8-21.9,11.5-32.9,17.1-.5.4-.8.8-1.2,1.1"/>
      <path class="st56" d="M203.8,194.3c.5,3.4.6,4.8,3.5,6.7,2.9-.4,4.8-4.4,3.7-6.9h-.5c-.2.3-.4.6-.6.9-1.8,2-2.8,1.5-4.1-.5-1.1-4.4,2.7-7.9,2.7-12.1-2.6,1-4.2,9.7-4.7,11.9"/>
      <path class="st50" d="M88.1,200c2,0,2.1-.3,3.3-1.9.7-1.7,1.7-6.3.4-7.5,0,0-.3,0-.4,0-.6,1.2-.7,3.9-2.7,3.9-3.6-1.5-3.8-5.5-3.6-8.7.2-1.5,1.8-6.4,1.8-6.9-.2,0-.3,0-.5,0-3.2,5.8-6.1,17.3,1.7,21"/>
      <path class="st82" d="M356.7,177.1c.6,1.2,1.2,2.2,2,3.2,1.2,3.1,1.8,6.4,1.7,9.8-.3,1-1.5,3-.3,3.8,4.2-1.2,3-11.1,2.5-14-.6-1.9-1.4-3.8-2.3-5.6-1.2-1.7-2.5-3.3-3.8-4.8-1.1-.9-4.3-4.2-5.8-4.2-.9,1.2-1,3.3-1,4.8,2.6,2.2,4.9,4.5,6.9,6.9"/>
      <path class="st15" d="M115.3,165.5q0,.3,1.8,2.1c3.6,4.8,7.1,9.7,7.9,15.7v3.9c-.3,2.7-.8,5-.8,5.3h.7v.3c.3-.3.7-.6,1.1-.9,2.4-4.2,1.9-11,1.1-15.6-2-6.4-5.5-11.9-10.1-16-1.6-.2-2.5,4-2.7,4.5q.2.2,1,.8"/>
      <path class="st10" d="M377,181.3c1.1.4,2.1.5,2.3.6.8-.3,1.5-.6,2.3-.9,1.9-2.4,2.8-4.5,1.3-7.2-.2,0-.4,0-.7,0-.9,1.6-.9,3.2-3.3,3.2-2.9-1.4-2.2-2.1-1.9-5.3.7-2.3,2.7-5.4,1.7-7.6h-.5c-3.4,4-5.4,11.4-2.9,16.1.7.5,1.2.9,1.7,1.3"/>
      <path class="st6" d="M157,169c.5-.2.9-.4,1.4-.6,1.9,2.5,2.7,6.3,4.4,9l.9-.5c.8-4.1,1.7-8,2.8-12,1.1-1.8,2.2-4.3,4.5-2.4.5.6,1.3,2.2,2.1,2.2.9-1.3.7-3.3.7-4.8-.8-.8-1.5-1.6-2.3-2.4-5.5-3.5-7.9,12.1-8.5,14.4,0,0,0,0-.2,0l-2.3-5.8c-1.2-1.9-2.5-4.6-4.6-5.6-.8-.6-2-2-3.1-1.7-.6,1.5-.5,3.6-.7,5.3.4,1.3,3.8,5,5,4.9"/>
      <path class="st26" d="M261.9,176.3h1.6c2-2,2.1-4.6,2.1-7.2-1.3.6-1.2,2.4-3,2.8-5.4-1.7-1.8-8-1-11.6h-.5c-1.4,2.8-2.3,5.9-2.7,8.9,0,3.7,0,4.9,3.5,7.1"/>
      <path class="st3" d="M192.7,173.2c.3-.2.6-.3.9-.4,1-1.6,2.6-4.6,1.4-6.4-.7.6-.8,1.4-1.7,2-4.5-.5-1.2-6.5-.8-9.2,0-.2-.2-.3-.3-.4,0,0-.2,0-.3.2-1.9,3.8-5.1,12.3.8,14.2"/>
    </g>
    <g>
      <path class="st20" d="M438.5,123.7c-.9-.2-6-2.1-5.5-2.9,2.7-.3,5.4.5,7.5,2.2-.6.5-1.3.7-2,.7M257.6,119c-.9-.8-1.8-1.5-2.6-2.2.9-.8,5.8-.4,6.8.2-1.3.8-2.8,1.5-4.3,2M99.7,121.7c-.4-.3-3.1-2.2-3-2.8q0,0,1.9,0c1.7,0,3.4.3,5.1.8-1.3.8-2.6,1.5-4,2.1M6.4,117.6c-.6-.2-1.2-.4-1.7-.7.2-.5.5-.9.9-1.2,1.9-1.4,4.5-3.7,6.6-4.3,0-.7,1.3-1.3,2-1.3.2,1.5.4,3,.7,4.6-2.3,2-5.2,2.6-8.5,2.9M77.7,128.4c-.3,0-.6,0-.9,0-1.5,0-4-.3-4.8-1.5,2.4-1.1,4-.2,5.8,1.2l-.2.2M300.2,81.9q0-.6,0-1c.9,0,1.5.9,1.4,1.8-.5-.2-1-.5-1.5-.8M441.4,117.9c-1.8-2.3-4.2-2.8-7.2-3q-1.7,0-2.6.2t-2.4.6c-.7-1.8-1.3-3.6-1.8-5.3q-2-12.6-2.1-12.9c-.5-5.5-.8-7.1-.8-8h.2c.6,1.2,1.5,2.3,2.5,3.3h.4c.2-.4.3-.8.2-1.2-2.1-4.5-4.2-8.9-6.6-13.2l-.3-.3h-.5c-1,1.3-1.8,2.8-2.6,4.3-.2,1.5,1.1,2.9,1.8,4.2,0,1.3-.2,3.5.5,4.6,1.5,8.9,2.1,18.2,4.5,27-.2.5-1.2.9-1.8,1.1-2.3,1.9-4.5,3.9-6.4,6.1-.6,1-1.2,2-1.7,3.1-.2,1.3-.4,2.6-.8,3.9-2.1-1.8-3.1-4.5-4.2-6.6-.4-1.7-.8-3.4-1.4-5-.6-3-.9-3.9-2.4-10.4-.7-5.4-1.2-11-1.8-16.5-1-5.2-2.2-10.5-3.4-15.6.2-1.2.6-2.4-1.2-2.9-.5.6-.8,1.5-2.5,5,0,1.3.2,2.6.5,3.9,0,.3.2.7.2,1.1v.5c.4.5.3,1.3.3,1.9.5,4.2,2.2,8.1,2.5,12.3,1.4,7.4,1.3,15.1,3.1,22.5.4,4.2,1.5,8.4,1.5,12.7-2,2-5.1,2.8-7.8,3.3-.7,0-1.4,0-2.1,0-2.3-.9-4.4-1.8-4.5-4.2,1-.2,1.9-.6,2.8-1,2.1-2.5,5.1-7.1,2.8-10-1.2-.7-2.3-1.4-3.5-2q-2-.8-2.3-1.1c-1.4-.2-2.8-.6-4.1-1.2-3.7-.6-7.4-.9-11.2-.8q-11.6,1.2-25.6,2.5c-2,0-23.8,2.3-23.8-3.3,2.3-3.3,6.7-5.7,10.4-7.9,2.5-1.1,5-2.2,7.4-3.1,2.7-.6,6.4-1.4,8.7.3h.6c1-1.5,2-3,3-4.5,0-.2,0-.4,0-.6-5.1-3.8-15.3,1.5-19.4,3.8-1.2.8-2.4,1.5-3.6,2.4-5,3.8-8.5,7.4-10.8,12.8v.8c.2,1.7,1.4,3.1,3,3.7,6.7,2,14,1.1,21,.8.2,0,.4,0,.6,0,8.7-.6,17.4-1.9,26.1-2.8l5.8.2c3.6.5,7,1.4,10.4,2.8.8.5,3.5,1.9,3.5,2.7-5.6.4-11.4,1.7-17.1,1.9-14.3,1.2-28.6,2.7-43,3.5h-10.4c-3.3-.5-3.8-.7-4.3-.7-2.7-.9-5.2-2.2-7.6-3.9v-.2c-.5,0-1-.9-1.3-1.2-1-1.6-2-3.1-3-4.7-1-.8-2.6-.7-3.8-.7-9.3,2.4-11.6,10.9-15.5,17.2-.6.7-1.2,1.3-1.7,2-2.1,1-3.1.9-5-.2-3.4-2.9-5.1-7.1-5-11.5.4-.2,1-.8,1.3-.9,2.4-4,3.6-8.4,3.7-13.1-.4-3.4-1-6.6-1.6-10,3-1.3,5.9-2.7,8.7-4.2h.3c1.5,7.4,3.6,15.1,4,22.6,0,.5-.3,2.5,0,3,0,0,.2,0,.4,0,2.6-5.1,1.8-12,1.1-17.1q-.6-2.5-2-10.5c1.8-1.1,3.6-2.3,5.1-3.7.5-.5,1.1-1,1.6-1.5,2.3-2.3,3.9-5.1,4.9-8l1.3,1c2,2.8.3,5.7.6,8.8.2.2.4.4.6.6,2.2,1.1,3.4-3.5,3.1-4.7-.2,0-.4,0-.5,0-.3.7-.9,1.2-1.5,1.6-.9-.3.2-4.5.2-4.8,0-.6,0-1.1,0-1.7-.2-1.2-.7-2.3-1.5-3.2q-.3,0-1.4-.9c-.3-2.2.5-3.8-1.5-5.3h-.9c-1.4,1.4-2.8,4.2-2.5,5.9q.2.4.9,1.1c.6.2,2,.6,2.2,1.2-1.5,3.2-3.9,5.8-6.8,7.7,0,.2-4.2,3.1-4.4,3.1-.8-3.2-1.8-6.7-1.8-9.9,1.2.9,2.2,1.9,3.3,2.9.3-.2.5-.6.5-1-1.6-3.1-3.1-6.1-4.6-9.1-.5-1.2-1-2.4-1.6-3.6h-.5c-1.2,1.5-2.1,3.2-2.8,4.9.3.5,1,2.2,1.5,3.3.6,1.8.9,3.6,1.1,5.3,0,.2,0,.4,0,.6h-.2c.2.5.2,1.1,0,1.6q1.1,5.8,1.1,6.6h0c0,.2,0,.3,0,.5-2.8,1.8-5.5,3.4-8.5,5-1.1-5.5-1.7-11.2-2.4-16.7,0,0,.2,0,.3,0,.4.5.8.9,1.4,1.2.4.8,1.2,1.4,2.1,1.6,0,0,0-.2,0-.2-.3-1.3-.8-2.6-1.5-3.7-1.1-3.5-2.6-6.7-4.4-9.8-.4-.2-.8-.3-1.3-.2-1.1,1.4-2,3-2.6,4.6.8,2.1,1.5,4.2,2.1,6.2,0,2.6.8,5.1.8,7.5.5,3.7,1.6,8.1,1.6,11.8-.7.4-1.8.4-2,1.2.9,0,1.5-.5,2.3-.2.9,5,2.2,10.3,2.4,15.3-1.2,3.1-7.8,3.2-10.9,2.9l-2.6-.8c-.8-.5-1.6-1-2.4-1.5v-.3c2.4-1.2,4.6-2.9,7.1-3.6.7-.6,1.5-3.7,2.2-3.4,0-.7,0-1.5.2-2.2,0-.3,0-.6-.4-.8-3.3-1.6-6.6-1.7-10.1-2.4h-1.4c-5.9-.3-11.8,1-17,3.8-.6,1.5-2.1,4.5-1.3,5.8,1.4,0,1.4-.5,2.5-.9,1-.2,2-.3,3-.4,2,0,3.9,1,5.2,2.4-.4.3-.8.5-1.3.6q-9.3,4.3-11.5,5.1c-1.1.7-2.3,1.4-3.6,1.9-5,3-9,7-13.2,10.7-2.6,1.5-4.6,2.8-7.7,3.1-4.1-.4-5.5-2.3-6.1-5.6,0-.9,0-1.7.2-2.6.6-2,1.3-4.5,3.2-5.8.8-1,1.8-2,2.8-2.8,0,.4,0,.9,0,1.4,1.1,2.7,2.7,5.1,6.5,5.1l.4.2c3,0,6.2-.6,7.6-3,.9-2.4,2.2-5.6,1.7-8.1-.5-1.1-2.2-4.3-3.8-4.2-.9,1.5-.8,4.2-.5,5.7.6.5,2,1.4,2,2.2-4.5,2.4-10.7,2.7-12-2.5,0-1.1.6-2.3.7-3.5-1.1-1.4-4.9,3.4-5.3,3.9-2.8,2.6-6.1,4.5-9.8,5.3-1.2,0-2.4,0-3.6,0-.9-.3-1.7-.6-2.5-.8-3.3-1.8-5.1-5.2-6.7-8.1-.2-.3-.5-.6-.7-.9-1.6-1.1-3.7-1.4-5.4-.8-.8.4-1.5.8-2.3,1.2-5.7,4.3-7.2,11.4-11.3,16.6l-1.5,1.4c-5.3,3-8.9-4.8-8.9-7.9,2.1-1,2.5-1.7,3.5-3.6,1.2-3.2,2.1-6.4,2.5-9.8v-1.2c-1-8.4-2.6-16.8-4.6-25.1v-.6c1.1.7,3.7,4.9,3.7,1.9-1.7-3.4-3.3-6.8-5.1-10.2-.5-.7-2.3-3.9-2.5-4.2-.5,0-.5,0-.8.3-.4.7-3.5,5.1-2.1,5.7.8,1.2,1.5,2.6,2,4,0,1.1,0,2.3.5,3.3-.4.4.7,3.3.7,4.1.7,2.9,1.4,5.7,1.9,8.6,0,0,0,0,.2,0,.5,5.7,2.4,11.7,3.4,17.4-.2,1.7-1.4,2.5-3.2,3.2q0,0,0-1.4c0,0-.2,0-.4-.2,0,0-.3,0-.4,0-.3.5-.5.9-.5,1.5-.8.4-2.9-.4-3.8-.7-.9-.8-2-1.2-2-2.4.4-.5.4-1.2,0-1.9-1.3,0-1.9,1.3-2.5,2.1-1,1.9-2.1,4-4.7,4.6-2.2,0-3.7-.5-4.9-2.2-.3-1,.7-2.8,0-3.3h-.5c-1.7,1.4-3.2,3.1-4.4,4.8-3.1,2.6-5.4,3.4-9.3,1-1.1-1.5.9-3-.2-4.2h-.9c-1.1,1-2.1,2.1-3,3.3-2.5,2.4-5.6,3.8-9.1,4-3.3-.3-6.4-1.4-9.2-3.2l-.2-.3c0,0,0-.2,0-.3,2.4-1.3,4.9-2.4,7.4-3.1.3-.7,2.1-4.1,1.9-5.3-3.9-1.9-8.1-3-12.4-3.1h-2.7c-5.1.2-9.4,1.6-14.1,3.2-.6,1.8-1.6,3.8-1.6,5.5.6.4,2.3-.3,2.8-.6h3.3c1.3.5,5,1.6,5.5,2.6q-.4,0-5.1,1.9c-1.2.2-2.6,1.1-3.7,1.1-1.7-2-3.7-3.8-5.9-5.1-5.1-1.8-9.9,3.9-11,7.3,0,.5.2,1.6,0,2,2.4,4.7,10.3,3.1,14.7,2.4.3.5.5.8.3,1.3-2.5,1.9-5.1,3.7-7.7,5.2-5.1,2.8-10.3,5.5-16.5,5.5-.8,0-1.7-.3-2.5-.4l-3.6-1.6c-1.7-1.4-2.9-3.4-3.2-5.5,0,0,.2-.2.3-.3,4.3-2,8.4-4.3,12.6-6.5.5-.6,1-1.1,1.4-1.6.8-1.7,1.2-3.5,1.3-5.3v-1.8c-.3-1-.7-1.9-1.2-2.8-.7-.7-1.5-1.3-2.3-1.8-5.8-2.7-13.4-4.4-17.9-8.7,0-.8,2.7-.2,2.3-.9-1.5-.9-6.6-4-8.3-4-.5.9-.3,4.5.2,5.6.6.3,1.2.6,1.8,1,1,1,2,2,3,3.1,1.5,1.3,3.2,2.5,4.8,3.7,4.2,2.2,8.9,3.5,13.3,5.3.8.5,2,1,2,2-.8.7-1.6,1.3-2.6,1.9-6.6,3.7-13.8,6.6-20.8,9.8-4.4,1.5-9.3,3.6-12.9-.2-1.1-2.5-.3-4.8,1.6-6.7,2.1-.6,4-1.7,5.5-3.2,1.9-2.8,2-6.6,2.1-9.7-.6-2.5-2.4-5-4-7h-.6c-1.3,1.6-1.9,3.7-1.6,5.6,1.7,1.4,2.6,3.4,3.6,5.1,0,.3,0,.6,0,.9-2.1,1.5-4.5,2.4-6.9,2.7-6.3-1.4-6.7-6.3-8.2-10.9q-.6-2.3-1.1-5c.2-1.3,1.8-2.2,2.8-3.2.3-.3,5.1-4.6,2.8-4.6-1.2.8-5.1,4-6,4-.4-2-.7-4.1-1-6q-.3-.5-.5-.7c-1.4,0-2.6,4.9-2.6,5.9.5.9.7,2,.7,3.1-2.5,1.5-4.8,3.2-6.9,5-2.5,2.8-5.5,7.1-3.7,10.5,1.5.9,3.1,1.3,4.8,1.2,4.1-.8,6.6-2.2,8.2-5.4h.2c1.4,4.5,2.3,9.3,7.6,11.6l2.8.7q0,.3-1,2.4c-.2.7-.5,1.4-.6,2-.6,3.3-.4,6,2.3,8.5l2.3,1.1c.8,0,1.6,0,2.3.3,2.5,0,5.1-.8,7.4-1.6,2.1-.9,4.2-1.8,6.2-2.6,1-.7,2.1-1.1,3.3-1.3-.5,2.7,0,5.5,1.6,7.8,2.5,3.2,6.3,4.9,11,4.6,8.2-1.5,16.8-6.7,22.2-12.2,1-2.1,2.2-4.2,3-6.3.7-.5,1.5-.9,2.4-1.1,3.6-1,6.8-2.7,10.3-3.9,2,1.3,3.9,2.7,5.6,4.3,0,0,.3,0,.4,0v.2q.2,0,1.4.7c1.1.6,2.3,1,3.5,1.1,1.6.4,3.3.5,5,.3,0,0,0,.2,0,.3,4-.7,6.7-3.8,9-6.3h.3c0,.5,0,1,.2,1.5,1.2,2.1,3.2,2.9,5.6,3.4,3.1-.4,5.2-2.8,6.7-5,.8-.2,1.8-2.7,2-3.1h.3c-.2,3.5,1.8,5.9,6,6.1l1.8-.6c1.9-1.4,3.3-3.3,4-5.5h.2c.6,2.6,3.8,4.5,6.8,4.6.3,1.5.6,3.1,1,4.6.5,1.1,1,2.2,1.5,3.3,0,1.3,1.7,2,2.2,3.2h.3c.5,1.2,2.4,1.7,3.6,2.2,4,.3,4.9-3.1,6.8-5.1.5-.7.9-1.6,1.2-2.4,0,0,.2,0,.2,0q2.2-3.7,3.8-6.8c0,0,.2,0,.2,0,1.2-2.9,6-6.4,9.5-3.6,1,1.5,2.2,4.3,3.7,5.4.9,1.4,2.6,2.4,4.2,3.2,1.5,1.7,6.3.9,8.3.5,0,0,0-.2,0-.2.3,0,.5,0,.7-.3,1.3-.4,2.6-1,3.7-1.7q0,.2-.9,2.6c-.3,1.5-.6,3.1-.6,4.7l.5,2.1c.4.8,1.2,2.7,2.3,2.9.6.5,1.2,1,1.7,1.5,2.4,1.5,5.3,1.4,8.1,1,.7-.3,1.4-.6,2.2-.7,1.8-1,2-1.3,3.5-2.2.5-.6,1.2-1.1,1.9-1.5q.6-.8.8-.8c1.5-1.2,2.8-2.7,4.5-3.8.3-.4.3-.5.8-.7,1.3-1.2,3-1.7,4.4-2.8,2.6-1.3,5.1-2.5,7.8-3.8.2,0,.6-.3.9-.4,1.5-.5,8.5-3.2,8.5-3.7.2,0,2.1-.8,2.7-1,1.8.9,2.8,2.7,4.5,3.7.2.3.5.5.8.6,3,2.5,7.6,2,11.3,1.3,0,4.6,1.4,8.1,4.2,12,.7.5,1.3,1.1,1.9,1.8,1.4.9,2.9,1.6,4.5,2,2.8-.6,3.7-2,5.1-4.1.3-.7,1.1-1.9,4.7-8.6,1-1,1.9-2.1,2.8-3.2,2.2-1.6,3.9-2.7,6.9-2.3.6.3,1.3.8,1.7.9,1.4,2.3,3.1,4.3,5.1,6.1,2.2,1.4,4.5,2.4,6.9,3,3.4.6,4.1.6,4.3.7-.7,2-1.7,6.4,1.5,7.2,1.7-.2,2.4-3.2,2.1-4.4h-.3c-.2.3-.4.6-.6,1-2.6,1.1-2.3-2.7-2.2-3.8,4,0,7.9,0,12,0,3.3-.3,6.6-.6,9.9-.9,7.3-.4,14.7-1.4,22-1.9,2.6-.5,5.1-.9,7.8-1-.7,1.8-1.2,3.7-1.4,5.5.2,1.9.6,3.5,3.2,3.5.4-.2.6-.2.8-.6,1-.3.8-3.2.7-4-.2,0-.3,0-.5,0-.3.7-.9,1.2-1.6,1.4-.3-.3-.7-.5-1-.7-.6-1.4-.6-4.2.8-5.2q1.1-.2,1.3-.3c4.5,0,8.9-.5,13.4-.9-.9,3.2-.5,5.9,2.6,8.3.8.3,1.7.7,2.5,1,4.5.2,8.6-1.2,11.1-4.4q.7-1.6,2.7-6.9c1,1.5,1.9,3,2.9,4.5,1.2,1.1,2.3,2.2,3.5,3.3.8.4,1.5.9,2.2,1.5,2.8,1.6,5.8,2.7,9,3.4.8.3,1.7.5,2.6.4q.5-1.2,1.9-5c-.4-.8-2.2-1.3-3.1-1.7-2.2-1.4-4.4-2.8-6.5-4.2-1.3-1.1-3-2.4-3.3-4,2.5-3.5,5.9-6.1,9.9-7.7,2.4,2.9,6.4,7,11.2,7,0,0,0,.2,0,.3-2.3,3.3-5.3,9.3-1.5,12.6,2.8,1,4.1-3.7,3.8-5.1-.8-.3-1.1.9-1.4,1.4-2.3,1.9-2.3-2.1-2.3-3.2.6-2,1.7-3.9,2.4-5.7,2.7-.9,3.7-1.9,3.9-4.5,0-1.8-.2-3.7-.4-5.4-.3-.7-.6-1.3-.9-2"/>
      <path class="st93" d="M154.2,134.4h-.2c0,0,0-.2,0-.2,0,0,0,0-.2-.2,0,0,.2-.2.3-.3v.7h0ZM136.1,142.6l-.3-.3q.4,0,.6,0c-.2,0-.3,0-.3.2M134.5,143.2c0,.2,0,.4,0,.5l-.3.2c0-.3,0-.5.4-.7q.3,0,.3,0h-.3ZM132.6,144.2h-.3c0,0,.2-.3.3-.5.2,0,0,.3,0,.5M154.3,132.2c-.5.9-.8,1.8-1.1,2.8,0,.3,0,.7,0,1.1-1.7.2-2.1-.5-2.5-1.8-.5,0-.7.5-1,.9-.7,1.4-1.9,2.4-3.4,2.8q-.2,0-.4-.6c-3.9-2.1-6.2.9-9.4,2.9,0,0,0,.2,0,.3-1.3.3-2.8,1.7-3.9,2.4-4.7,2.6-9.7,4.1-15.1,4.6,0,.2,0,.4,0,.6,2.9.6,5.8.6,8.7,0,0,0,.2,0,.3,0,.2,0,.5-.2.8-.3,1.7-.7,3.4-1.5,5-2.5.6-.3,1.2-.8,1.7-1.3,1.1-.6,2.1-1.2,3-2,1.3-.8,2.6-1.5,4-2.1,2.2-.5,2.2,0,3.9.9q.3.4.5.6c2.3-.6,2.8-2,3.8-3.7,0,0,0-.2,0-.3q.2,0,.6,0c0,.2,0,.5.2.7,0,.3.2.5.3.8,2.6,1.3,2.7,0,3.7-1.9.2-.7,1.6-4.5.2-4.8"/>
      <path class="st4" d="M194.9,141.6c-1.8-.4-3.4-3.7-5.1-3.7-1,.7-1.8,1.6-2.5,2.6-1,.3-2.2,1.9-.9,2.5.8,1.3,3.4,2.4,3.9,3.6.2,0,.5,0,.8,0,.6-.6,2.6-3.1,3.5-3.1.9,1,2.3,1.6,3.2,2.6.3,0,1.2.8,1.4,1h.3c.3-.7,1.1-1.1,1.7-1.6.2-.3,0-.4.5-.6.5-1.1,2-1.2,2-2.6-1.8-1.3-3.5-2.6-5.1-4-1.3.3-2.8,2.5-3.6,3.3"/>
      <path class="st70" d="M269.1,140.8c-1.9.9-3.9,1.4-5.8,1.5.3-1,.9-1.9,1.6-2.7,1.1-1,4.6-3,3.1-4.7-1.8.2-2.2,2-3.9,2.2-1-.2-2.4-.3-2.6-1.3.6,0,1.3,0,1.9.2.3-.7,1.2-2.3.9-3-2.1-.2-2.5-.5-3.6,1.1-.8,2.1-2.5,5.2,1.5,5.7,0,0,0,.2,0,.3-.8,1.3-1.3,2.7-1.6,4.2.5.8.9.6,1.7,1,2.5-.2,4.9-.9,7-2.3.9-.9,2.6-2.8,1.9-4.1q-.4.2-2.2,1.8"/>
      <path class="st123" d="M99.7,144.6c-1.8.9-3.8,1.4-5.8,1.5.3-1,.9-1.9,1.6-2.7,1.1-1,4.6-3,3.1-4.7-1.8.2-2.2,2-3.9,2.2-1-.2-2.4-.3-2.6-1.3.6,0,1.3,0,1.9.2.3-.7,1.2-2.3.9-3-2.1-.2-2.5-.5-3.5,1.1-.8,2.1-2.5,5.2,1.5,5.7,0,0,0,.2,0,.3-.8,1.3-1.3,2.7-1.6,4.2.5.8.9.6,1.7,1,2.5-.2,4.9-.9,6.9-2.3.9-.9,2.6-2.8,1.9-4.1-.9.5-1.6,1.1-2.2,1.8"/>
      <path class="st66" d="M303.8,140.2c-.7.8-.7,1.5-2,1.5-4.9-2-1-7-.5-10.1l-.2-.2h-.5c-2.4,3.7-5.8,11.3.7,13.6h1.2c1.6-.7,2.2-3.7,1.5-4.9,0,0,0,0-.2,0"/>
      <path class="st39" d="M254.7,139.4c-.4.6-.8,1.1-1.3,1.6-1.7.7-2-.4-2.5-1.6-.3-2.7,1.2-5.1,2.3-7.5v-.7h-.3c-2.8,2.3-6.1,12.4-.6,13.4h.9c.8-1.1,1.5-2.2,2.1-3.3,0-.6,0-1.3,0-1.9-.2,0-.4,0-.5,0"/>
      <path class="st122" d="M185.2,136.3c-.4.6-.8,1.1-1.3,1.6-1.7.7-2-.4-2.5-1.7-.3-2.7,1.2-5.1,2.3-7.5v-.7h-.3c-2.8,2.3-6.1,12.4-.6,13.4h.9c.8-1.1,1.5-2.2,2.1-3.3,0-.6,0-1.3,0-1.9h-.5"/>
      <path class="st117" d="M203.8,87.9c-.4.6-.9,1.2-1.5,1.8-1.9.8-2.2-.4-2.8-1.8-.3-3,1.3-5.5,2.6-8.2v-.7c0,0-.2,0-.4,0-3.1,2.6-6.7,13.7-.7,14.8h1c.9-1.2,1.7-2.4,2.3-3.6,0-.7,0-1.3,0-2l-.4-.2"/>
      <path class="st51" d="M132.3,144.3h.3c0-.3.2-.5,0-.6,0,0-.2.3-.3.6"/>
      <path class="st119" d="M246.1,139.1c-1.3-.9-1.8-1.1-4.1-2.9h-.6c-1,1.2-3.3,3.2-3.3,4.7,1.5,1.1,3,2.1,4.6,3.1,1.1-1.4,3.1-2.7,4-4.2,0-.4-.2-.7-.6-.7"/>
      <path class="st115" d="M16.3,136.4c.7-1.9,5.6-3,2.2-4.9-.6-.7-2.5-2.5-3.5-2.7-1.6,1.1-3,2.5-4.3,4,.3,1.7,3.8,2.5,3.8,3.8-1.1,1-3.1,2.3-3.3,3.7,1.3,1.2,2.7,2.3,4,3.5,0,0,.3,0,.4-.2,1.4-1.4,3.1-2.6,4.4-3.9,0-.2,0-.3,0-.5-1.4-.7-2.6-1.7-3.6-2.8"/>
      <path class="st59" d="M134.4,143.1c-.2.2-.3.5-.3.7,0,0,.2,0,.3-.2,0-.2,0-.4,0-.5h.3-.3"/>
      <path class="st101" d="M135.7,142.3c0,0,.2.2.3.3,0,0,.2-.2.3-.2q0,0-.6,0"/>
      <path class="st104" d="M149.2,137.4c0,0,0,.2,0,.3,0,0,.3,0,.4,0q.2.4.4.5c0-.2,0-.5-.2-.7q-.3,0-.5,0"/>
      <path class="st96" d="M449.9,121.6c-.4-3-1.1-5.8-2.1-8.6-1.5-6.9-3.4-14-3.9-21,.7.7,1.5,1.4,2.2,2.1h.6v-.4c-2-4.3-4.3-8.5-6.1-12.8,0,0-.3-.3-.4-.4q-.2,0-.7.2c-1,1.5-2.8,3.3-2.5,5.1.8,1.4,1.5,2.9,2,4.4,0,0,.5,2.9,1.4,7.1,0,.4,0,.9,0,1.3,1.3,6.3,2.7,12.6,4,18.9,1.4,5.2,2.3,10.6,3.3,15.9h.3c0,.2,0,.4,0,.6h-.2q0,2.9.3,3.4t.5-.6c.9-2.4,1.5-4.9,1.9-7.4,0-2.6,0-5.3-.5-7.7"/>
      <path class="st23" d="M154,134.2c0,0,0,0,0,.2h.2v-.6l-.3.3q0,0,.2,0"/>
      <path class="st100" d="M448,133.2h-.3v.6h.2c0-.2,0-.4,0-.6"/>
      <path class="st92" d="M312.4,119.8c0-.2,0-.4-.2-.6h.2c0,.2.2.4.2.6h-.2ZM311.5,119v-.6c.3.2.2.3.3.6h-.3ZM317,114q-1.2,5-2,7.6c-.9-2.5-3.7-7.3-7.4-7.3-.3,1.7-.2,2.5-.3,2.7v1.2c.9.9,2.6,2.2,3.7,1.1h.2c.8.9,1.6,1.5,1.8,2.6,1.1.6,1.4,2.9,2,3.9h.2v.2q.2,0,.4,0c.8-2.8,1.5-5.5,2-8.3.8-1.9,1.2-1.6,3.1,0,0,.2.4.9.7.9.8-.9.3-3-.3-4-1.8-1.1-2.6-2.2-4-.5"/>
      <path class="st21" d="M168.8,85c1.3,8.1,3.5,16.3,4.6,24.7.4,2.6,1.2,5.2,1.4,7.9.2,4.3.2,6.5.3,6.9,1.3-.3,2.3-5.4,2.6-6.4,1-5.6-.6-11.2-1.1-16.8-1.3-7.8-2.3-12.5-2.3-13,1,.6,2,1.4,2.7,2.4,1.9.3,1.3-2,.3-2.5-.8-2.1-4.7-8.7-5.2-10.1-.6-.4-1.1-1.1-1.4-1.8-1.7-1-3.1,2.7-3.6,3.5-.8,2.1-.3,2.2,1.4,3.9,0,.4.2.9.4,1.4"/>
      <path class="st24" d="M198.9,118.7c0-1.5-.3-3-.8-4.4,0,0-.2,0-.3,0-.9,2-.2,4.9.7,6.8.3,0,.5.2.8.3l1.5-.4c.4-.6,1.1-1.1,1.5-1.7,2.4,3,3.8,0,4.1-2.2-.4-1.9-.6-2.2-1-4.3q-.2,0-.4,0c-1.6,2,.2,3.5.2,5.5-2,.2-2.3-2.3-2.4-3.4-.3-.6-.5-1.3-.8-1.9h-.4c-.2.6-.5,1.1-.7,1.7.4,1.1.7,2.3.8,3.6-.7.4-2.1,1.1-2.8,0"/>
      <path class="st7" d="M27.6,104.9c0-1.5-.3-3-.8-4.4,0,0-.2,0-.3,0-.9,2-.2,4.9.7,6.8l.8.3,1.5-.4c.4-.6,1.1-1.1,1.5-1.7,2.4,3,3.8,0,4.1-2.3-.4-1.9-.6-2.2-1-4.3q-.2,0-.4,0c-1.6,2,.2,3.5.2,5.5-2,.2-2.3-2.3-2.4-3.4-.3-.6-.5-1.3-.8-1.9h-.4c-.3.6-.5,1.1-.7,1.7.5,1.1.8,2.3.9,3.5-.7.6-2.1,1.3-2.9.3"/>
      <path class="st77" d="M223.5,110.7h-.5c-1.4,2.5-4.7,8.5-.8,10.7.2,0,.5-.2.7-.2.8-1.2,1.8-3.5,1.3-4.8h-.3c-.3.5-.3,1-.8,1.4-2.3,0-1.1-3.8-.4-4.9.2-.8.5-1.6.8-2.3"/>
      <path class="st120" d="M152,104.3h-.7c-1.6,3-5.5,10.2-.9,12.8.3,0,.6-.2.9-.3.9-1.4,2.1-4.1,1.5-5.6h-.4c-.4.6-.3,1.2-1,1.7-2.7,0-1.3-4.5-.5-5.8.4-.9.7-1.8,1.1-2.7"/>
      <path class="st35" d="M129.4,80.1h-.6c-1.7,3-5.5,10.2-.9,12.8.3,0,.6-.2.9-.3.9-1.4,2.1-4.1,1.5-5.6h-.4c-.4.6-.3,1.2-1,1.7-2.7,0-1.3-4.5-.5-5.8.3-.9.6-1.8,1-2.7"/>
      <path class="st74" d="M115,93.3h-.6c-1.5,2.7-5,9.1-.8,11.5.3,0,.5-.2.8-.2.8-1.3,1.9-3.7,1.3-5.1h-.4c-.3.5-.3,1.1-.9,1.5-2.5,0-1.2-4.1-.5-5.2.5-.8.8-1.7,1.1-2.5"/>
      <path class="st12" d="M113.2,137.1h-.6c-1.5,2.6-5,9.1-.8,11.5.3,0,.5-.2.8-.2.8-1.3,1.9-3.7,1.4-5.1h-.4c-.4.5-.3,1.1-.9,1.5-2.5,0-1.2-4.1-.5-5.2.3-.8.6-1.7,1-2.5"/>
      <path class="st110" d="M44,119.2h-.6c-1.5,2.7-5,9.1-.8,11.5.3,0,.5-.2.8-.2.8-1.3,1.9-3.7,1.3-5.1h-.4c-.3.5-.3,1.1-.9,1.5-2.5,0-1.2-4.1-.5-5.2.4-.9.8-1.8,1.1-2.5"/>
      <path class="st64" d="M26,110h-.6c-1.5,2.1-5,7.2-.8,9,.3,0,.5,0,.8-.2.8-1,1.9-2.9,1.4-4h-.4c-.4.4-.3.9-.9,1.2-2.5,0-1.2-3.2-.5-4.2.4-.6.7-1.2,1-1.9"/>
      <path class="st71" d="M28.6,83.1h-.6c-1.5,2.1-5,7.1-.8,9,.3,0,.5,0,.8-.2.8-1,1.9-2.9,1.3-4h-.4c-.4.4-.3.9-.8,1.2-2.5,0-1.2-3.2-.5-4.2.4-.6.7-1.3,1-1.9"/>
      <path class="st69" d="M41.8,141.4c-.2,0-.4,0-.6,0-1.5,2.8-5,9.2-.8,11.6.3,0,.5-.2.8-.2.8-1.3,1.9-3.7,1.3-5.1h-.4c-.4.5-.3,1.1-.9,1.5-2.4,0-1.2-4.1-.4-5.2.4-.9.7-1.7,1-2.5"/>
      <path class="st58" d="M7,125.2h-.6c-1.5,2.7-5,9.1-.8,11.5.3,0,.5-.2.8-.2.8-1.3,1.9-3.7,1.4-5.1h-.4c-.4.5-.3,1.1-.9,1.5-2.4,0-1.2-4.1-.4-5.2.3-.9.6-1.8.9-2.5"/>
      <path class="st41" d="M312.2,119.2c0,.2,0,.4.2.6h.2c0-.2,0-.4-.2-.6h-.2Z"/>
      <path class="st113" d="M311.5,119h.2c0-.3,0-.4-.3-.6,0,.2,0,.4,0,.6"/>
      <path class="st14" d="M129.4,118.6c2.3-.4,2.2-1,3-2.9q0,0,.7,1.1c1,.6,2.3,1,2.9-.2h.4c.4-1.8,1.1-3.5,1.3-5.2-.4-1.5-.7-3-.9-4.5h-.4c-.5.9-.9,1.9-1.2,2.9.2,1.4.7,2.7.8,4-1.7.6-2-.4-2.3-1.6-.2-1.6-.6-3.2-1-4.7h-.4c-.4.9-.8,1.8-1.1,2.8,0,.5,0,.9,0,1.4.9,2.1,1,2.9-1.4,3.5-.5-.2-.7-.4-1-.8-.2-2-.5-4-1-5.9-3,.5-.2,8.9,0,9.6.4.2.8.4,1.2.6"/>
      <path class="st38" d="M307.1,117q0,1.2,0,1.1v-1.1h0Z"/>
      <path class="st8" d="M238.4,104.8h-.5c-2.3,3.2-5.1,8.2-3.5,11.8.3.2.6.4.8.8.4,0,.8,0,1.2,0,2.3-.6,2.6-3.1,2.6-4.8h-.5c-.6.9-.9,1.3-2.2,1.3-1.8-1.9,1.4-7,2.1-8.7v-.5Z"/>
      <path class="st88" d="M64.6,93.1h-.6c-3.1,4.3-6.8,11.1-4.7,15.9.5.2.8.6,1.1,1,.5,0,1,0,1.6.2,3.1-.9,3.5-4.2,3.5-6.4h-.7c-.8,1.2-1.2,1.8-3,1.8-2.4-2.5,1.9-9.5,2.8-11.8v-.7h0Z"/>
      <path class="st0" d="M79.7,108h-.4c-2,2.7-4.3,6.9-2.9,9.9.3.2.5.4.7.7h1c1.9-.4,2.2-2.5,2.2-3.9h-.4c-.6.8-.8,1.1-1.9,1.1-1.5-1.6,1.2-5.9,1.8-7.3v-.5Z"/>
      <path class="st114" d="M65.8,131.7h-.4c-2,2.7-4.3,6.9-2.9,9.9.3,0,.5.4.7.7.3,0,.6,0,1,0,1.9-.5,2.2-2.6,2.2-4h-.4c-.5.8-.8,1.1-1.9,1.1-1.5-1.6,1.2-5.9,1.8-7.3v-.5Z"/>
      <path class="st107" d="M285.4,122.6h-.5c-2.3,3.2-5.1,8.2-3.5,11.8.3.2.6.5.8.8.4,0,.8,0,1.2,0,2.3-.6,2.6-3.1,2.6-4.8h-.5c-.6.9-.9,1.3-2.2,1.3-1.8-1.9,1.4-7,2.1-8.7v-.5Z"/>
      <path class="st40" d="M333.6,125.5h-.3c-1.3,1.7-2.9,4.6-2,6.5.2,0,.4.2.5.4h.7c1.3-.3,1.4-1.6,1.4-2.6h-.3c-.3.5-.5.7-1.2.7-1-1,.8-4,1.2-4.9v-.2Z"/>
      <path class="st84" d="M416.1,104.7c-2.3,2.9-5.4,10.5-.2,12.4,2.4-.8,2.7-2.8,2.7-4.8,0,0-.2,0-.4,0-.3.4-.5.7-.8,1.1-2.7,1.5-2.9-2.2-2.9-3.6.5-1.6,1.8-4.6,1.9-5.2,0,0-.2,0-.3,0"/>
      <rect class="st65" x="165.2" y="114.8" width="0" height="1.2"/>
      <path class="st2" d="M312.7,104.2c-3.2,1-7.5,3.4-9.4,5.7-.7,1.6-2.2,3.4-2.2,5.1,0,0,.3,0,.4,0,3.2-2.8,6.7-5,10.6-6.4,2.1-1.4,4.4-2.5,6.8-3.4.9-.5,2.1-1,13.5-6.2l4.4-1.8c2.9-1.1,5-2,5.4-2.1q0,0,0-.2t9.2-3.5c2-1.3,4.7-1.6,6.7-2.7,3.2-1.2,6.3-2.4,9.5-3.6,3.4-1.1,6.7-2.2,10-3.6,2.5-2.8,3.2-3.3,3.7-3.9,0-.3,0-.6-.3-.8-1.8.5-3.6,1.1-5.2,1.8-7.1,2.2-14,5-21,7.2-1.7.5-3.3,1.2-4.9,2q-2.5.8-2.8,1c-.2,0-.5.2-.7.4,0,0,0,0,0,0-1.6.6-3.2,1.3-4.7,2-5.9,2.2-11.8,4.7-17.4,7.4-4.2,1.5-8,3.3-11.7,5.4"/>
      <path class="st13" d="M91.1,88.5c-1.5-.9-2.6-1-3-2.6.9-2.5,3.5,1.3,3.3,2.5,0,0-.2,0-.3,0M65.4,112.5c4.9-2.7,9.8-5.2,14.7-7.9,2-1.2,3.9-2.5,5.6-4q1.4-1.4,4-4.4c.7-1.1,1.5-3.1,2.7-3.8,3.8,1.7,1.7,5.4,1.1,8.2-.4,2.1-1.2,5.7,2.4,6.1,2.2-1,2.6-3.2,2.9-5.1-.8,0-1.2,1.1-1.4,1.5-1.1.6-2,.8-2.7-.4-.8-3.3,1.6-6.9,1.6-10.2-.5-1.7-1.4-2.5-3.2-3.3.2-1,.3-2.1.4-3.2-.2-.7-.4-1.4-.5-2-.5-.7-.9-1.3-1.4-1.9-3.1-.6-4.4,3.6-4.9,5.4.2.6.5,1.2.8,1.8,1,.3,3.6,1.7,3.8,2.4-1.9,2.1-3.9,4.2-5.9,6.2q-2.9,2.1-9.8,6.9c-5,3.2-10.1,6.2-15.2,9.2-.2.3-.2.4-.2.7,2-.2,3.4-2,5.3-2.5"/>
      <path class="st9" d="M138.3,84.4c-1.5-.9-2.7-1-3-2.6.9-2.5,3.5,1.3,3.3,2.5,0,0-.2,0-.3,0M112.5,108.5c4.9-2.6,9.8-5.2,14.7-7.9,2-1.2,3.9-2.5,5.6-4,1.4-1.4,2.7-2.8,4-4.4.7-1.1,1.5-3.1,2.7-3.8,3.8,1.7,1.7,5.4,1.1,8.2-.4,2.1-1.2,5.7,2.5,6.1,2.2-1,2.6-3.2,2.9-5.1-.8,0-1.2,1.1-1.4,1.4-1.1.6-2,.8-2.7-.4-.8-3.3,1.6-6.8,1.6-10.2-.5-1.7-1.4-2.5-3.2-3.3.2-1,.4-2.1.4-3.2-.2-.7-.4-1.4-.5-2-.5-.6-.9-1.3-1.4-1.9-3.1-.6-4.4,3.6-4.9,5.4.2.6.5,1.2.8,1.8,1,.3,3.5,1.7,3.8,2.4-1.9,2.1-3.9,4.2-5.9,6.2q-2.9,2.1-9.8,6.9c-5,3.2-10.1,6.2-15.3,9.2-.2.3-.2.4-.2.7,2-.2,3.5-1.9,5.3-2.5"/>
      <path class="st72" d="M185.4,84.9c-1-.6-1.9-.7-2.1-1.9.6-1.8,2.5.9,2.3,1.8,0,0-.2,0-.2,0M167.1,102.1l10.4-5.5c1.4-.8,2.8-1.8,4.1-2.8q1-1,2.8-3.1c.5-.8,1.1-2.2,1.9-2.7,2.7,1.2,1.2,3.9.8,5.8-.3,1.5-.9,4.1,1.7,4.4,1.6-.7,1.9-2.3,2-3.6-.5,0-.9.8-1,1-.8.4-1.4.6-1.9-.3-.6-2.4,1.1-4.9,1.1-7.2-.3-1.1-1.2-2-2.3-2.3.2-.7.3-1.4.3-2.2,0-.5-.3-1-.4-1.5-.3-.5-.7-.9-1-1.3-2.2-.4-3.1,2.6-3.5,3.9,0,.4.3.9.6,1.3,1,.4,1.9.9,2.7,1.7-1.4,1.5-2.8,3-4.2,4.4q-2,1.5-6.9,5c-3.6,2.3-7.1,4.5-10.9,6.5-.2.2,0,.3,0,.5,1.5-.3,2.5-1.6,3.9-2"/>
      <path class="st18" d="M181.3,106.6c.7.4,1.8.8,1.8,1.5-1.2,1.1-3.3,2.3-3.3,3.9.9.4,2.8,2.5,3.7,2.5,0,0,.2.3.3.5h.5v-.2c1.6-.9,3.2-2.8,4.4-4,0-.8-3.7-3-3.8-3,.6-.8,1.4-1.4,2.2-2,0,0,0-.2,0-.2h.3c0,0,0-.2,0-.3,0,0,.2,0,.4,0,.5-.6.8-.9.5-1.6-1.8-1.2-3.6-2.4-5.3-3.5-1.5,1.1-2.9,2.4-4.1,3.8,0,1.6,1.7,1.7,2.5,2.7"/>
      <path class="st109" d="M379.3,100c4.4-1.6,8.5-3.4,12.7-5.5.4-.9,1.1-2,.8-2.9h-.5c-6.1,3.1-12.7,5.4-19.1,7.9-8.6,3.7-17.4,6.8-25.3,11.7-1,.8-.9,1.3-1,2.5v1.3c.5,0,.6-.3.9-.6,7.8-5,16.9-8.3,25.6-12l1.4-.4q0,.2-.4.6c-1.3,2.7-2.6,5.1-2.6,7.9.3,1.6,1.1,4.5,3.7,3.6,1-1.6,1.5-3.5,1.3-5.2,0,0-.2,0-.4,0-.3,1.1-.4,1.8-1.6,2.3-3.2-2.7-.6-6.6.6-9.5,1.4-.7,2.6-1.2,3.9-1.7"/>
      <rect class="st91" x="98.2" y="113.3" width="2.7" height="0"/>
      <path class="st98" d="M225.2,106.7c0-.3.2-.3.4-.4h.4v.2c-.3,0-.6,0-.8.2M222.2,108.3c-.3,0-.5.2-.8.4.2-.3.5-.4.8-.6v.2ZM233.8,101.3c-2.5,1.3-5.1,2.7-7.8,3.8-3.5,2-10.2,3.9-11.1,7.9,0,0,.2,0,.3,0,0-.2.3-.2.4-.4l.3.2c.8-.4,1.6-.8,2.3-1.4v-.3c.3-.2.4,0,.8,0h.3c0-.3,0-.5-.2-.7.2-.2.5-.3.8-.5q0,.2.4.3c.4,0,1.4-.4,1.4-.7.2-.6.3-.8,1-.8v.2c3.1-1.3,6-2.7,9.2-4v-.2c.2,0,.5-.2.7-.2,6.2-2.4,12.2-5.5,18.7-7.3,4.5-1.9,9-3.8,13.7-5.3.7-.9,1.2-2,1.2-3.2,0,0,0,0-.2,0-7,2.8-14.2,5.5-21.4,8-7.4,3.2-8.9,3.9-10.8,4.7"/>
      <path class="st103" d="M215.4,112.9h.3c0,0,.4-.2.4-.2l-.3-.2c0,0-.3,0-.4.4"/>
      <path class="st111" d="M385.4,102.5c-.7.6-.8,2.8-.5,3.6l3.5,1.7c.3-.2.6-.2.9-.2,1.3,1.7,2.4,3.6,3.3,5.4,0,0,0,0,.2,0,.8-1.8,2-13.3,6.3-7,0,0,.2,0,.2,0,0-1,0-2,0-3-.8-1.1-1.7-2.3-3.5-2.1-2.2,1.7-2.8,6.3-3.4,8.4-1.3-2.8-3-6.1-7-6.6"/>
      <path class="st79" d="M218.3,111v.2c.3,0,.6-.2.8-.4-.4,0-.5,0-.8.2"/>
      <path class="st106" d="M220,109.8c-.3.2-.5.3-.8.5,0,.2,0,.4,0,.6.3-.3.6-.5,1-.7q-.2-.3-.3-.4"/>
      <path class="st60" d="M194.8,110.5c.2-.3,1-1.1,1.1-1.2.3-.2.7-.3,1-.5.7-.7,4.6-2.2,4.6-2.5,1.4-.4,2.5-1.2,3.9-1.6.3-.2.9-.5,1-.6,0,0,4.6-1.9,6.3-2.4,2.7-1.4,5.9-2.1,8.5-3.4,3.3-1,6.2-2.8,9.5-3.9,3.5-1.5,7-2.9,10.7-4.3.2,0,.4,0,.6,0,4.7-2.2,10.1-3.4,15.2-5q0,0,0,0c.9-.2,1.6-.8,2.6-1,1.2-1.3,2.4-2.6,3.6-3.9,0-.2,0-.5,0-.7-.6,0-1.2,0-1.7.4-8,2.3-15.7,4.7-23.6,7.4-10.9,4.4-22.1,8.5-33.1,12.6-.7.4-1.5.7-2.3,1-1.8.8-5.1,2.1-6.1,3.4-.9,1.7-3.2,4.2-2.1,6h.3Z"/>
      <path class="st53" d="M254.8,100.7c-.5,1.9-1,3.8-1.6,5.5h-.2c-1-2-2.9-5.3-5.8-5.3q0,.2-.3,3.3c.4.8,2.3,1.4,3.3,1.5,1.4,1.1,2.3,3.4,3.1,4.7,0,0,.2-.2.3-.3.2-.5,1.3-4.7,1.9-6.6,0,0,.3-.3.5-.4,1.6.3,1.9.8,2.5,2h.4c0-.4,0-.8.2-1.2,0-2.1-.3-3-2.6-4.1-.9,0-1.1.3-1.6,1"/>
      <path class="st48" d="M267.4,109.5c.4,0,.7-.2,1.1-.3,1.2-1.4,1.9-3.1,1.9-4.9h-.4c-.4.8-1.1,1.5-1.9,1.9-.3,0-.7,0-1,0-2.3-1.9,0-5.2,1.2-7.2q.4-1,.4-1.4h-.5c-1.1,1.7-2.1,3.5-2.9,5.2-.6,2.6-1.7,5.8,2.1,6.7"/>
      <path class="st83" d="M221.8,109.4q.8-.3,1-.5v-.2c-.8-.2-.8,0-1,.7"/>
      <path class="st118" d="M221.4,108.6c.3,0,.5-.3.8-.4v-.2c-.3.2-.5.4-.8.6"/>
      <path class="st85" d="M225.9,106.3c0,0-.2,0-.3,0-.2,0-.4.2-.4.4.2,0,.5,0,.7-.3,0,0,0,0,0-.2,0,0,0,.2,0,.2"/>
      <path class="st95" d="M304,98c-.6.6-2.7,3.1-3.7,3.3-1.3-1-2.6-2.1-3.9-3.2h-.3c-1.6,1.2-3,2.8-4.1,4.5,0,0,.2.2.3.4,1.7.7,2.8,2.3,4.1,3.3,1.6-.7,2.4-2.8,4-3.5,1.2.5,2.9,2.8,4.2,2.8,1.2-1,3.7-2.5,4.2-4-.5-.8-3.7-3.7-4.8-3.6"/>
      <path class="st68" d="M187.2,105.6h-.2c0,0,0,.2,0,.2.2-.2.4-.4.6-.6,0,0-.2,0-.4,0,0,0,0,.2,0,.3"/>
      <path class="st36" d="M232,104.9c.2,0,.7-.2.7-.4-.2,0-.5,0-.7.2v.2Z"/>
      <path class="st90" d="M433.9,104.2c.4,0,.8-.2,1.3-.2,1.2-1.4,1.2-3.4,1.2-4.9q-.2,0-.5,0c-.3.9-.5,1.8-1.8,1.8-3.4-2.1.6-6.6.6-9.1h-.2c0,0-.2,0-.3,0-1.6,2.5-2.6,5.2-3.1,8.1.2,2.1.3,3.2,2.8,4.2"/>
      <path class="st102" d="M366.6,97.4c0,.7.3,1.4.6,2,.2,0,.4,0,.6,0,1.3-2,1.7-4.8,2.4-6.9.3-.7.7-2.2,1.5-2.6,1.2.6,2,1.8,2.1,3.1,0,0,.2,0,.3,0,.2-.9.4-1.8.7-2.7,0-1.7-1.2-3.2-2.7-3.9-.4,0-.8,0-1.1,0-2,2.2-2.6,5.1-3.3,7.6,0,0-.2,0-.3,0-.5-.6-1-1.3-1.4-2-.8-.8-5.2-5-6.7-3.1q0,2.9.2,3.2c1.6.7,3.3,1.3,5,1.6.7,1.1,1.5,2.3,2.2,3.5"/>
      <path class="st44" d="M410.1,94.4c1.7,1.4,2.8,3.2,4.3,4.7,0,0,0,0,.2,0,.9-2.7,0-5.5,1.8-7.9,1.3-.2,1.6,1.3,2.6,1.6,0-1.9,0-4.8-3.1-4.8-1.8,2.3-1,5.1-1.9,7.6-2-2.3-4-5.2-7.5-6-.4.3-.2,3.1-.2,3.7.7.2,3.1,2.1,3.9,1.3"/>
      <path class="st45" d="M22.3,98.8c8.3-4.3,16.8-8,25.6-11.2,1.3-.7,2.6-1.3,4-1.8.6-.8,1-1.8,1.1-2.9,0,0-.2,0-.4,0q-2,1-5.2,2.5c-8.5,2.8-16.6,6.7-24.5,10.6-.2.7-.9,2.1-.6,2.9"/>
      <path class="st61" d="M13.2,93.9c1.7,1,3.4,2.1,5,3.3.7.2,3.8-3.4,4.3-3.9,0-.2,0-.4,0-.6l-5.1-3.4h-.3q-1.2,1-3.8,3.5c-1.7-.5-3.4-2-4.7-2.9-.5,0-.6,0-1,.3-.8.9-3.2,2.9-3.2,4.3l4.3,3c1.3-.2,3.7-3,4.5-3.6"/>
      <path class="st5" d="M67.7,89.3c2.5,1.8,3.5,5.2,4.4,7.8q.2,0,.5-.4c1-3.6,2.2-7,3.6-10.4,1-.7,2.5-.5,3.2.6,0,0,.2.3.2.4,0,0,.2,0,.3,0,.5-.6,0-3-.3-3.7-.5-.3-1-.6-1.5-.9-2.4-.6-3,1.1-3.9,2.6q-.7,2.3-1.9,6.8h-.2l-.5-1.9c-1.5-2.6-3.8-6.6-7.9-6.6-.5,1.2-.8,2.4-.7,3.7,1.2.7,2.4,1.5,3.5,2.4.6,0,.8-.5,1.3-.5"/>
      <path class="st55" d="M46.4,97.7c2,1.4,2.8,4.2,3.5,6.1.2,0,.3-.2.4-.3.8-2.8,1.7-5.4,2.9-8.1.8-.6,1.9-.4,2.5.4,0,0,0,.2.2.3h.2c.4-.5,0-2.4-.2-2.9-.4-.2-.8-.5-1.2-.7-1.9-.5-2.3.9-3,2q-.6,1.8-1.5,5.4h-.2c-.2-.5-.4-1-.6-1.5-1.2-2-3-5.2-6.2-5.2-.4.9-.6,1.9-.5,2.9q1.3.8,2.8,1.8c.4.2.6-.2,1-.2"/>
      <path class="st32" d="M103.9,87.5c2.5,1.8,3.5,5.2,4.4,7.8q.2,0,.5-.4c1-3.6,2.2-6.9,3.7-10.3,1-.7,2.5-.5,3.2.6,0,0,.2.3.2.4,0,0,.2,0,.3,0,.5-.6,0-3-.3-3.7-.5-.3-1-.6-1.5-.9-2.4-.6-2.9,1.1-3.8,2.6q-.7,2.3-1.9,6.8h-.2c-.2-.6-.5-1.2-.7-1.9-1.5-2.6-3.8-6.6-7.9-6.6-.5,1.2-.8,2.4-.7,3.7,1.2.7,2.4,1.5,3.5,2.3.6,0,.8-.5,1.3-.5"/>
      <path class="st124" d="M315.6,86.6c.5-.2.9-.6,1.3-1,2,1.4,3,4.1,3.7,6.1l.2.2c1.2-.3,1.3-2.4,1.4-3.2.7-2,1.4-4,2.3-5.8,1.5-1.5,2.6-.2,3.8.9.2,0,.5-.3.7-.4,0-.9.2-2.2-.3-3-1.1-1-2.5-1.5-4-1.6-2.6,1.7-3.3,5.6-4,8.1,0,0-.2,0-.2,0-1.8-2.9-4.1-6.2-8.4-6.2-.7.8-.3,2.7-.2,3.7,1.3.9,2.5,1.6,3.8,2.3"/>
      <path class="st73" d="M215.4,85.4c0,0,0,.2,0,.3,1,1,2.7,3.1,2.7,4.4q.4,1,.5,1.1c.5-.2.7-1.2.8-1.6.3-1.7.5-3.3.8-4.9.5-1.6.6-2,2.3-2.9.7.4,1.4.9,2,1.5.7-.8.6-3,0-3.8-1.7-1.2-2-1.2-3.6,0-1.7,2.3-1.2,5.1-2.2,7.4q0,0-.9-1.7c-.5-.7-1-1.5-2.2-3-.7-.5-3-2.6-4.1-2.6-.6,1.3-.8,2.7-.8,4.2,1.2,0,2.7,1.3,3.5,1.9.4-.3.7-.4,1-.4"/>
      <path class="st19" d="M337.5,90.6c.8-1.6,1.2-3.4,1.2-5.1,0,0-.2,0-.2,0-.4.7-.7,1.4-.9,2.2-2.3.3-2-2.9-2-4,.2-.6,1.6-3.5,1-4,0,0,0,0-.2,0-1.7,3.4-3.9,8.2-.5,11.3.6,0,1.1-.3,1.6-.6"/>
      <path class="st25" d="M285.8,89.8c0,.2,0,.4,0,.6h.2c0-.2,0-.4,0-.6"/>
      <path class="st52" d="M347,89.3c-.3,0-.5,0-.8.2,0,0,0,0,0,0,.3,0,.5-.2.7-.3"/>
      <path class="st112" d="M390.7,89c2.4,0,3-1.2,3.3-3.2,0-.7,0-1.4,0-2.1,0,0-.2,0-.3,0s-.2,0-.2,0c-.4,1.4-1.9,2.7-3.5,1.3-1.8-2.6.6-6,1.7-8.4v-.8h-.3c-2.1,2.8-3.3,6.2-3.2,9.7.2.4.3.8.3,1.3.6,1.2.8,1.7,2.3,2.2"/>
      <path class="st27" d="M234.9,86.3c0-.6,0-1.1,0-1.6q0,0,0-1.4h-.3c-.4.3-.8.7-1.1,1.1-2.7-.4-.3-5.1-.2-6.3,0,0,0,0-.2,0-1.2,2.2-2,4.5-2.3,6.8.2.9.5,1.7.9,2.5,1.8.9,2.1.4,3.2-1"/>
      <path class="st108" d="M398.2,85.6c0,.6.2,1.2.3,1.9,0-.7,0-1.3-.3-1.9"/>
      <path class="st31" d="M398.2,85.1c0-.4,0-.7-.2-1.1q0,.8.2,1.1"/>
      <path class="st28" d="M235,84.7c0-.5,0-1,0-1.4q0,1.4,0,1.4"/>
    </g>
  </g>
  <g>
    <path class="st16" d="M546.3,64.9c.4-5,4.9-7.7,4.4-10-.8-.3-1.6-.3-2.4-.2-.2.6-.2,1.3-.2,1.9h1.3s-.2.4-.8,1.5c-.8,1.4-2.7,3.7-3.2,7-.6,4.1,1.7,8.1,5.7,7.9,3.3-.3,5.6-4,4.5-9.4.5,0,1,0,1.4-.5-.2,3,1.9,3,2.3,3-.3,1-.1,3.7,2,4.4,2.7.9,6-1.5,6-1.6.3.5.9.8,1.5.7,1-.2,2-.6,2.9-1.2.7.7,2.4,0,3-1,4.5.7,11-8.6,12.4-9,0-1.8-.3-2.2-.4-2.3-1.1.2-1.4,1-2.1,2-.2.2-.9.3-.8-.4,2.5-7.9-1.3-15-3.7-15.3.1,3.2.5,6.3,1.4,9.5.1,0,.2.3.3-.2-.5-2-.8-4-.8-6,3.4,5.8,2.1,8.6,2,14.6-.4.6-.9,1.1-1.5,1.5,0-.8.1-2.1-1.4-2.1-1.7.5-2.1,2.9-2,4.1-.1.3-1.3.8-1.8.9-.1-.4-.1-.8-.1-1.1-.7,0-.5,0-.7.2,0,.4-.1.7-.3,1-.6.6-1.4.9-2.3.8v-1.4c-.2,0-.4,0-.6.3-.2,1.6-1.6,2.7-3.1,2.5h-.3c-.2-.2.4-1.2.3-1.6-1-.3-4,2.9-7.1,2.9-1.1,0-1.9-1-1.9-2.1s0-.3.1-.5c3.1-.7,5.7-1.9,7-3.4,1.2-1.4,1.8-3.3,1.5-5-.2,0-5.3-3.9-9.1,6.2-.3,0-2.5.5-1.6-4.6-1.3,0-1.1,1.8-2.1,2.2-1.1.4-1.6-1.2-2.5-1,0,.3-.5,2.2-.5,2.3s1.1.7,1.2.8c.8,2.5.2,6.8-3.5,7.5-2,.3-4.8-1.9-4.4-5.8ZM578.8,63c.1-.4.3-.8.7-1,.4,0,.8.2,1,.6.1.3-.6.7-1.1.7-.3,0-.5,0-.6-.3h0ZM564.5,59.4c1.3-1,2-.3,2-.3,0,0,.1,2.5-5.2,4.4.8-1.5,1.9-3,3.2-4.1h0Z"/>
    <path class="st16" d="M568.2,73.2h.3c.9-.4,5.8-3,6.3-3.2v-1.1c-.1,0-6,3-6.6,4.2Z"/>
    <path class="st16" d="M554.8,70.8c-.2.7-.3,1.3-.3,2,1.1-.2,2.3-.4,3.4-.7.1-.6.2-1.5.4-2.1-1.2,0-2.3.4-3.5.8Z"/>
    <path class="st16" d="M652.9,71.9v.3c2.1.6,9.5.5,9.7-6.8l1.4-.3c.2,1.8.8,3,2,3.2,1.7.4,3.9-1.6,4.2-1.9.2.5.7.7,1.2.7.9,0,2.5-.8,3.5-2.5.8.5,1.8.2,2.3-.6.1,0,.1-.3.2-.4,4.3-.2,5.3-9.8,2.9-10.3-1.6-.3-3,2.9-2.3,4,.5.5,1.1.4,2.6,0-.5,1.4-1.7,3.4-2.9,3.8-.1-.3-.2-.9-.3-1.1-.3,0-.5,0-.5.3.2,1-.4,2-1.4,2.2h-.3c0-.4,0-1.2-.3-1.2s-.3,0-.5.3c-.3,2.2-2.2,3-2.8,2.6-.1-.3.2-.8-.2-1.1-.5-.2-2.3,1.9-3.8,2.6-1.3.6-2.4-.2-2.3-1.4,7.2-2.4,9.2-7.5,7.8-8.9-1.7-1.2-4.1-.9-5.4.7,1-1.6.7-5.1.6-5.2-.2-1.4-1.1-4.4-4.7-8.3-.1,0-.1.2-.1.2,1.6,7.9,1.7,9,2,9,.6,0-.9-5.8-.8-5.9,1,1.4,1.9,2.9,2.8,4.3.7,2.2-1.5,6.9-1.6,7s.1.4.2.3.7-.4.8-.4c-1.3,1.7-2.3,3.6-2.8,5.6-.4.2-.9.3-1.4.3,0-.2-.8-2.3-2.1-2.1-1.4.5-1.9,2.9-1.6,3.7.7,1.2,1.6.9,2.5.8-1.1,3.2-4.9,5.6-8.6,6.3ZM668.7,57.1c.9-.6,2.2-.5,3,.2,0,1.5-4.9,5-6.4,5.3.6-2.2,1.7-4.1,3.4-5.5h0ZM660,63.3c0,0-.1-.5.6-.6.3,0,.5.2.7.4-.2.4-1.2.3-1.3.2h0Z"/>
    <path class="st16" d="M674.6,67.6c-.1-.2.2-.6.1-.8-2,1.3-4.2,2.6-6.3,3.8-.4.5-.7,1-1,1.5.1,0,7.2-4.4,7.2-4.5Z"/>
    <path class="st16" d="M683.8,71.8v-.2c8.3-1.9,8.3-8.5,8.3-8.5,0,0-1.7.6-2.3-.6-.7-1.3,1.1-3.2,1.3-3.2.3,0,.6,0,.9.2,1.7,1.8,3.3,13.1-8.2,12.2Z"/>
    <path class="st16" d="M684.5,51.7c-.5.7-.2,4.5-.2,6.6-1,.8-.8-10.2-.8-11.1h.5c1.5,2.6,2.5,5.3,3.2,8.2,1.7,9.1-2.2,14.7-6,15.8-3.3,1.3-6.6.4-7.7.3v-.3c.3,0,10.3-1.7,12.3-7.3.6-4.1.2-8.3-1.3-12.1Z"/>
    <path class="st16" d="M591.9,69.5c-.1.6-.1,1.2-.2,1.8.5,0,1,0,1.5.3.5,0,.7-1.9.5-2-.5,0-1.2,0-1.8,0Z"/>
    <path class="st16" d="M644.9,70.5c0,0,0,.2.1.3,1.9.6,10.7.3,12.2-6.7,1.3-5.4-.2-11.1-3.9-15.3,0,.2-.3.2-.3.4s1.1,9.7,1.4,9.7c.5,0-.6-6.9-.1-7.1,3.2,8.9,1.6,12.7,1.6,12.7,0,0-2.6,4-11,6Z"/>
    <path class="st16" d="M587.4,54.4h.6c0-.3-.3-7.2-.3-7.9.3,0,3.2,8.5,3.3,8.6,0,.6-7.6,6.8-5.6,12-.7,1.1-7.4,2.8-7.6,2.8,0,0,0,.3.3.3,3.9.8,8.4-1.4,8.5-1.5,1.3.9,3.1,1,4.5.2,3.1-1.4,5.4-6.4,6.4-6.1.1.3,0,1,.1,1.3,1,.2,3.4-1.1,4.8-3.5.9-1.9,1.4-4,1.3-6.1-1.1.4-2.2.8-3.3,1.4.1-2.3,2.6-4.6,5-3.9.1-.7.1-1.4.1-2.1-1.2-.7-2.8-.7-3.9.2-2.5,1.7-3.6,8.1-3,8.7.3,0,1.5-1.1,3.8-2,.2,2-2.3,4.5-4.1,5-.1-.5-.2-1-.5-1.5-2.1-.3-5.5,8.5-9.3,7,.5-.6,4.9-3,3.8-11.8,1.5-2.4,2-4.2,1.6-4.6-.6,1.1-1.3,2.1-2,3.1-.2-.9-2.7-8.5-4.7-11.2h-.9c0,.9,1,10.5,1.1,11.8ZM586.6,66.6c-1.2-3.1,4.2-9.6,4.7-9.8.4,2-1.9,8.2-4.7,9.8h0Z"/>
    <path class="st16" d="M649.5,67.1c.3.4,1.3-.3,1.6,0s-1.9,1.2-1.9,1.3c.4.4,2.2-.3,2.4-1.2.3-.8,0-1.5-.5-1.6-.1,0-1,.6-1.1,0s1-1,1.1-1c.2-.2.1-1.2,0-1.8-.1,0-.2.2-.3.3-.3.4-.6.8-.9,1.1,0,0-1.2,2.2-.4,2.9Z"/>
    <path class="st16" d="M639.2,66.8v.6c.3,0,6.9,1.1,10.6-3.2,3.4-3.4,1.7-16.2-3.7-19.9-.4.4,2.2,10.8,2.3,10.6.1,0,.2-.2.3-.3-.2-1.7-1.5-6.5-1.2-6.5s4.3,8.4,2.7,11.5c-.6,1.9-5.6,6.9-11,7.1Z"/>
    <path class="st16" d="M642.4,45.1c1.3,5-4.5,8.2-5.8,13.4-1.1,4.5,1.7,5.9,4,5.5,4.7-.6,4.4-7.2,4.3-7.3-.4-1.7-1.4-1.9-2.8-2.3-.4.6-.6,1.3-.7,2,2.3.2,3.2,1.3,2.8,2.6-.1.3-1.5,2.7-3.6,3,0,0-3.6.6-3-3.5.6-4.8,7.2-8,5-13.7,0,0-.4-.4-.2.3Z"/>
    <path class="st16" d="M604.8,61.5v2c1.4-.5,2.8-1.5,3.5-1.8-.1,0,0-1.9-.1-1.9-1.2.4-2.3.9-3.4,1.7Z"/>
    <path class="st16" d="M639.5,59.4c.6.2,1.3.3,2,.3.3-.6.4-1.3.3-2l-2-.3c0,.7-.4,1.4-.3,2Z"/>
    <path class="st16" d="M562.8,52.6c-.3-1.8-2.6-5-3.7-6.4-.2,0-.1,0-.3.3.2,1.8,1,7.1,1.1,7.9.1,0,.2.2.3.3,0-1.4-.4-3.3-.3-4.6,1.6,2.2,2.5,4.9,1.5,9.2h.5c1-2.1,1.3-4.4.9-6.6Z"/>
    <path class="st16" d="M615.1,53.8c-.9,3.6-3.5,1.5-3.5,1.5-5.8-5.7,3.3-17.2,7.3-24.6.9-1.6,1.4-3.4,1.5-5.2,0,0-.3-1-.5,0-1.2,7.6-8.9,13.1-10.8,20.2-2.8,8.9,3.4,13.7,6.3,11.8,1.8-1.3,1.5-8.6,3.4-8.2.1,0,1.3,2.5,3.4,2.5,1.6,4,6.4,4.2,7.7,3.9,7.6-1.3,6.6-9.2,6.6-10.4-.3-7.4-8.6-14-10.4-18-.4-.8-.9-2.3-1.1-2.5s0,0-.8,0c0,3.6,0,12.2.1,12.7-1.5,1-2.6,2.4-3.3,3.9-.9,2.7-.8,5.6.3,8.2-.8-.7-1.3-1.5-1.7-2.4-3-2.9-4.5,6.5-4.5,6.5ZM626,48.5c3.2,2.3,7.7-1.3,6.5-5.4-1.9-7.1-7.3-5.8-7.3-5.8v-9c1.9,4,6.9,9.3,8.4,12.1,3.2,4.6.2,11.3-2.9,12.5-2.5,1.2-5.4.6-7.3-1.3,2.3-.4,2.6-3.2,2.6-3.2ZM622.3,49.7c-1.7-1.7-1.4-8.9,2.9-10.2,5.4-.6,6.9,5.6,5.4,6.8s-3.2,1.2-4,.5c-.4-.4-1.4-6.2-1.4-6.4-.2,0-1.1,1.3-1.1,1.4.7,2.8,1,2.8,1.2,5.3-.3,1.5-1.6,2.6-3,2.6h0Z"/>
    <path class="st16" d="M578.5,55c0-.6-.1-1.2-.2-1.8-1.1,0-2.1.4-3,1,0,.7,0,1.4.2,2.1,1-.3,2-.7,3-1.3Z"/>
    <path class="st16" d="M556.2,49.1c.2,1-1.4,1.7-1.8,2.2,1.6-.3,3.3-1.2,2.2-3.9-1,0-2,.5-2.6,1.4,0,.5.1,1.1.3,1.6.1,0,1.8-1.2,1.9-1.2Z"/>
    <path class="st16" d="M594.3,49.9c.1,0,5.3-1.7,5.4-6.4,0,0-.3-1.5-1.2-1.4-.7.5-1,1.4-.9,2.2.2.4.5.3.8.5-.3,1.8-4.2,4.5-4.5,4.6q.1.5.4.5Z"/>
    <path class="st16" d="M638.1,49.2c.4.6,1.4.2,1.4,0,1,.6,1.5-.7,1.5-.8,0-.9-.3-1.7-.9-2.3-.1.3-.2.6-.3.9.6.2.9,1.2.3,1.2-.3,0-.2-.7-.3-.9-.2,0-.4,0-.5.3,0,.4.1.9-.3,1.2q-.3,0-.3-1.7h-.6c-.1,0-.4,1.6,0,2.2Z"/>
    <path class="st16" d="M642.7,42.1c.1-.4.2-.8.2-1.2-.1,0-4.3,3.5-4.5,3.5.1.2-.2.9-.2,1.1,1.6-1,3-2.2,4.5-3.5Z"/>
    <path class="st16" d="M621.7,34.2c-.1,0-.2,0-.2.2-.1.2-.1,1.3-.3,1.5s-.4.2-.6,0c-.1-.6,0-1,0-1.6-.4,0-.8,1.9-.3,2.5.7.7,1.6-.3,1.8-.6.3.2,1.5-.3.9-3.2-.2-.2-.3-.2-.6,0-.1.4.5,1.9-.2,1.9-.5,0-.4-.6-.5-.7Z"/>
    <path class="st16" d="M620.3,29.7c.3.5,1.3,1.8,1,3.2,0,.2.1.3.2.3.5-1.5.3-3.1-.4-4.3-.3.2-.8.8-.8.9Z"/>
    <polygon class="st16" points="680 51.7 677.1 53.3 677.1 51.2 679.9 49.7 680 51.7"/>
    <path class="st16" d="M580.1,297.7l-.9-.7h-.1v-.3l.2-.6.2-.4.2-.4-.6.3-.4.3h-.4c-.3-.5-.6-.9-.9-1.3l-.3-.3-.2-.2c.4-.4.8-.7,1.1-1,.3-.2.6-.4,1-.6.2,0,.4,0,.5,0h1.7v-.2c.1,0,.2-.3.2-.3.1,0,.3-.2.8-.4.3,0,.5-.2.6-.3h0c-.1.2-.3.8-.8,1.6l-1.1,1.8c-.1,0-.1.2-.1.3v.2l.6.5-1.3,2.1ZM580.2,294.5c.1-.2.2-.3.3-.5l.3-.6h-.3c0,0-.3.2-.3.2h-.8c0,0,.1.4.1.4l.3.3.4.2ZM583.8,291h-.7c0,0-.8.2-.8.2l-.2-.5c-.1-.3-.2-.6-.2-.8h-.6c0,0-.4.2-.4.2l-.2-.5c-.1-.3-.2-.6-.2-.9.3,0,.5-.2.8-.2h.7c0,.2.1.5.1.8v.5c.1,0,.8,0,.8,0h.4c0,.2.1.5.2.8l.3.5Z"/>
    <path class="st16" d="M582.1,301.6l-.6.2-.8.2-.2-.5c-.1-.3-.2-.5-.3-.8l-.6.2h-.4c0,0-.2-.4-.2-.4-.1-.3-.2-.6-.3-.9.3,0,.5-.2.8-.3l.7-.2c0,.3.1.6.2.9l.2.5h.4c0,0,.3-.2.3-.2h.4c0,.2.1.5.2.8l.2.5ZM584.7,297l-.4.5-.4.5h-.1c0,0-.1,0-.1,0h-.1c0,0-.2.2-.2.2l-.2.2-.5.3-.5.3-2-1.4,1.3-1.9,1.7,1.2s.1,0,.1,0h0v-.2h0v-1.5c.1,0,.2-.2.3-.2l.3-.2h.3c.2-.3.5-.4.7-.5.1.4.1.7,0,1.1v.4c-.1,0-.2.4-.2.4,0,.3,0,.5,0,.8h0Z"/>
    <path class="st16" d="M588.1,300.2v.2c-.1,0-.2,0-.2.2l-.2.2-.3.3-.3.3c-.1,0-.2,0-.3,0l-2.2-1.4c-.1,0-.1,0,0,0l.2-.3h.1c0,0,.1-.2.1-.2l.4-.5c.1,0,.2-.3.3-.4h.1c0,0,.3-.4.3-.4l1.9,1.2c.1-.4.2-.8.1-1.2-.1-.4-.2-.7-.4-1,.1,0,.3-.4.7-.7l.4-.4.2-.2c.3.4.4.8.4,1.3s-.1,1.4-.4,2l-.2.4-.2.4h0v.2h0c0,0-.5,0-.5,0Z"/>
    <path class="st16" d="M592.5,304.3l-1.1-.6c-.2.3-.4.5-.7.7-.1,0-.2.2-.3.2h-.2c0,0-.2.2-.2.2h-.2c-.1,0-.2,0-.3,0h-.7c-.4-.3-.7-.6-1.1-.9-.3-.3-.6-.6-.8-.9h0c.2,0,.5.2.8.3s.6.2.9.2.7,0,1,0h.3c0,0,.2-.2.2-.2h.3c0,0,.3-.3.3-.3h-.5c0,0-.1-.2-.1-.2-.2,0-.4-.3-.5-.5s-.1-.4-.1-.7v-.2c.1,0,.2-.2.2-.2.2-.3.4-.6.6-.9l.3-.3c.1,0,.2-.2.3-.3.2-.2.5-.4.7-.6.2,0,.4-.2.6-.3.2,0,.4,0,.6,0s.3.2.3.4v.6c0,.3-.1.6-.2.9l-.2.5c0,0-.1.3-.2.4l.9.5-.9,2.2ZM591.7,301.3v-.8h-.1c-.1,0-.2,0-.2,0-.1,0-.2,0-.2,0v.3c0,0,.1.2.2.3h.1c0,0,.2.2.2.2h0Z"/>
    <path class="st16" d="M596.1,305.8l-1.4-.6h0v-.9l-.6.7-1.6-.7.9-2.1,1.4.6v-.3h0v-.2h-.1c0,0-.2-.3-.2-.3h-.2c0,0-.3-.2-.3-.2h-.2c.2-.3.4-.5.6-.7l.6-.6c.5,0,.9,0,1.4,0,.3,0,.6.4.7.7.2.4.2.9.1,1.3-.1.2-.3.4-.5.5l-.3.3.7.3-1,2.1Z"/>
    <path class="st16" d="M601.9,307.9l-1-.4s-.1,0-.1,0v-.3l-.2.2q-.1,0-.2,0l-1.3-.5c-.1,0-.1,0-.2-.4h-.2q-.1,0-.2,0l-1.4-.5h-.1c0,0-.1-.4-.1-.4h-.2c0,0-.2,0-.2,0l-.6-.2.8-2.1.7.3s.1,0,.2-.2v-.2c.1,0,.6-.5.6-.5l.2-.2.3-.2c.2,0,.3,0,.3,0h0v.2h0v.2c0,0-.1.2-.1.2v.2c-.1,0-.4.3-.4.3l-.5.7,1.2.4h.1c0,0,.2-.3.2-.3v-.3c.1,0,.5-.4.5-.4l.6-.5h.3q0,0-.1.2v.2c-.1,0-.2.3-.2.3l-.2.3c-.1.2-.3.5-.5.7l.8.3.3-.8c.1,0,.3,0,.4-.3l.4-.3h.1c0,0,.1,0,.1,0v.5c-.1,0-.2.5-.2.5v.3c-.1,0-.2.2-.2.4s0,0,.1.2l.7.3-.5,2.1Z"/>
    <path class="st16" d="M606.5,303.4l-1.2,1v.5c-.1,0-.2.3-.2.3v.4c-.1,0-.3.7-.3.7v.3c-.1,0-.2.2-.2.2l-.4.8c-.1.2-.2.4-.3.6-.1,0-.2.2-.4,0l-1.7-.5.6-2.2,1.5.4h.1c.1-.5.2-1,.3-1.5.1-.4.1-.8.1-1.2h0v-.3c0,0-.1-.3-.1-.4.1-.2.3-.4.5-.7.3-.3.6-.6.9-.8h.1v.2h0v.4l.5.9.2.8Z"/>
    <path class="st16" d="M608.1,306.9c-.1.3-.2.7-.3,1-.1.2-.2.4-.3.6l-.8.9h-.1c.1-.7.2-1.2.3-1.8l.3-2.1v-1c.1,0,.2-.7.2-.7l.6-.7.8-1h.1v.6c-.1,0-.2.5-.2.5l-.2,1v.9c-.1,0-.2.3-.2.3v.3c-.1,0-.2,1.2-.2,1.2Z"/>
    <path class="st16" d="M618.4,310.5h-1.1c0,0-.1,0-.1,0,0,0,0,0-.1,0l-.2-.6v-.4c-.1,0-.1-.5-.1-.5l-.3.6-.2.4c0,0-.1,0-.2,0h-.3c-.5-.2-1-.4-1.4-.5h-.4c0,0-.3-.2-.3-.2.1-.5.3-1,.4-1.4s.3-.7.5-1c.1,0,.3-.2.4-.4l.7-.4.8-.5h0v-.4c0,0,.2-.3.5-.8.2-.3.3-.5.4-.6h0c0,.2.1.7.1,1.8v2.1c.1,0,.1.2.2.3,0,0,.1,0,.1,0h.7c0,0-.1,2.5-.1,2.5ZM617.8,303l-.5.5-.6.6-.4-.3c-.2-.2-.4-.4-.6-.6l-.4.4-.3.3-.5-.4c-.2-.2-.5-.4-.7-.6.2-.2.4-.4.6-.6l.5-.5c.2.2.4.5.6.7l.3.3.5-.5.3-.3c.2.3.4.5.6.7l.6.3ZM616.8,307.9v-1.2c-.1,0-.2,0-.2,0l-.2.2-.2.2-.3.2-.3.2h.4c0,0,.3.2.3.2h.5Z"/>
    <path class="st16" d="M622.3,312.4l-.4.5-.5.6-.4-.3c-.2-.2-.5-.4-.7-.5l-.4.5-.3.3-.5-.3c-.2-.2-.5-.4-.7-.6.2-.2.3-.5.5-.7l.5-.5c.2.2.4.4.6.6l.4.3.3-.3.2-.2.3-.3c.2.3.4.5.7.7l.4.2ZM622.2,310.7h-1.3c0,0-.2,0-.2,0h-.1c-.1,0-.2,0-.2-.2h-.1c0,0-.1-.3-.1-.3v-.3c-.1,0-.3.3-.3.3l-.3.5h-1.2c0,0,.1-2.4.1-2.4h1.5c0,0,0,0,0,0v-1.1l.5-.5c.2-.2.4-.5.7-.7v.2c.1,0,.1.3.1.3v2c0,0,.1,0,.2.2h1c0,0-.3,2.2-.3,2.2Z"/>
    <path class="st16" d="M625.5,307.5v1.3c-.1,0-.1,0-.1,0h0v.5c-.1,0-.2.3-.2.3l-.2.5-.2.5h-2.5v-2.3h2.1v-.2h0v-.5c-.1,0-.3-.4-.7-.9v-.4l.2-.4v-.3c.2-.3.3-.5.5-.8.3.2.5.6.6.9v.4c.1,0,.2.4.2.4.2.5.2.7.3.9ZM625.1,312.8l-.4.5-.5.6-.5-.3c-.3-.2-.5-.4-.7-.6.1-.2.3-.5.5-.7l.5-.5c.2.2.4.5.7.6l.4.4Z"/>
    <path class="st16" d="M631.9,309.7h-1q-.1,0-.2,0h-.2c0,0,0,.2-.1.3v.3c-.1,0-.2.3-.2.3v.3c-.2.2-.3.3-.4.5s-.2.3-.3.5c-.1,0-.2.2-.3.3-.1,0-.3.2-.5.2-.4,0-.9-.2-1.3-.4-.5-.2-.9-.5-1.2-.9h.1c.2,0,.3,0,.5,0h.6c.2,0,.4,0,.6,0s.2,0,.2,0h.1c0,0,.2-.2.2-.2.3-.3.5-.5.8-.8v-.2c.1,0,.2-.2.2-.2,0,0,.1-.2.1-.3h0v-.4q0,0-.1-.2c0,0-.1-.2-.1-.2l-.3-.5-.2-.3-.2-.3v-.3c.1,0,.3-.5.3-.5.1-.3.2-.5.4-.8l.4.6.3.5c.2.2.3.4.6.6h1.1v2.1Z"/>
    <path class="st16" d="M635.8,309.1l-1.5.2h-.1c0,0-.2-.4-.2-.4-.1,0-.1-.3-.2-.4l-.2.9-1.8.2-.3-2.3,1.5-.2c0,0-.1-.2-.2-.2h-.1c0,0-.1-.2-.1-.2h-.3c0,0-.2,0-.2,0h-.3c0,0-.2,0-.2,0,0-.3.1-.6.2-.8l.2-.8c.3-.4.7-.6,1.2-.7.4,0,.7,0,1,.3.4.3.6.7.8,1.1,0,.2-.1.5-.1.7v.4c-.1,0,.6,0,.6,0l.3,2.3Z"/>
    <path class="st16" d="M637.9,303.2l-.6,1.4v.5c.1,0,.2.3.2.3v.4c.1,0,.3.7.3.7v.3c.1,0,.1.2.1.2v1.6q0,0-.1.2c0,0-.1,0-.2,0l-1.8.3-.4-2.2,1.5-.3h0c-.1-.5-.2-1-.4-1.5-.1-.4-.3-.8-.5-1.1h-.1c0-.2-.1-.2-.1-.3-.1,0-.2-.2-.3-.3,0-.3.1-.5.2-.8.1-.4.2-.7.4-1.1h.1v.2h0c0,0,.1.2.1.2,0,0,.1,0,.2.2l.8.5.6.5Z"/>
    <path class="st16" d="M640.8,305.6c.1.3.1.7.2,1.1v.7l-.3,1.1h-.1c-.1-.6-.3-1.1-.5-1.6l-.7-2-.3-1-.2-.6.2-.8.3-1.3h.1c0,0,.1.3.1.3v.3c.1,0,.3.4.3.4l.3,1v.2c.1,0,.2.2.2.2v.4c.1,0,.2.3.2.3v.3c.1,0,.2,1,.2,1Z"/>
    <path class="st16" d="M646.8,298.2l-.2.6-.3.8h-.5c-.3-.2-.6-.2-.8-.3l-.2.6-.2.4h-.6c-.3-.2-.6-.3-.9-.4,0-.3.1-.6.2-.8l.2-.7c.3,0,.5.3.8.3h.5c0,0,.2-.6.2-.6l.2-.4c.3.2.6.3.9.4h.7ZM650.8,304.7l-1,.4h-.1s-.1,0-.1,0l-.4-.5-.2-.3-.3-.4v1.2q0,0-.1.2h-.1c0,0-.1,0-.1,0h-.1c-.5,0-1,0-1.5.2h-.4c0,0-.3.2-.3.2-.1-.5-.2-1-.3-1.4s-.1-.8,0-1.2c.1-.2.1-.3.2-.5l.4-.7.5-.8v-.2c-.1,0-.3-.3-.3-.3,0,0,0-.4.1-.9,0-.2,0-.4.1-.7h0c.1,0,.4.6.9,1.5l1,1.8c.1,0,.1.2.2.3.1,0,.1,0,.2,0l.7-.3,1,2.3ZM648.2,303c-.1-.2-.2-.3-.3-.5l-.3-.6h0c0,0-.1.3-.1.3v.3c-.1,0-.3.3-.3.3l-.2.3h.7c0,0,.5,0,.5,0Z"/>
    <path class="st16" d="M655,302.7l-.8.4s-.2,0-.5-.2l-.8-.6v.7c0,.2,0,.5-.1.7l-2,.9-.9-2.1,1.9-.9-.7-.3-1.3-.6-.8-.3v-.4c-.1,0-.1-.2-.1-.2v-.2l-.2-1v-.5c-.1,0,2.7-2.5,2.7-2.5.1.3.2.6.2.9.1.3.1.5.1.8l-2.1,2,3.8,1.7.6-.3,1,2Z"/>
    <path class="st16" d="M657.3,301.6l-1.2.6c-.1,0-.2,0-.4-.2l-.3-.3v.4c.1,0,.1.2.1.3h0c0,0-.1.2-.1.2l-.4.2-1-2,.7-.3h0c-.2-.4-.3-.8-.6-1.1-.1-.2-.2-.3-.3-.4l-.3-.4-.4-.5v-.2c-.1,0-.2,0-.2,0h-.1v-2c.1,0,.2,0,.3.3l.3.5,2.2,3.4.7-.4,1,2Z"/>
    <path class="st16" d="M661.1,299.5l-.8.5c0,0,.1.2.1.4h0v.3h-1c0,0-1.6-.4-1.6-.4v.3c.1.2.1.5.1.7s0,0-.1.2h-.1c0,0-.2.2-.2.2l-1.1-2,.6-.4v-.5c-.1-.2-.2-.5-.2-.7,0-.4.1-.8.3-1.1.1,0,.2-.3.3-.4h.1c0,0,.2-.2.2-.2h.2q.1,0,.2,0v.2c.2.2.3.3.4.5h.1c0,0,.1.2.1.2l.2.2c.2.2.5.3.8.4l.4-.2,1,1.7ZM658.3,298.5h0v-.2c-.1,0-.2,0-.2,0h-.1c-.1-.2-.2-.3-.3-.3h-.1c-.1,0-.1,0-.2.2,0,0-.1.2,0,.3h.9Z"/>
    <path class="st16" d="M664.7,297.2l-.8.5c0,0,.1.2.1.3h0v.3h-1.1l-1.7-.2v.3c.1.2.1.4.2.7v.2h-.1c0,0-.2.2-.2.2l-1.2-1.9.6-.4-.2-.5c-.1-.2-.1-.5-.1-.7,0-.4.1-.8.2-1.1.1,0,.2-.3.3-.4h.1q.1-.2.2-.3h.2q.1,0,.2,0v.2c.2,0,.3.3.4.4h.1c0,0,.1.2.1.2h.2c.3.3.5.4.8.4l.4-.2,1.3,1.9ZM661.9,296.3h0v-.2c-.1,0-.2,0-.2,0h-.1c-.1-.2-.2-.2-.3-.3h-.1c-.1,0-.1,0-.2.2v.3h.9Z"/>
    <path class="st16" d="M663.9,290.9v1.5c.1,0,.4.4.4.4l.2.3.3.3.5.6.2.3v.2c.1,0,.5.8.5.8.1.2.2.4.3.6v.2c0,0-.1,0-.1.2l-1.5,1.1-1.4-1.8,1.2-.9h0c-.3-.5-.6-.9-1-1.3-.3-.3-.6-.6-.9-.8h-.1c-.1,0-.1-.2-.2-.2-.1,0-.2,0-.4,0-.1-.3-.2-.5-.2-.8-.1-.4-.1-.8-.1-1.2h.2c0,0,.1.2.1.2h.1c.1,0,.1.2.2.2h1c0,0,.7.2.7.2Z"/>
    <path class="st16" d="M667.6,291.8c.2.3.4.6.6.9.1.2.2.4.3.6l.2,1.1h-.1c-.4-.4-.7-.9-1.2-1.3l-1.5-1.5-.7-.7-.4-.5-.2-.9-.3-1.3h.2l.2.2.2.2.3.3.7.8v.2c.1,0,.2.2.2.2l.3.3.2.3.2.2.8.9Z"/>
    <path class="st16" d="M648.8,212.6l-.5.6-.6.8-.5-.3c-.3-.2-.6-.4-.8-.6l-.5.6-.3.4-.6-.4c-.3-.2-.6-.4-.9-.7.2-.3.4-.6.6-.9l.6-.7c.2.3.5.5.8.7l.5.3.5-.7.3-.4c.3.3.5.6.9.8l.5.5ZM650.6,221.6h-1.6c-.1,0-.1,0-.1,0l-.3-.7v-.5c-.1,0-.2-.6-.2-.6l-.3.8-.2.6c0,0-.1,0-.2.2h-.1c0,0-.1,0-.1,0h-.1c-.6-.2-1.2-.3-1.8-.4h-.7c.1-.6.2-1.2.3-1.8.1-.5.3-.9.5-1.3.1-.2.3-.3.5-.5l.7-.6.9-.7v-.3c-.1,0-.2-.4-.2-.4,0,0,.2-.4.5-1,.2-.4.3-.6.4-.7h.1c0,.3.2,1,.4,2.2l.4,2.5c0,0,.1.3.1.4s.1,0,.2.2h.9v2.6ZM648.3,218.6c0-.2,0-.5-.1-.7l-.2-.8h-.1c0,0-.2.3-.2.3l-.2.3-.3.3-.3.2h.1c0,0,.3.2.3.2h.4l.6.2Z"/>
    <path class="st16" d="M659.1,221.6h-5.9c-.1,0-.2,0-.3-.2v-.2c-.1,0-.2-.2-.2-.2l-.2-.4-.2.4-.3.6h-1.5v-2.8h1.8v-.3c-.1,0-.1-.4-.1-.4v-1l.5-.7c.2-.3.5-.6.7-.9v.3c.1,0,.2.3.2.3v2.3c0,0,.1.2.2.2h5.1l.2,3ZM654.2,213.7l-.5.6-.6.8-.6-.4c-.3-.2-.6-.4-.9-.7.2-.3.4-.6.6-.9l.6-.7c.3.3.5.6.9.8l.5.5Z"/>
    <path class="st16" d="M665.1,218.8v1.1c-.1,0-.2.3-.2.3l-.3,1c0,0-.1.2-.2.3s-.1,0-.2.2h-1.8l-.3-.3-.2.2c0,0-.1,0-.2,0h-1.7v-.3l-.3.4h-.7v-2.8h.7v-.5c.1,0,.2-.5.2-.5h0c0,0,.1-.3.1-.3l.4-.5c.2-.3.4-.5.6-.7.1,0,.1,0,.1.2v.6c0,0,0,.2-.1.2l-.2.8v.5h1.3v-.7l.3-.6.2-.3c.2-.4.4-.6.6-.6h0c0,0-.2,1.3-.2,1.3-.1.3-.1.7-.1,1h.8v-1l.5-.9c.3-.4.5-.7.6-.7v2l.3.5h0Z"/>
    <path class="st16" d="M679.2,221.6h-1.3s-.1,0-.1-.2v-.3c-.1,0-.3.3-.3.3-.1,0-.1.2-.2.2h-1.7l-.3-.3-.2.2c0,0-.1,0-.2,0h-1.2v.7c-.1.2-.2.4-.3.6-.1.3-.3.7-.5.9-.3.3-.7.5-1.1.7-.5.2-1,.3-1.5.3h-.5c-.5,0-1-.3-1.3-.7s-.5-.8-.5-1.3c0-.9.3-1.8.7-2.5.3-.6.6-1.2,1.2-1.7h.2l-.3.6-.2.4c-.1.3-.2.7-.3,1.1v.9c0,0,.1.2.1.3.2.3.5.4.8.5h1.7c.4-.2.7-.4,1-.6v-.2c0-.5-.1-.9-.3-1.3-.2-.5-.4-1-.6-1.4l.4-.8c.3-.6.4-.9.5-1h.1c0,0,.3.5.3.5l.7,1.5h1.1v-.7c.1,0,.6-.9.6-.9.1-.3.3-.5.5-.7.1.2.1.3.1.5v1.8c-.1,0,.7,0,.7,0,0-.2.1-.3.1-.5v-.5l.3-.5c.1,0,.1-.2.2-.4s.2-.3.4-.4c.1.2.1.4.1.5v1.6h1v2.7Z"/>
    <path class="st16" d="M687.4,218.8v1.4c-.1,0-.4,1-.4,1,0,0-.1.2-.2.3s-.1,0-.2.2h-1.7l-.3-.3-.2.2c0,0-.1,0-.2,0h-1.7v-.3l-.3.4h-2.9v-2.8h3v-.5c.1,0,.2-.5.2-.5h0c0,0,.1-.3.1-.3l.4-.5c.2-.3.4-.5.6-.7.1,0,.1,0,.1.2v.6c0,0,0,.2-.1.2l-.2.8v.5h1.3v-.7c.1,0,.4-.6.4-.6l.2-.3c.2-.4.4-.6.6-.6h0c0,0-.2,1.3-.2,1.3-.1.3-.1.7-.1,1h.8v-1l.5-.9c.3-.4.5-.7.6-.7v2.5h-.1Z"/>
    <path class="st16" d="M690.5,213.3c0,.2-.1.3-.2.4l-.2.2c-.3,0-.5,0-.7.2-.3.2-.6.4-.8.6h-.1v-.2l.5-.6h-.4c-.1,0-.2-.2-.2-.3s-.1-.2-.1-.3c0-.4.2-.7.4-1,.3-.4.5-.5.8-.5s.2,0,.3,0c.1,0,.1.2.1.3h0v.4c-.1,0-.3.3-.3.3l-.2-.2c-.1,0-.2,0-.3,0h-.2q0,.2.1.3h.3c0,0,.3.2.3.2h.7l.2.2ZM691.1,221.6h-2.2s-.1,0-.1-.2v-3.8c-.2-.7-.2-1.2-.2-1.4l.6-.9c.2-.2.4-.5.6-.8l.2.4c0,.2.1.4.1.6v.8c.1,0,.1.5.1.5v2.1h.9v2.8h0Z"/>
    <path class="st16" d="M695.5,213.3l-.5.6-.6.8-.5-.3c-.3-.2-.6-.4-.8-.6l-.5.6-.3.4-.6-.4c-.3-.2-.6-.4-.9-.7.2-.3.4-.6.6-.8l.5-.6c.2.3.5.5.8.7l.5.3.5-.7.3-.4c.3.3.5.5.9.8l.6.3ZM696.1,217.8v1.6c-.1,0-.1,0-.1,0h0c0,0-.1.3-.1.3v.2c-.1,0-.2.3-.2.3l-.2.6-.3.7h-4.2v-2.8h3.8s.1,0,.1,0h0v-.2q0,0-.1-.2v-.3c-.3-.4-.6-.7-.8-1.1,0-.2.1-.3.2-.5l.2-.4.2-.4c.1-.3.3-.6.5-.9.3.3.6.7.7,1.1l.2.5.2.5c-.1.4,0,.7-.1,1h0Z"/>
    <path class="st16" d="M564.6,218.4c0,.6-.1,1.2-.3,1.7-.2.6-.5.9-.8.9h-7.4v-2.5h3.9c0-.6.2-1.2.5-1.7.1-.4.3-.7.5-1v-.6h0c0,0,.1-.3.1-.3v-.4c.1,0,.2-.3.2-.3v-.2c.7.4,1.2.9,1.7,1.4.5.4.8.9,1.2,1.5.2.4.4,1,.4,1.5ZM562,217.6c0,0-.1-.3-.1-.4-.1-.2-.3-.3-.5-.3,0,0-.2,0-.5.4-.1,0-.2.3-.3.5,0,0,.1.2.3.3.1,0,.3,0,.4,0,0,0,.2,0,.3-.3s.4-.2.4-.3h0ZM563.7,218.6c0-.2-.1-.4-.2-.6-.2-.2-.3-.4-.4-.4h-.1c-.1,0-.2.3-.2.4h0c0,0,.1.3.1.3h.2c0,0,.2,0,.2,0h.6l-.2.2Z"/>
    <path class="st16" d="M569.3,218.8c0,.3,0,.7-.1,1v.5c0,0,0,.2-.1.3v.3c-.1,0-.2,0-.2,0h-.1c0,0-.1,0-.1,0l-.3-1.2-.2-1v-.5c-.1,0-.2-.4-.2-.4-.1-.5-.3-1-.5-1.5l-.3-.7c-.1-.2-.2-.5-.4-.7l.2-.4.2-.4c.1-.3.3-.7.6-.9.2.4.5.8.7,1.3s.4,1.2.7,2.1c.1.4.2.7.2,1.1v1Z"/>
    <path class="st16" d="M577.3,214.6c0,.4-.1.7-.2,1.1-.1.4-.3.6-.6.6h-.3c-.1,0-.2,0-.3-.2l-.3.3h-.4c.1.3.1.4.2.6v.5c.2.3.2.7.2,1,0,.8-.1,1.6-.3,2.4h-.1c0,0-.1,0-.1,0l-.3-1v-.4c-.1,0-.2-.3-.2-.3-.1-.3-.2-.6-.2-.8-.1-.3-.2-.6-.3-.9-.1-.2-.2-.5-.3-.7-.1-.3-.3-.6-.5-.9l-.3-.4-.4-.5.3-.8c.1-.3.3-.7.5-.9.1,0,.1.3.2.4l.3.4c.2.2.4.4.7.4s.3,0,.5-.4l.2-.7q0,0,.1,0t.2,0v.5c.2.2.3.3.4.4h.1c.1,0,.2,0,.3-.2.1,0,.1-.2.1-.4v-.3c.1,0,.1-.2.3-.3.1,0,.1.3.1.4v.3l.4.7Z"/>
    <path class="st16" d="M584.5,215.3c-.1,0-.3.2-.3.3h-.1c0,0-.1.3-.1.3v.2c-.1,0-.7,1.4-.7,1.4l-.3,1-.2.7-.2.7v.6c-.1,0-.2.2-.3.2h-.1c-.1-.6-.2-1.1-.4-1.5-.2-.7-.4-1.3-.7-1.9-.2-.5-.5-1.1-.8-1.5q-.1,0-.2-.2t-.2-.2c0-.4.1-.8.2-1.1,0-.3.1-.7.3-1,.3,0,.5.3.7.5.1.2.2.3.3.5l.3.5.4,1.1.3,1.2.2-1,.2-.6v-.2c.1,0,.2-.2.2-.2v-.2c.3-.4.5-.8.8-1.2.1,0,.2-.2.3-.3l.4-.2.2.6-.2,1.5Z"/>
    <path class="st16" d="M591.2,219.9l-.6.6c-.3.3-.6.5-.7.6l-1-.5c-.4-.2-.7-.4-1-.8-.1,0-.2-.3-.3-.4-.1,0-.1-.3-.1-.4v-.2c0,0,.1,0,.1-.2.2-.3.5-.6.7-.9l.3-.4.3-.3-.7-.5c-.2-.2-.4-.4-.6-.7v-.3c-.1,0-.1,0-.1,0h0c0,0,.1-.2.1-.2h.1c0,0,.4-.6.4-.6l.3-.3.3-.3.3-.3.3-.3.3-.2.3-.2h.1v.6c0,0,0,.2-.1.4s-.3.3-.5.4l-.4.2c0,0,.2.3.6.5l.8.5c.1,0,.2.2.2.3s0,.2-.1.3l-.3.3-.2.3-.7.9v.2q-.1,0,0,.2l1.1.9c.3.4.6.7.8.9Z"/>
    <path class="st49" d="M681.2,252.6s-2.3,1.3-3.7,0c0,0-5.5-5.8-7.6-7.8,0,0,4.3-8.5-3-13.8,0,0-.2,5.6-3.5,7,0,0-55.4-51.1-117.3-34.8,0,0,60.5-7.8,111.1,40.6,0,0-2.9,5.8-8.2,4.3,0,0,5.4,7.5,13,2.2l13.6,13.4c1.9,1.4,4.5,1,5.9-.9,0,0,.1,0,.1-.2,1.3-1.4,2.5-5.8-.5-10.1ZM661.5,248.3c-.3,1.2-1.7,1.8-3.3,1.5-1.6-.3-2.6-1.6-2.4-2.7.3-1.2,1.7-1.8,3.3-1.5,1.6.3,2.6,1.6,2.4,2.7h0ZM666.1,247c-1.3,1-3.5.5-4.9-1.3s-1.5-3.9-.2-4.9,3.5-.5,4.9,1.3c1.4,1.8,1.5,3.9.2,4.9h0ZM669.7,238.8c-.4,1.6-1.6,2.7-2.8,2.4s-1.9-1.8-1.5-3.4,1.6-2.7,2.8-2.4c1.2.3,1.8,1.8,1.5,3.4h0Z"/>
    <path class="st78" d="M763,51s-74,4.5-142.6-51c0,0-59.4,51.4-142.3,51.4,0,0-19.8,184.4,142.3,294.2,0,0,152.5-91.9,142.6-294.6ZM620.3,339.1C464.4,233.5,483.4,56,483.4,56c79.8,0,136.9-49.4,136.9-49.4,66,53.4,137.2,49.1,137.2,49.1,9.5,195.1-137.2,283.4-137.2,283.4Z"/>
    <path class="st49" d="M704.5,75.9l-72.6-.4c-4.8-8.7-10.3-8.3-10.3-8.3-6.9,1-11.4,8.6-11.4,8.6h-72.7c-2.3.9-3.7,3.1-3.6,5.5h175.8c.1-4.4-5.2-5.4-5.2-5.4ZM613.9,75.6s3.2-6.3,7.7-6.3c0,0,5.1,0,7.4,6.3h-15.1Z"/>
    <path class="st49" d="M721.1,164.7l-26.6-78.9v-5.3h-1.7v5.3l-30.8,78.9h-6.8c1.6,13.1,15.2,23.2,35,23.2,36.2,0,37.3-23.2,37.3-23.2h-6.4ZM692.8,164.7h-28.6l28.6-74.6v74.6ZM694.5,164.7v-74.4l25,74.6-25-.2Z"/>
    <path class="st49" d="M579.4,164.7l-26.7-78.9v-5.3h-1.7v5.3l-30.8,78.9h-6.7c1.6,13.1,15.2,23.2,35,23.2,36.2,0,37.3-23.2,37.3-23.2h-6.4ZM551.1,164.7h-28.6l28.6-74.6v74.6ZM552.8,164.7v-74.7l25,74.8h-25Z"/>
    <path class="st57" d="M623.8,120.9v73.7s2.4,5.4,7.3,7.2h-21.1s4.2-1.4,7.1-7.9l.9-73.5c-.1,0,5.8-.7,5.8.5Z"/>
    <path class="st75" d="M632.3,137.7s1.2-3.1-.4-7.6c-2.7-8-16-11.5-21.7-1.6-1.3,2.3-2.6,6-1.4,9.2,0,0-6.8-9.8,1.3-17.8,0,0-14.7,6.6-15.9,15.7,0,0-2.9-9.4,7.6-17.8,0,0-13,3-15.2,8.7,0,0,1.2-11.6,12.1-15.1,0,0-11.2.5-15.7,4.9,0,0,7.6-10.4,20.1-10.4,0,0-3.7-6.7-14.6-10.2,0,0,15.1-3.7,22.8,6.4,0,0-1.7-12.5-4.3-15,0,0,6.8,3.1,9.9,9.8,0,0,.5-10.9,3.6-13.9,0,0,3.3,6.9,3.3,13.6,0,0,1.3-5.8,9.8-9.7,0,0-4.1,9.2-4.1,15.2,0,0,7.9-9.1,22.8-6.4,0,0-10.7,3.8-14.7,10.4,0,0,12.7-.4,20.2,10.1-4.7-3.1-10.2-4.7-15.8-4.8,0,0,10.5,3.7,12.2,14.8,0,0-5.9-8.1-15-8.1,0,0,10.9,6.8,7,17.8,0,0,0-9.1-15.5-15.8.2-.2,10,6.9,1.6,17.7Z"/>
    <path class="st49" d="M559.3,263c1.3,2,3.9,2.5,5.9,1.2h.1c0,0,13.6-13.5,13.6-13.5,7.6,5.3,13-2.2,13-2.2-5.4,1.4-8.2-4.3-8.2-4.3,50.7-48.4,111.2-40.6,111.2-40.6-61.7-16.3-117.3,34.8-117.3,34.8-3.3-1.4-3.5-7-3.5-7-7.3,5.3-3,13.8-3,13.8-2.1,2.1-7.6,7.8-7.6,7.8-1.3,1.4-3.6,0-3.6,0-3,4-1.9,8.6-.7,10.1ZM581.9,245.7c1.6-.3,3,.3,3.3,1.5.3,1.2-.8,2.4-2.4,2.7-1.6.4-3-.3-3.3-1.5-.2-1.1.9-2.3,2.4-2.7h0ZM575.1,242.2c1.4-1.8,3.6-2.3,4.9-1.3,1.3,1,1.2,3.3-.2,4.9-1.4,1.7-3.6,2.3-4.9,1.3-1.2-1-1.1-3.2.2-4.9h0ZM572.9,235.7c1.2-.3,2.5.8,2.8,2.4.3,1.6-.3,3.1-1.5,3.4-1.2.3-2.5-.8-2.8-2.4-.4-1.7.3-3.2,1.5-3.4h0Z"/>
    <path class="st16" d="M637.7,271.8c.1.3.1.6.2.9.1.5.3.9.5,1.4.6,1,1,2,1.3,3.1-1,1-2.2,1.9-3.5,2.5-.6.3-1.2.6-1.8.9-1.5.7-3,1.2-4.5,1.8-.4,0-.7.2-1,.4-.9.2-1.9.5-2.8.8q-.5,0-2.2.6c-.2,0-.4,0-.6,0-2,.4-4,.6-6,.9l-3.3.3c-.5,0-1,0-1.5,0l-4.3-.3c-2.5-.3-4.9-.7-7.3-1.1l-3.5-.8-2.1-.6c-1.7-.6-3.3-1.4-4.8-2.4-.2,0-.3,0-.3.2,1,.8,2,1.6,3,2.4,1.7,1.3,3.6,2.1,5.6,2.6s1.6.4,2.9.7c2,.5,4,.8,6,1,1.8.3,3.6.4,5.5.5h.1c0,0,.2,0,.2,0h2.7c.2,0,.4,0,.6-.2.8,0,1.2,0,1.2,0,2.3-.3,2.4-.3,2.5-.3s1-.2,1-.2c2.7-.3,5.3-1.4,7.9-2.1.4-.2.7-.3,1.1-.4,2.7-1,5.2-2.3,7.5-3.8.4-.4.8-.8,1.2-1.3.7-1.2,1.2-2.5,1.4-3.7-.2-1.2-.9-2.2-1.3-3.4v-.2c.3,0,.6,0,.9,0v-.3c-.6-.7-1.2-1.5-1.8-2.2-.1,0-.2-.2-.4,0-.4.6-.7,1.3-.8,2l.5.4Z"/>
    <path class="st16" d="M646.3,275.9c.5,0,.9.2,1.4.2q.8,0,1.3,0c.8-.2,1.1-.3,1.2-.3.3.5.3,1,.1,1.5-1.2,1.1-2.4,2.1-3.8,2.9-3.4,2.1-6.9,3.8-10.6,5.4-.1,0-1.7.7-1.1,1,.6-.2,1.2-.4,1.8-.6,1.8-.2,3.6-.7,5.4-1.2q1.4-.8,1.9-1c1.2-.7,2.4-1.5,3.5-2.3l1.7-1.5c.8-1.1,1.5-2.4,1.8-3.7.1-.3.1-.6.2-.9.3-.2.6-.4.9-.5.2,0,.4-.3.6-.4,1-1,1.4-2.4,1.2-3.7-.1-.3-.3-.7-.3-1-.3-.7-.7-1.4-1.1-2,.3,0,.6.3.9.2v-.2c-.6-1-1.3-1.9-2.1-2.7q-.2,0-.4,0c-.2.5-.4,1.1-.5,1.6-.1.6,0,.6.4,1,.1,0,.1.3.1.4.5,1.1,1,2.1,1.6,3.1.2.4.7,1,.6,1.5-.6.4-1.3.7-2.1.9-.3-1.4-1.5-2.6-2.9-2.8-1.7.2-2.3,2-2.7,3.4-.1.9.3,1.6,1,1.9ZM646.6,273.1c.8-.8,2,.2,2.6.7h-1c-.5,0-1.3,0-1.6-.4v-.3Z"/>
    <path class="st16" d="M649.7,281.1h-.2c-.5,1-1.1,3.5.4,4,.7-.3,1-1.1.8-1.8h-.1c-.3.3-.2.8-.7.8-1-.4-.3-2.1-.2-2.8,0,0,0-.2,0-.3Z"/>
    <path class="st16" d="M658.8,270.5c.2,0,.9,0,1,0s0,0,0-.2c-1-.6-2.2-1.1-3.2-1.7h-.3q.2,1.9.2,2.2c.3.2.6.4.9.5l.8.9c.6.5,1.3,1,2,1.5,1.4.8,2.8,1.6,4.2,2.5.3.3.7.5.8,1-.7,1-1.6,1.7-2.7,2.1-2.2,1.3-4.6,2.5-7,3.4-.9.3-1.8,0-2.4-.6-.5-1-.5-2.2,0-3.2.2-.5.4-.8.7-1.3.3,0,.5.4.8.4.4-.4.7-.9,1.1-1.4.7.4,1.3.8,1.9,1.2h.2l1.3-1.6v-.2c-.2,0-1.1-.7-2-1.3-.6,0-.8,1.4-1.3,1.4-.1-.3-.9-.6-1.1-.8s-.6-.6-.9-.5c-.4.5-1.2,1.3-1.2,1.9l.8.7-.9,2.1c-.2.8-.4,1.5-.6,2.3v1.2c.1.2.1.5.2.7.4.8,1.2,1.4,2.2,1.4.8,0,1.5-.3,2.2-.7h0c.5-.3.9-.5,1.4-.8,1.7-.8,3.3-1.8,4.9-2.7h.1c0,0,.1,0,.1,0v-.2l1.1-.7c.5-.4,1-1,1.3-1.6.1-.2.1-.5.2-.8-.1-1.4-.2-3.1-1.6-3.7l-.2-.2c-1.5-.9-3.1-1.8-4.6-2.8,0,0-.4-.2-.4-.3Z"/>
    <path class="st16" d="M584.7,285.2c.3-.2.6-.4.9-.6,1.4-.7,2.7-1.4,4-2,.3-.2.7-.7.7-1.1-.1,0-.3.2-.4.3l-1.6.8c-1.3.5-2.5,1.2-3.7,2-.2.3-.3.6-.3.9.2,0,.3-.2.4-.3Z"/>
    <path class="st16" d="M612.4,281.2c-.2,0-.5.7-.5.8-.3.8-.7,2.2.2,2.7.5,0,.8-1,.8-1.5h-.1c-.1.2-.3.6-.6.4-.6-.8-.2-1.6.2-2.4,0,0,0,0,0,0Z"/>
    <path class="st16" d="M619.7,284h0c-.1,0-.2,0-.2.2q-.1,0-.2,0v.2h.2q.1-.2.2-.4h0Z"/>
    <path class="st16" d="M622.9,278.9h0c-.5.7-.8,1.6-1,2.4,0,.8,0,1.7.9,2.1.5-.4.8-1.1.8-1.7h-.1c-.1.3-.3.6-.6.8-.8,0-.7-1.5-.6-2.1.3-.5.5-1,.6-1.5Z"/>
    <path class="st16" d="M575.7,282.5c.6.9,1.6,1.5,2.7,1.7.5,0,1,0,1.5-.2.4-.2.9-.4,1.3-.6l1.2-1c.4-.4.8-.8,1.2-1.1,1.8-1.9,3.9-3.4,6.2-4.5.3,1,.9,1.9,1.7,2.5,1,.7,2.8,1.2,3.4-.2.2-1,.3-1.9.3-2.9s-.1-.6-.2-.9c-.9-1.5-2.6-1.3-4.1-1.2-.5,0-.3.2-.5-.5l-.6-3.5c-.3-2.1-.5-3.7-.7-5.2-.2-1.5-.2-2.3-.3-4,.6,0,.8,1.2,1.3,1.3h.1c-.7-1.7-1.3-3.2-2-4.7-.1-.3-.2-.6-.5-.8h-.1c-.2.3-.3.5-.4.8-.3.4-.5.8-.5,1.3.2.2.4.5.5.8.2,1.9.4,3.7.6,5.6.2,3.2.6,6.3,1.3,9.5h0c-1.4.8-2.8,1.7-4,2.7q-.2.2-4,3.5-.4.4-1.3,1c-.4.3-.9.4-1.3.7-.9.3-1.9,0-2.4-.9-.4-1.1-.4-2.2,0-3.3q.4-1,.8-1.9c.4-.6.9-1.2,1.2-1.9.1,0,.4.5.6.6,1.1.6,1.5,0,1.7-1,0-.3.1-1.5-.2-1.7h-.1c-.1.6-.2,1.4-1,1.2-.8-.7-.5-1.8-.3-2.7.1-.4.3-.9.5-1.3.2-.3.8-1.2.6-1.6h-.2c-.9,1.2-1.5,2.6-1.8,4v.9c-.1.6,0,.7,0,.9s-.5.7-.8,1.1c-.8,1.3-1.4,2.7-1.8,4.2,0,.4-.1.7-.1,1.1s.1.9.2,1.3l.3.8ZM591.4,276.2c.7,0,1.3,0,2,.2.2,0,1.1.6,1,.9l-.4.2h-.5s-.3,0-.6,0c-.6-.2-1.2-.6-1.5-1.2h0Z"/>
    <rect class="st16" x="648.1" y="281.7" width=".1" height="0"/>
    <path class="st16" d="M595.8,264.1c.5,3,.7,5.9.8,8.9,0,.9.1,1.7.2,2.6.2,1,.6,2,1,2.9.3.4.5.8.8,1.2.3.3.5.5.8.7.6.3,1.3.6,2,.9-.1.4-.2.8-.3,1.3q0,.2.1.3h.1l.6-1.3h1.9c.6,0,1.3-.2,1.9-.2s1.4,0,1.8.2.5,0,2.5,0c.5,0,1-.2,1.5-.2,1.4-.2,2.8-.5,4.1-.8,1.6-.3,3.2-.8,4.7-1.5q.8-.3,5.3-2c.1.2.2.5.3.8.5,1.2,1.6,2,2.8,2.3.4,0,.9,0,1.3,0,.5-.4.9-1,.9-1.7s-.2-1.7-.5-2.5c-.2-.2-.4-.5-.6-.7-1.1-.5-2.2-.6-3.4-.4h-.1q-.1-.2-.5-2.1c-.3-2.1-.6-4.1-.9-6.2-.1-1.6-.3-2.7-.4-4.1-.1-.7-.2-1.4-.2-2.1,0,0,.7.8,1,1.2.4,0,.2-.4.1-.6-.4-1.5-1-3.1-1.5-4.5h-.1c-.5.5-.9,1.2-1,2,.2.3.3.6.3.9h0c.2,2.5.4,4.9.8,7.4.3,2.9.8,5.7,1.4,8.6v.2l-2.2.8c-1.2.5-2.4.8-3.6,1.3-1.1.3-2.2.7-3.4.9-1.1.3-2.3.6-3.4.7.3-.3.5-.5.8-.8.6-1,1.1-2,1.5-3.1.2-.6.1-1.2-.1-1.8-.7-.9-1.8-1.4-2.9-1.5-.7,0-1.5,0-2.2.3l-1,.4c-.8.5-1.6,1-2.4,1.6-.9.8-1.7,1.6-2.4,2.5.1-.4.3-.9.4-1.3.1-.7.2-1.4.3-2.1,0-.8,0-1.5-.1-2.2-.3-3.2-.7-6.2-1-9.4-.1-.6-.1-1.3-.1-1.9.3.3.6.6.9,1,.7.3-.2-1.5-.2-1.6-.4-1.2-.8-2.3-1.3-3.5-.1,0-.2,0-.3,0q-.5.8-.9,1.7c.1.3.2.6.3.8q.1.4.3,1.5c.2,3.8.8,7.7,1.2,11.5.2,1.9.2,3.7-.1,5.5-.2.9-.6,1.7-1,2.5-.3,0-.7,0-1-.2-.8-.3-1.6-.8-2.2-1.5-1.6-2.3-1.5-5.2-1.6-7.9-.1-1.6-.3-3.1-.3-4.6-.1-.6-.2-1.2-.3-1.8-.2-.7-.3-1.4-.4-2.1-.1-.3-.2-.7-.2-1-.4-1.2-.6-2.4-1.1-3.5,0,0-.1-.6-.3-.4-.2.6-.4,1.2-.6,1.9v.2c.4,1.2.8,2.4,1,3.6.2.5.4,1.3.4,2.1ZM630.3,277.1c.1.5-.6.5-1,.6-.7,0-1.4-.5-1.9-1,1.1,0,2,0,2.9.4h0ZM605.7,276c.6-.5,1.3-1,2-1.5q.9-.4,2-.8h.7c0,0,.5,0,.5,0,1,.2,3.4,1,3.1,2.3-1.1,1-2.4,1.8-3.9,2.2-1.6.4-1.9.5-2,.5-1.6.3-3.2.5-4.8.5h0c.7-1.1,1.5-2.2,2.4-3.1h0Z"/>
    <path class="st16" d="M640.8,259.4q.1.9.3,3.2c.3,1.6.5,3.2.8,4.7.5,3.3,1,6.5,1.4,9.8.1,1,0,2,.1,3h.1c0,0,.7-2.3.7-2.3,0-.4.1-.8.1-1.2-.3-4.5-.9-9-1.7-13.5,0-.3-.1-.5-.1-.8-.2-.8-.3-1.6-.4-2.4h.1c.4.6.8,1,1.2,1.4.1,0,.1-.2.1-.3-.2-.7-.5-1.5-.7-2.2-.4-1-.9-2-1.4-2.9h-.2c0,0-.1,0-.1,0-.4.6-.7,1.2-.9,1.9.1.4.3.8.6,1.2-.1,0-.1.3,0,.5Z"/>
    <path class="st16" d="M578.7,277.1c-.4,1-.9,2.9.4,3.5.8,0,.7-.8.8-1.5v-.3h-.2c-.1.4-.2.8-.7.6-.3-.4-.4-.8-.4-1.3.1-.3.2-.6.1-1h0Z"/>
    <path class="st16" d="M629.8,258.8c.3,2.5.5,5,.9,7.5.3,2.2.6,4.3,1,6.4.1.9.2,1.8.4,2.8q.2,1.8.3,3.6h.2c.2-.8.4-1.6.6-2.4.1-1.1.1-2.1-.1-3.2-.6-4.5-1.3-9-1.8-13.5.1,0,1.2,1.9,1.3,1l-1-2.9c-.4-.8-.8-1.6-1.2-2.4-.2,0-.3,0-.4,0l-.7,1.7v.2c.2.2.4.6.5,1Z"/>
    <path class="st16" d="M664.4,277.6c0,0,0-.2-.1-.2s-.1.2.1.2c0,0-.1,0,0,0Z"/>
    <path class="st16" d="M635.8,277.2h.2l1.2-1.7h0q-1.7-1.5-1.9-1.7h-.1q-.3.4-.7.9c-.2.3-.5.6-.4.9q1.4,1.3,1.7,1.6Z"/>
    <path class="st16" d="M666.3,273.9v.2h.1v-.2Z"/>
    <path class="st16" d="M621,273.7c.2.6.3.8,1,.9.8-.2.9-1.5.7-2.1h-.1l-.2.6c-.1.2-.2.3-.4.4-1.1,0-.7-1.4-.6-1.9.1-.3,1-2,.8-2.3h-.1c-.7,1.1-1.2,2.4-1.3,3.7.1,0,.2.3.2.6Z"/>
    <path class="st16" d="M582.6,264.8h.1c0,0,.1,0,.1,0l.3.5c.2.4.4.8.5,1.2l-.4.3c-.2.3-.3.6-.3,1l.3-.3c.2,0,.5,0,.7,0h0c-.3.2-.5.4-.8.6-.9,1.2.2,2.8.6,3.7l.5,1.2q.5,1.7.6,2c0,.2.1.4.2.5h.1c0-1.1-.2-2.1-.6-3.1l-.5-1.3c-.3-.6-.6-1.2-.8-1.8-.1,0-.2-.3-.2-.5.5-.4,1-.7,1.7-.8.1-.2.2-.5.3-.7,0-.5-.7-.9-1.1-.9.1-.9.2-1.9.4-2.8.4-.7.8-.5,1.1.2h.1c.1-.3.1-.6.1-.9-.2-.4-.4-.8-.9-.7-.9.6-.8,2.1-1,3-.3-.7-.9-2.2-1.8-2.2-.1.4-.1.8-.1,1.2.1,0,.5.4.8.6Z"/>
    <path class="st16" d="M587,275.1h.3c.3-.4.5-.9.4-1.4-.1,0-.3.3-.3.4-.6.3-.9-.5-.9-.9.2-.5.3-.9.3-1.4-.4,0-.5,1.7-.6,2.2,0,.3.3.8.8,1.1Z"/>
    <path class="st16" d="M622.9,273.4h-.1c0,0,.1,0,.1,0Z"/>
    <path class="st16" d="M618.9,268.8c-.6-.4-.8-.2-1,.4-.2.8-.4,1.9-.6,2.7h0c-.2-.2-.3-.5-.5-.8l-.3-.4c-.3-.4-1.3-1.5-1.9-1.4-.1.5-.1.9,0,1.4.3.2.7.4,1.1.5h.2c0,0,.6.7.6.7.2.4.5,1,.7,1.4h.2c.4-1.9.5-2.6.6-3.2,0,0,.1-.3.2-.4.4.2.7.5.9.9h.1c.1-.4.2-.9.1-1.4h-.1l-.3-.4Z"/>
    <path class="st16" d="M591.9,270.6h.2c.5.6.9,1.3,1.1,2.1h.1c0,0,.1,0,.1,0,.4-1,.5-2.2.9-3.2.4-.5.8,0,1.1.4.3,0,.2-.9.2-1.1-.3-.3-.5-.6-.9-.6-.9.4-.9,2.5-1.2,3.1q-.2-.3-.7-1.3c-.3-.4-1-1.6-1.5-1.5-.2.4-.3.9-.3,1.3,0,0,.5.3.9.7Z"/>
    <path class="st16" d="M601.2,272.2c.7-.2.8-1.3.7-1.9h-.1c-.1.3-.2.7-.6.7-.8-.4-.7-1.4-.7-2.2.2-.6.3-1.1.5-1.7h-.1c0,0-.2,0-.2,0-.4.8-.6,1.7-.7,2.6.1,1,.1,2.3,1.2,2.5Z"/>
    <path class="st16" d="M621.7,263.4l-1.7.9c-2.9,1.4-5.7,2.7-8.5,4.2-1.2.6-2.3,1.4-3.4,2.3-.1.3-.1.7,0,1,1.3-1.1,2.7-2,4.2-2.9q2.2-1.2,3.1-1.6c.1,0,.2,0,.2,0l5.9-2.9c.1-.2.6-1,.2-1Z"/>
    <path class="st16" d="M661.5,269.8c.5,0,.5-.5.7-1,0-.2,0-.8-.2-.9h-.1c0,.5-.2,1-.7.9-.4-.4-.2-1.4-.2-1.9s.4-1.3,0-1.4c-.3.6-.4,1.3-.4,2,0,.9,0,1.9.9,2.3Z"/>
    <path class="st16" d="M647.5,266.2h0c-.2.3-.2.6-.2.9-.1.4-.2.7-.3,1.1-.1.8-.3,1.4.5,1.7.5,0,.9-.2,1.2-.6.3-.7.3-1.4,0-2.1l-.3-.4c-.4,0-.7-.3-.9-.6ZM647.5,268.9c-.2,0-.3,0-.3-.3s.1-1,.4-1.2c.3.2.9.5,1,.9-.3.4-.7.6-1.1.6h0Z"/>
    <path class="st16" d="M628.6,269.7c.3,0,.4,0,.6-.4.1-.3.1-.7-.1-1h-.1c-.1,0-.1.2-.2.4-.3.2-.6,0-.7-.3,0-.7.3-1.4.3-2.1h-.1c-.5.8-1.1,3,.3,3.4Z"/>
    <path class="st16" d="M655,265h0c-.5.8-1.4,3.3-.1,3.7.2,0,.4-.3.5-.6,0,0,.3-1.2.1-1.2-.1.3-.3.7-.6.8-.9-.3-.1-2.2.1-2.8h0Z"/>
    <path class="st16" d="M634.6,257.2c.3.3.9,1,.9,1.4-.4,0-.7.9-.6,1.2.2,0,.3-.2.3-.3.2,0,.7,0,.8.3l-.6.2c-.7.4-.7.9-.8,1.6.4,2,1.7,3.6,2.4,5.6,0,.2,0,.5.2.7.5-1.2-.4-2.9-1-3.8-.4-.8-.8-1.7-1.1-2.5v-.5c.6-.3,1.2-.5,1.8-.6.1-.2.3-.5.3-.8-.1-.3-.5-.5-.5-.6l-.8-.4c0-.7.1-1.4.2-2.1.1-.3.2-.7.6-.7.2,0,.5.3.6.5.2,0,.2-.8.2-.9-.2-.3-.5-.4-.8-.5-.5,0-.6.4-.7.9-.1.6-.2,1.3-.2,1.9-.2,0-.5-.8-.7-1-.4-.5-.9-.9-1.5-1.3h-.1c-.1.4-.1.7-.1,1.1.3.2.6.4,1,.5h.2Z"/>
    <path class="st16" d="M610.1,266.4c-.4-.7-1.4-1.1-2-1.6-.5,0-1.1,1.3-1.3,1.7v.2c.6.5,1.2.9,1.8,1.4.4,0,.7-.6,1-.9h.1c0,0,.1,0,0-.2.1-.2.4-.4.4-.6Z"/>
    <path class="st16" d="M646.6,264.7c2.7-1.6,5.4-3.1,8.3-4.3.3,0,1.2-.8,1.4-.7.2-.3.3-.6.3-1-.5.2-1,.5-1.5.8-1.7.8-3.4,1.7-5.1,2.5-.1,0-.5.3-3.2,1.9-1,.7-1.6,1-1.7,2.3.4-.6.9-1.1,1.5-1.4Z"/>
    <path class="st16" d="M655.8,261.6c-.1.4-.2.8-.2,1.3.2.3.5.5.8.7.1,0,.3,0,.3-.2.5.6.8,1.3,1,2h.1q.2-.8.7-2.9c0,0,.1-.2.1-.2.4-.2.9.3,1,.6.3,0,.2-.8.1-1.1-.3-.3-.8-.8-1.2-.5-.4.9-.7,1.8-.9,2.8h0c-.2-.5-.4-.9-.7-1.4-.1-.2-.7-1.1-1.1-1.1Z"/>
    <path class="st16" d="M605.8,264c-.1.4-.2.8-.1,1.1.4-.2.7-.4,1-.7,2.2-1.3,4.4-2.4,6.6-3.6,1.1-.6,2.3-1.2,3.4-1.7,1.4-.6,2.8-1.2,4.1-1.8h.5c.3-.4.4-.9.4-1.3-.4,0-1.2.4-1.5.5-2.6,1.1-5.2,2.3-7.7,3.6-2.2,1.3-4.3,2.5-6.5,3.6,0,0-.1,0-.2.2Z"/>
    <path class="st16" d="M615.7,263c.1.7.2,1,.7,1.4.6-.2.9-.9.7-1.5h-.1c0,0-.1,0-.1.2-.3.4-.5.3-.8,0-.3-.9.5-1.6.5-2.5-.5.2-.8,2-.9,2.5Z"/>
    <path class="st16" d="M592.6,264.8c.4,0,.4,0,.6-.4s.3-1.3.1-1.6h-.1c-.1.3-.1.8-.5.8-.7-.3-.8-1.1-.8-1.8s.3-1.3.3-1.4h-.1c-.6,1.2-1.1,3.5.5,4.3Z"/>
    <path class="st16" d="M646.4,258.8c.1.2.2.4.4.7.3.6.4,1.3.4,2-.1.2-.3.6,0,.8.8-.3.5-2.3.4-2.9-.1-.4-.3-.8-.5-1.1q-.4-.5-.8-1c-.2-.2-.9-.9-1.2-.8-.2.3-.2.7-.2,1,.5.3,1,.8,1.5,1.3Z"/>
    <path class="st16" d="M597.8,257.6q0,0,.4.4c.8.9,1.4,2,1.7,3.2v.8c0,.5-.1,1-.1,1.1h.2c0,0,.2,0,.2,0,.4-1,.4-2.2.1-3.2-.4-1.3-1.1-2.4-2.1-3.3-.3,0-.5.8-.5.9s0,0,.1.2Z"/>
    <path class="st16" d="M650.4,259.5c.2,0,.4,0,.5,0l.5-.2c.4-.4.5-1,.2-1.5h-.1c-.2.3-.2.7-.6.7-.6-.3-.5-.4-.4-1.1.1-.5.5-1.1.3-1.6h-.1c-.7,1-.9,2.2-.5,3.3l.2.3Z"/>
    <path class="st16" d="M606.2,258.1h.3c.4.4.6,1.2.9,1.8h.2c.1-.9.3-1.8.5-2.6.2-.4.4-.9.9-.5.1,0,.3.5.4.4.1-.3.2-.7.1-1l-.5-.5c-1.1-.7-1.5,2.5-1.6,3h0l-.5-1.2c-.3-.4-.5-.9-.9-1.1-.2,0-.4-.4-.6-.3-.1.4-.1.7-.1,1.1,0,.2.7.9.9.9Z"/>
    <path class="st16" d="M627.2,259h.3c.3-.4.5-1,.4-1.5-.3,0-.2.5-.6.6-1.1-.3-.4-1.7-.3-2.4h-.1c-.3.6-.4,1.2-.5,1.9.2.7.2,1,.8,1.4Z"/>
    <path class="st16" d="M613.4,258.8h.2c.2-.4.5-1.1.3-1.4-.1,0-.2.3-.3.4-.9,0-.3-1.4-.2-1.9h-.1c0,0-.1,0-.1,0-.4.9-1,2.6.2,3Z"/>
  </g>
</svg>