<svg xmlns="http://www.w3.org/2000/svg" width="867.705" height="189" viewBox="0 0 867.705 189">
  <g id="logo_-_color_-_EN" data-name="logo - color - EN" transform="translate(-3607.264 -2040)">
    <g id="Group_9687" data-name="Group 9687" transform="translate(392.092 9)">
      <path id="Path_2" data-name="Path 2" d="M4.41.14q-.14-24.01-.42-36.89a29.574,29.574,0,0,1,7.42-.7h16.8a12.373,12.373,0,0,1,0,4.9H10.01v11.34H25.69a9.685,9.685,0,0,1,0,4.9H10.01V-.14A13.413,13.413,0,0,1,4.41.14Zm32.41,0q0-12.74-.42-25.34a14.215,14.215,0,0,1,5.39-1.05q0,1.82-.07,3.08a20.887,20.887,0,0,1,3.85-3.01,10.083,10.083,0,0,1,3.57-.63,14.378,14.378,0,0,1,3.5.42,13.872,13.872,0,0,1-.35,5.11,17.219,17.219,0,0,0-4.69-.56,10.44,10.44,0,0,0-5.39,1.89V-.14A12.248,12.248,0,0,1,36.82.14ZM70.21.98q-5.53,0-8.47-2.31A7.654,7.654,0,0,1,58.8-7.7q0-8.05,12.74-8.05a28.557,28.557,0,0,1,5.32.42v-1.19q0-2.94-1.785-4.165T69.44-21.91a15.944,15.944,0,0,0-8.47,2.1,7.58,7.58,0,0,1-1.82-4.41,25.063,25.063,0,0,1,11.62-2.66q11.55,0,11.55,10.08V-.14a16.691,16.691,0,0,1-4.69.28L77.35-2.1Q72.73.98,70.21.98ZM71.4-3.57A14.566,14.566,0,0,0,77-4.76l-.07-6.86a49.485,49.485,0,0,0-5.18-.28,15.365,15.365,0,0,0-7,1.26,5.251,5.251,0,0,0-.56,2.38,3.8,3.8,0,0,0,2.03,3.535A10.381,10.381,0,0,0,71.4-3.57ZM93.59.14q0-12.74-.42-25.34a14.215,14.215,0,0,1,5.39-1.05q0,1.54-.07,2.52,4.9-3.15,7.21-3.15,11.76,0,11.76,11.48V-.14a12.248,12.248,0,0,1-5.39.28L112-13.51q-.07-4.69-1.89-6.51t-5.74-1.82a15.294,15.294,0,0,0-5.39,1.19V-.14A12.248,12.248,0,0,1,93.59.14Zm47.53.84q-6.93,0-10.57-3.815T126.91-12.95q0-6.44,3.535-10.15t10.115-3.71a18.071,18.071,0,0,1,8.54,1.82,10.878,10.878,0,0,1-1.47,4.55,14.322,14.322,0,0,0-7.42-1.68A14.063,14.063,0,0,0,134.33-21a11.339,11.339,0,0,0-2.1,7,10.107,10.107,0,0,0,2.52,7.42,9.191,9.191,0,0,0,7,2.73,13.4,13.4,0,0,0,6.44-1.54,10.868,10.868,0,0,1,1.26,4.55A19.543,19.543,0,0,1,141.12.98ZM158.76.14q-.14-24.15-.63-40.25a12.559,12.559,0,0,1,6.02-1.54v17.43q4.34-2.66,6.72-2.66,11.76,0,11.76,11.48V-.14a11.53,11.53,0,0,1-5.32.28l-.14-13.65q-.07-4.69-1.855-6.51t-5.775-1.82a15.294,15.294,0,0,0-5.39,1.19V-.14A12.248,12.248,0,0,1,158.76.14Zm36.96-32.13-4.13-5.39a27.121,27.121,0,0,1,5.53-4.13l4.06,5.53ZM193.9.14q0-12.74-.42-25.34a13.749,13.749,0,0,1,5.81-.98V-.14A12.248,12.248,0,0,1,193.9.14Zm24.43.84q-5.95,0-9.52-2.38a12.521,12.521,0,0,1,1.47-4.62q3.01,2.17,8.54,2.17a12.835,12.835,0,0,0,5.32-.91,5.039,5.039,0,0,0,.35-1.82q0-2.31-4.13-3.78l-2.66-.98a24.4,24.4,0,0,1-6.685-3.325,5.573,5.573,0,0,1-1.785-4.515,6.441,6.441,0,0,1,3.01-5.705q3.01-1.995,8.33-2a17.466,17.466,0,0,1,7.77,1.47,9.877,9.877,0,0,1-1.19,4.83,17.564,17.564,0,0,0-7.35-1.47,12.176,12.176,0,0,0-4.97.56,3.425,3.425,0,0,0-.49,1.75,2.388,2.388,0,0,0,.98,1.96,13.614,13.614,0,0,0,3.43,1.68l2.66.98a20.265,20.265,0,0,1,6.23,3.29,5.949,5.949,0,0,1,1.89,4.69,6.871,6.871,0,0,1-3.045,6.02A14.129,14.129,0,0,1,218.33.98Zm36.12-27.86q5.88,0,9.065,3.815T266.07-12.32H246.05a8.526,8.526,0,0,0,2.975,6.195,10.587,10.587,0,0,0,6.9,2.135,16.764,16.764,0,0,0,8.54-2.03,13.5,13.5,0,0,1,1.33,4.69A23.049,23.049,0,0,1,255.22.98q-6.86,0-10.605-3.71T240.87-13.02q0-6.37,3.5-10.115T254.45-26.88Zm-8.33,10.71h14.49a5.692,5.692,0,0,0-2.03-4.62,8.03,8.03,0,0,0-5.11-1.54,11.868,11.868,0,0,0-5.32,1.05A11.227,11.227,0,0,0,246.12-16.17ZM310.45.98Q301.7.98,296.9-4.41T292.11-18.76q0-9.31,4.97-14.49t13.86-5.18a20.206,20.206,0,0,1,10.85,2.66,9.359,9.359,0,0,1-2.17,4.83,17.829,17.829,0,0,0-9.1-2.31,19.043,19.043,0,0,0-8.61,1.82q-3.78,4.97-3.78,12.67,0,6.86,3.43,10.745t9.87,3.885a15.6,15.6,0,0,0,8.61-2.38A12.643,12.643,0,0,1,322-2.03Q317.59.98,310.45.98ZM342.3-26.88q5.88,0,9.065,3.815T353.92-12.32H333.9a8.526,8.526,0,0,0,2.975,6.195,10.587,10.587,0,0,0,6.9,2.135,16.764,16.764,0,0,0,8.54-2.03,13.5,13.5,0,0,1,1.33,4.69A23.049,23.049,0,0,1,343.07.98q-6.86,0-10.605-3.71T328.72-13.02q0-6.37,3.5-10.115T342.3-26.88Zm-8.33,10.71h14.49a5.692,5.692,0,0,0-2.03-4.62,8.03,8.03,0,0,0-5.11-1.54A11.868,11.868,0,0,0,336-21.28,11.226,11.226,0,0,0,333.97-16.17ZM364,.14q0-12.74-.42-25.34a14.215,14.215,0,0,1,5.39-1.05q0,1.54-.07,2.52,4.9-3.15,7.21-3.15,11.76,0,11.76,11.48V-.14a12.248,12.248,0,0,1-5.39.28l-.07-13.65q-.07-4.69-1.89-6.51t-5.74-1.82a15.294,15.294,0,0,0-5.39,1.19V-.14A12.248,12.248,0,0,1,364,.14ZM411.46.7q-9.31,0-9.31-9.38l-.14-12.53h-6.37a9.959,9.959,0,0,1,0-4.69h6.3l-.28-8.05a12.283,12.283,0,0,1,5.81-1.4v9.45h10.08a13.2,13.2,0,0,1,0,4.69H407.47v11.06a7.014,7.014,0,0,0,1.155,4.48q1.155,1.4,3.955,1.4a12.813,12.813,0,0,0,4.06-.7,17.112,17.112,0,0,1,.63,4.9A21.812,21.812,0,0,1,411.46.7Zm26.81-27.58q5.88,0,9.065,3.815T449.89-12.32H429.87a8.526,8.526,0,0,0,2.975,6.195A10.587,10.587,0,0,0,439.74-3.99a16.764,16.764,0,0,0,8.54-2.03,13.5,13.5,0,0,1,1.33,4.69A23.049,23.049,0,0,1,439.04.98q-6.86,0-10.605-3.71T424.69-13.02q0-6.37,3.5-10.115T438.27-26.88Zm-8.33,10.71h14.49a5.692,5.692,0,0,0-2.03-4.62,8.03,8.03,0,0,0-5.11-1.54,11.868,11.868,0,0,0-5.32,1.05A11.226,11.226,0,0,0,429.94-16.17ZM459.97.14q0-12.74-.42-25.34a14.215,14.215,0,0,1,5.39-1.05q0,1.82-.07,3.08a20.886,20.886,0,0,1,3.85-3.01,10.083,10.083,0,0,1,3.57-.63,14.379,14.379,0,0,1,3.5.42,13.871,13.871,0,0,1-.35,5.11,17.22,17.22,0,0,0-4.69-.56,10.44,10.44,0,0,0-5.39,1.89V-.14A12.248,12.248,0,0,1,459.97.14Z" transform="translate(3607 2186.594)" fill="#76777b"/>
      <path id="Path_1" data-name="Path 1" d="M27.812-9.316q1.224.68,4.046,1.972t4.658,2.21a12.382,12.382,0,0,1,3.4,2.55A4.966,4.966,0,0,1,41.48.884q0,5.1-6.63,9.588A27.051,27.051,0,0,1,19.312,14.96q-7.548,0-11.8-3.876T3.264.272a33.552,33.552,0,0,1,1.564-9.52,18.1,18.1,0,0,1,5.44.952A22.438,22.438,0,0,0,9.18-1.564q0,4.828,3.2,7.276A13.5,13.5,0,0,0,20.808,8.16a23.413,23.413,0,0,0,15.98-5.712Q35.972,2.04,32.878.68T27.812-1.666A16.471,16.471,0,0,1,24-4.352a4.769,4.769,0,0,1-1.836-3.4q0-5.032,5.95-9.792a27.246,27.246,0,0,1,13.77-5.78,21.137,21.137,0,0,1-.952,7.072Q32.64-14.484,27.812-9.316Zm-8.3,32.164a25.1,25.1,0,0,1,5.44-4.284L29.24,24,23.8,28.288,20.332,24,14.96,28.288l-4.352-5.372a22.014,22.014,0,0,1,5.508-4.352Q18.224,21.08,19.516,22.848ZM47.124,14.96a14.821,14.821,0,0,1-5.372-5.576Q53.788,3.128,57.324-4.692a41.976,41.976,0,0,0-5.916-14.552,15.57,15.57,0,0,1,6.868-3.4A47.219,47.219,0,0,1,61.2-14.28a37.3,37.3,0,0,1,1.292,8.5q0,5.236-4.25,10.982A36.459,36.459,0,0,1,47.124,14.96ZM71.74,0q-.884-19.38-2.176-39.984a13.893,13.893,0,0,1,7.82-2.108V-7.276H82.62q.408,0,.408.34v6.6q0,.34-.408.34Zm44.812-7.276a.3.3,0,0,1,.34.34v6.6a.3.3,0,0,1-.34.34,10.972,10.972,0,0,1-4.08-.782,5.588,5.588,0,0,1-2.788-2.074A19.832,19.832,0,0,1,107.1,0H82.688a.3.3,0,0,1-.34-.34v-6.6a.3.3,0,0,1,.34-.34h21.556a5.944,5.944,0,0,0,.136-1.5q0-4.148-4.76-7.14t-12.376-2.72a20.13,20.13,0,0,1,1.428-7.48q9.452-.068,15.606,4.522t6.154,11.73v1.02A10.744,10.744,0,0,0,116.552-7.276ZM93.568,11.152A22.014,22.014,0,0,1,99.076,6.8l4.284,5.44-5.44,4.284Zm35.088-40.6-5.1,4.012-4.42-5.372a24.687,24.687,0,0,1,5.576-4.42q1.836,2.312,3.2,4.08a32.828,32.828,0,0,1,5.236-4.08l4.284,5.508-5.44,4.284Zm10.2,22.168a.3.3,0,0,1,.34.34v6.6a.3.3,0,0,1-.34.34q-7.412,0-10.608-4.08A42.663,42.663,0,0,1,125.8,0h-9.316a.3.3,0,0,1-.34-.34v-6.6a.3.3,0,0,1,.34-.34h6.664a50.276,50.276,0,0,0,3.06-12.24,13.91,13.91,0,0,1,7.072,1.224,50.409,50.409,0,0,1-3.264,10.064Q132.668-7.276,138.856-7.276ZM138.788,0a.3.3,0,0,1-.34-.34v-6.6a.3.3,0,0,1,.34-.34h5.78q-.884-20.332-1.7-32.708a14.021,14.021,0,0,1,7.888-2.108L150.688,0Zm21.828,0q-.068-6.664-2.176-39.984a13.893,13.893,0,0,1,7.82-2.108v40.12A11.392,11.392,0,0,1,162.112,0Zm33.592-27.812-4.352-5.372a22.014,22.014,0,0,1,5.508-4.352l4.284,5.44Zm-5.78,42.772a14.821,14.821,0,0,1-5.372-5.576q12.036-6.256,15.572-14.076a41.976,41.976,0,0,0-5.916-14.552,15.57,15.57,0,0,1,6.868-3.4A47.218,47.218,0,0,1,202.5-14.28a37.3,37.3,0,0,1,1.292,8.5q0,5.236-4.25,10.982A36.459,36.459,0,0,1,188.428,14.96ZM213.044,0q-.884-19.38-2.176-39.984a13.893,13.893,0,0,1,7.82-2.108V-7.276h5.236q.408,0,.408.34v6.6q0,.34-.408.34Zm33.32-7.276a.3.3,0,0,1,.34.34v6.6a.3.3,0,0,1-.34.34q-7.412,0-10.608-4.08A42.664,42.664,0,0,1,233.308,0h-9.316a.3.3,0,0,1-.34-.34v-6.6a.3.3,0,0,1,.34-.34h6.664a50.275,50.275,0,0,0,3.06-12.24,13.91,13.91,0,0,1,7.072,1.224,50.409,50.409,0,0,1-3.264,10.064Q240.176-7.276,246.364-7.276ZM234.8,11.016a25.1,25.1,0,0,1,5.44-4.284l4.284,5.44-5.44,4.284-3.468-4.284-5.372,4.284L225.9,11.084A22.014,22.014,0,0,1,231.4,6.732Q233.512,9.248,234.8,11.016Zm23.664-40.46-5.1,4.012-4.42-5.372a24.688,24.688,0,0,1,5.576-4.42q1.836,2.312,3.2,4.08a32.828,32.828,0,0,1,5.236-4.08l4.284,5.508-5.44,4.284Zm10.2,22.168a.3.3,0,0,1,.34.34v6.6a.3.3,0,0,1-.34.34q-7.412,0-10.608-4.08A42.665,42.665,0,0,1,255.612,0H246.3a.3.3,0,0,1-.34-.34v-6.6a.3.3,0,0,1,.34-.34h6.664a50.276,50.276,0,0,0,3.06-12.24,13.91,13.91,0,0,1,7.072,1.224,50.409,50.409,0,0,1-3.264,10.064Q262.48-7.276,268.668-7.276ZM291.448.68a35.124,35.124,0,0,1-13.192-2.788,16.582,16.582,0,0,1-.34-2.448A11.223,11.223,0,0,1,268.6,0a.3.3,0,0,1-.34-.34v-6.6a.3.3,0,0,1,.34-.34q4.692,0,6.256-3.3t1.768-10.506a18.316,18.316,0,0,1,3.876-4.692,19.228,19.228,0,0,1,11.9,3.842,12.646,12.646,0,0,1,5.1,10.71,20.941,20.941,0,0,1-.952,6.256A26.492,26.492,0,0,1,291.448.68ZM290.156-6.6a11.052,11.052,0,0,0,.544-3.74,7.164,7.164,0,0,0-2.38-5.644,10.54,10.54,0,0,0-6.256-2.448q-.544,6.664-2.176,9.656A23.53,23.53,0,0,0,290.156-6.6ZM302.328,3.74a42.252,42.252,0,0,1-.272-7.276q14.416-.68,23.324-2.992-1.36-24-2.04-35.02a14.021,14.021,0,0,1,7.888-2.108L331.16-5.3a18.244,18.244,0,0,1-3.06,4.76A114.924,114.924,0,0,1,302.328,3.74Zm12.1-11.016q-5.168-14.892-8.228-23.6a11.172,11.172,0,0,1,6.324-3.944l6.256,23.188a44.143,44.143,0,0,1-3.264,4.352ZM341.088,0q-.068-6.664-2.176-39.984a13.892,13.892,0,0,1,7.82-2.108v40.12A11.392,11.392,0,0,1,342.584,0ZM380.12-32.1l-5.44,4.284-4.352-5.372a22.013,22.013,0,0,1,5.508-4.352Zm10.268,24.82a.3.3,0,0,1,.34.34v6.6a.3.3,0,0,1-.34.34Q385.9,0,383.86-2.448a22.907,22.907,0,0,1-5.168,9.35A38.627,38.627,0,0,1,368.9,14.96a14.821,14.821,0,0,1-5.372-5.576Q375.564,3.128,379.1-4.692a41.976,41.976,0,0,0-5.916-14.552,15.57,15.57,0,0,1,6.868-3.4A43.289,43.289,0,0,1,384-8.976,11.181,11.181,0,0,0,390.388-7.276ZM404.94-24.14q7.752,0,12.614,4.25t4.862,12.138A29.493,29.493,0,0,1,421.26,0H390.388a.3.3,0,0,1-.34-.34v-6.6a.3.3,0,0,1,.34-.34H416.16V-7.82q0-4.964-3.468-7.378T401.88-17.612a38.059,38.059,0,0,0-6.12.476,9.573,9.573,0,0,1-3.264-5.032,106.593,106.593,0,0,1,9.452-11.118A114.439,114.439,0,0,1,413.032-43.52a9.416,9.416,0,0,1,6.8,4.08,144.013,144.013,0,0,0-19.856,15.912A16.2,16.2,0,0,1,404.94-24.14ZM449.276-7.276a.3.3,0,0,1,.34.34v6.6a.3.3,0,0,1-.34.34q-4.488,0-6.528-2.448A22.907,22.907,0,0,1,437.58,6.9a38.627,38.627,0,0,1-9.792,8.058,14.821,14.821,0,0,1-5.372-5.576q12.036-6.256,15.572-14.076a41.976,41.976,0,0,0-5.916-14.552,15.57,15.57,0,0,1,6.868-3.4,43.289,43.289,0,0,1,3.944,13.668A11.181,11.181,0,0,0,449.276-7.276ZM472.124.68a35.124,35.124,0,0,1-13.192-2.788,16.582,16.582,0,0,1-.34-2.448A11.223,11.223,0,0,1,449.276,0a.3.3,0,0,1-.34-.34v-6.6a.3.3,0,0,1,.34-.34q4.692,0,6.256-3.3T457.3-21.08a18.316,18.316,0,0,1,3.876-4.692,19.228,19.228,0,0,1,11.9,3.842,12.646,12.646,0,0,1,5.1,10.71,20.941,20.941,0,0,1-.952,6.256A26.492,26.492,0,0,1,472.124.68ZM470.832-6.6a11.052,11.052,0,0,0,.544-3.74A7.164,7.164,0,0,0,469-15.98a10.54,10.54,0,0,0-6.256-2.448q-.544,6.664-2.176,9.656A23.53,23.53,0,0,0,470.832-6.6Z" transform="translate(3604 2106.656)" fill="#007297"/>
    </g>
    <rect id="Rectangle_1" data-name="Rectangle 1" width="3" height="189" transform="translate(3936.356 2040)" fill="#007297"/>
    <g id="Group_9684" data-name="Group 9684" transform="translate(3607.264 2040)">
      <path id="Union_3" data-name="Union 3" d="M-4652-1438.538a10.181,10.181,0,0,1-4.92-3.6,12.89,12.89,0,0,1-2.085-7.067l0-5.486,14.462-14.852v5.564l-4.85,4.982c.015,9.668,2.873,11.645,9.939,11.645h79.083v-5.458c-.07-4.55-4.4-11.866-4.4-11.866l10.017-9.735s1.49,2.207,2.14,3.358c2.76,4.956,2.274,10.565,2.274,16.016v4.213l-14.745,13.253h-76.846c-.9.007-1.811.025-2.715.025A21.364,21.364,0,0,1-4652-1438.538Zm115.857-1.069c-3.127-2.027-4.288-5.577-4.408-9.195v-57.453l9.146-9.369v56.866a13.45,13.45,0,0,0,1.577,6.77c2.958,5.022,8.984,5.022,14.092,5.022a11.547,11.547,0,0,1-.258-2.382v-22.388l9.141-9.385v22.4a11.546,11.546,0,0,0,4.262,8.868,12.273,12.273,0,0,0,6.567,2.882,12.738,12.738,0,0,1-.27-2.381v-17.709l9.152-9.369v17.709a11.484,11.484,0,0,0,4.249,8.868,12.518,12.518,0,0,0,6.488,2.882,19.044,19.044,0,0,1-.179-2.381v-22.379l9.139-9.385v22.355a13.314,13.314,0,0,0,1.59,6.77c2.953,5.021,8.923,5.021,14.015,5.021a15.715,15.715,0,0,1-.145-2.327V-1464.2l9.138-9.37v14.8a13.428,13.428,0,0,0,1.585,6.77c2.956,5.022,8.964,5.022,14.066,5.022a11.12,11.12,0,0,1-.27-2.383v-15.761l17.415-18.278h6.914c11.66,0,13.1,8.625,13.191,11,.011.23-.027,15.733-.027,15.733l-18.961,19.092h-2.139c-6.256,0-14.066-2.193-15.989-8.639-.258.368-.511.747-.579.828-.985,1.191-2.068,2.315-3.141,3.412s-2.175,2.192-3.327,3.208c-.2.177-1.112,1.137-1.56,1.137h-3.632a15.645,15.645,0,0,1-8.282-2.058,9.688,9.688,0,0,1-4.067-6.418c-.226.338-.444.638-.511.724-.987,1.191-2.07,2.315-3.141,3.41s-2.171,2.193-3.328,3.209c-.2.177-1.109,1.138-1.554,1.138h-3.631a15.639,15.639,0,0,1-8.284-2.058,9.754,9.754,0,0,1-4.064-6.418l-.5.724c-1,1.191-2.058,2.315-3.142,3.411s-2.179,2.192-3.328,3.221c-.219.162-1.127,1.138-1.574,1.138a12.1,12.1,0,0,1-7.235-2.924,11.581,11.581,0,0,1-3.8-5.728,7.246,7.246,0,0,0-.624.882c-.993,1.191-2.074,2.315-3.145,3.411s-2.178,2.192-3.326,3.221c-.219.162-1.121,1.138-1.57,1.138a12.2,12.2,0,0,1-7.237-2.924,11.535,11.535,0,0,1-3.8-5.756l-.725.975c-.987,1.192-2.045,2.316-3.123,3.412s-2.186,2.192-3.335,3.208c-.211.177-1.119,1.138-1.568,1.138h-3.626c-.171.006-.339.009-.516.009a15.7,15.7,0,0,1-7.813-2.063Zm117.81-19.146c.083,3.474-.421,10.832,8.208,10.832l11.034.013v-11.267c0-8.1-1.488-15.028-6.065-15.028h-13.168Zm-200.578-22.843c-.312-.257,8.857-9.071,8.857-9.071s8.867,4.158,8.974,8.421c1.307-1.665,8.652-8.719,8.652-8.719s8.991,4.143,8.991,8.448-7.71,9.071-7.71,9.071l-9.966-8.354c-.459,4.184-7.669,8.706-7.669,8.706Zm130.711-6.526c-.3-.257,8.439-8.638,8.439-8.638s8.567,4.034,8.567,8.125-7.338,8.637-7.338,8.637Zm32.78-.012c-.3-.258,8.42-8.652,8.42-8.652s8.587,4.061,8.587,8.124c0,4.089-7.349,8.652-7.349,8.652Zm-54.513,0c-.3-.258,8.421-8.652,8.421-8.652s8.572,4.061,8.572,8.124c0,4.089-7.336,8.652-7.336,8.652Zm8.585-16.5c-.3-.257,8.438-8.639,8.438-8.639s8.569,4.061,8.569,8.125c0,4.088-7.341,8.639-7.341,8.639Zm-51.664-20.227,10.833-10.725.786.257,15.6,5.228,7.244-6.891v3.452l-11.106,10.79-.719-.23-15.939-5.2-6.7,6.7Z" transform="translate(4659.003 1536.99)" fill="#007297"/>
      <g id="Group_2" data-name="Group 2" transform="translate(0 109.951)">
        <path id="Path_1-2" data-name="Path 1" d="M109.1,101.673a9.477,9.477,0,0,0-5.632-1.53H94.663a2.45,2.45,0,0,1-2.829-2.708v-1.11A2.708,2.708,0,0,1,92.4,94.39a2.49,2.49,0,0,1,1.787-.579h15.828V88.12H95.13a16.977,16.977,0,0,0-3.763.379,6.367,6.367,0,0,0-2.789,1.436,6.188,6.188,0,0,0-1.692,2.708,13.148,13.148,0,0,0-.514,3.954v1.246c0,2.708.771,4.7,2.275,5.789a10.018,10.018,0,0,0,5.971,1.57H103.3a2.708,2.708,0,0,1,1.9.579,2.058,2.058,0,0,1,.609,1.666v2.171c0,1.666-.724,2.356-2.505,2.356H87.047v5.66H103.47a7.46,7.46,0,0,0,6.065-2.26,9.952,9.952,0,0,0,1.815-6.459v-1.787A6.337,6.337,0,0,0,109.1,101.673Z" transform="translate(30.574 -78.777)" fill="#78787b"/>
        <path id="Path_2-2" data-name="Path 2" d="M148.757,88.11H136.571v5.944h12.185c2.247,0,3.249,1.158,3.249,3.8V99.13H142.3c-4.765,0-7.3,2.437-7.3,7.041v4.067a7.718,7.718,0,0,0,1.8,5.5,7.257,7.257,0,0,0,5.5,1.923h15.232V97.689C157.536,91.424,154.5,88.11,148.757,88.11Zm3.249,16.248v7.637h-9.4c-1.592,0-2.234-.69-2.234-2.356v-2.722c0-1.747.65-2.46,2.234-2.46Z" transform="translate(47.78 -78.781)" fill="#78787b"/>
        <path id="Path_3" data-name="Path 3" d="M157.259,94.4h3.873l1.447-10.792H155.81Z" transform="translate(55.153 -80.374)" fill="#78787b"/>
        <path id="Path_4" data-name="Path 4" d="M178.4,88H166.212v5.958H178.4c2.247,0,3.249,1.178,3.249,3.818v1.272h-9.735c-4.776,0-7.3,2.424-7.3,7.028v4.067a7.744,7.744,0,0,0,1.8,5.5,7.237,7.237,0,0,0,5.5,1.923h15.232V97.614C187.178,91.344,184.1,88,178.4,88Zm3.249,16.248v7.631h-9.4c-1.592,0-2.247-.69-2.247-2.356V106.7c0-1.747.65-2.45,2.247-2.45Z" transform="translate(58.263 -78.82)" fill="#78787b"/>
        <path id="Path_5" data-name="Path 5" d="M201.991,95.816V90.536h-6.838V81.22H189.48v29.123c0,8.123,4.563,9.748,8.394,9.748h4.062V114.54h-3.628c-1.447,0-3.1-.46-3.1-4.062V95.816Z" transform="translate(67.071 -81.22)" fill="#78787b"/>
        <path id="Path_6" data-name="Path 6" d="M52.507,88.06h-6.92a9.139,9.139,0,0,0-9.017,9.22v11.156a9.139,9.139,0,0,0,9.017,9.235h6.919a9.139,9.139,0,0,0,9.017-9.235V97.28a9.139,9.139,0,0,0-9.017-9.22Zm3.473,9.22v11.156A3.52,3.52,0,0,1,52.507,112h-6.92a3.521,3.521,0,0,1-3.473-3.562V97.28a3.507,3.507,0,0,1,3.473-3.547h6.919a3.507,3.507,0,0,1,3.473,3.547Z" transform="translate(12.946 -78.799)" fill="#78787b"/>
        <path id="Path_7" data-name="Path 7" d="M84.847,100.255c0-8.355-5.619-12.185-10.832-12.185H61.83v29.523h5.644V93.771h6.58a5.619,5.619,0,0,1,5.253,5.415v18.427h5.415V100.255ZM84.021,100.255Z" transform="translate(21.888 -78.795)" fill="#78787b"/>
        <path id="Path_8" data-name="Path 8" d="M42.041,100.285h0c0-7.473-4.508-11.288-9.166-12.023l-.094-.122H26.89l.068.081a10.832,10.832,0,0,0-6.851,3.6,10.724,10.724,0,0,0-8.03-3.724H0v29.5H5.538V93.76h6.538a5.415,5.415,0,0,1,5.266,5.266V117.6h5.538V99.026a5.266,5.266,0,0,1,5.253-5.266h3.114A5.632,5.632,0,0,1,36.5,99.175V117.6h5.483Z" transform="translate(0.002 -78.784)" fill="#78787b"/>
        <path id="Path_9" data-name="Path 9" d="M134.981,102.721h0c0-8.355-5.619-12.185-10.832-12.185H117.57V81.22H112.1v38.818h5.538V96.2h6.58a5.619,5.619,0,0,1,5.253,5.415v18.427h5.511Z" transform="translate(39.682 -81.22)" fill="#78787b"/>
        <path id="Path_18" data-name="Path 18" d="M4.509,134.979h0L3.3,134.668a12.521,12.521,0,0,1-1.355-.42,1.1,1.1,0,0,1-.515-.4,1.191,1.191,0,0,1-.136-.579v-.217a1.07,1.07,0,0,1,.434-.826,2.045,2.045,0,0,1,1.355-.366,2.315,2.315,0,0,1,1.447.392,1.355,1.355,0,0,1,.473,1.084v.122H6.238v-.122a2.8,2.8,0,0,0-.162-.988,2.221,2.221,0,0,0-.488-.745,2.385,2.385,0,0,0-.7-.473,3.477,3.477,0,0,0-.852-.271,5.412,5.412,0,0,0-.948-.081,3.548,3.548,0,0,0-2.139.609A1.99,1.99,0,0,0,0,133.042v.109A2.532,2.532,0,0,0,.38,134.6a2.222,2.222,0,0,0,1.355.852c.094,0,.434.122,1.206.311a10.577,10.577,0,0,1,1.355.434,1.082,1.082,0,0,1,.515.379,1.191,1.191,0,0,1,.136.609v.271a1.029,1.029,0,0,1-.434.812,1.95,1.95,0,0,1-1.287.366,2.329,2.329,0,0,1-1.462-.392,1.272,1.272,0,0,1-.407-1.07v-.392H0v.392a2.857,2.857,0,0,0,.176.988,2.171,2.171,0,0,0,.488.731,2.712,2.712,0,0,0,.7.488,3.461,3.461,0,0,0,.852.258,5.5,5.5,0,0,0,.961.081,3.618,3.618,0,0,0,2.234-.6,1.964,1.964,0,0,0,.852-1.651v-.2a2.6,2.6,0,0,0-.379-1.436,2.3,2.3,0,0,0-1.381-.852Z" transform="translate(0.002 -63.678)" fill="#78787b"/>
        <path id="Path_19" data-name="Path 19" d="M16.2,132.432a2.7,2.7,0,0,0-.786.3,2.232,2.232,0,0,0-.663.556,2.424,2.424,0,0,0-.447.852,3.926,3.926,0,0,0-.162,1.178v.745a4.062,4.062,0,0,0,.162,1.178,2.425,2.425,0,0,0,.447.852,2.357,2.357,0,0,0,.65.556,3,3,0,0,0,.8.3,3.542,3.542,0,0,0,.868.1h2.708V132.27H17.065a3.553,3.553,0,0,0-.868.162Zm-.893,3.155a2.559,2.559,0,0,1,.434-1.666,1.638,1.638,0,0,1,1.355-.488h1.585v4.524H17.065a1.638,1.638,0,0,1-1.355-.488,2.605,2.605,0,0,1-.434-1.679Z" transform="translate(5.007 -63.149)" fill="#78787b"/>
        <rect id="Rectangle_1-2" data-name="Rectangle 1" width="1.165" height="9.18" transform="translate(26.987 66.71)" fill="#78787b"/>
        <rect id="Rectangle_2" data-name="Rectangle 2" width="1.165" height="9.18" transform="translate(30.304 66.71)" fill="#78787b"/>
        <path id="Path_20" data-name="Path 20" d="M27.28,134.113a1.125,1.125,0,0,1-.379-.92v-.2a.948.948,0,0,1,.407-.8,1.908,1.908,0,0,1,1.206-.326,2.075,2.075,0,0,1,1.219.311.976.976,0,0,1,.392.812v.488h1.158v-.493a2.926,2.926,0,0,0,0-.473,2.277,2.277,0,0,0-.23-.569,1.9,1.9,0,0,0-.473-.569,2.044,2.044,0,0,0-.826-.42,3.644,3.644,0,0,0-1.206-.177,3.722,3.722,0,0,0-1.219.177,2.354,2.354,0,0,0-.826.434,1.853,1.853,0,0,0-.46.569,1.814,1.814,0,0,0-.271,1.029v.243a2.243,2.243,0,0,0,0,.434,2.17,2.17,0,0,0,.136.473,2.22,2.22,0,0,0,.311.541,2.1,2.1,0,0,0,.352.339,2.071,2.071,0,0,0-.839,1.8v.407a2.612,2.612,0,0,0,.081.663,2.086,2.086,0,0,0,.3.637,2.058,2.058,0,0,0,.541.541,2.831,2.831,0,0,0,.812.366,3.861,3.861,0,0,0,1.1.136h2.708V135.5h.975v-1.1H28.507a1.924,1.924,0,0,1-1.227-.29Zm1.287,4.373a1.8,1.8,0,0,1-1.246-.379,1.123,1.123,0,0,1-.42-.92v-.366a1.232,1.232,0,0,1,.366-.92,1.355,1.355,0,0,1,.988-.366h1.909v2.952Z" transform="translate(9.109 -63.679)" fill="#78787b"/>
        <path id="Path_21" data-name="Path 21" d="M37.272,137.708l-2.45-6.742-.027-.081H32.98v8.638h1.259v-6.77l2.424,6.689.027.081h1.158l2.491-6.81v6.81h1.246v-8.631H39.75Z" transform="translate(11.675 -63.641)" fill="#78787b"/>
        <path id="Path_22" data-name="Path 22" d="M45.95,133.167h0a2.172,2.172,0,0,0-.663-.541,2.879,2.879,0,0,0-.8-.311,4.062,4.062,0,0,0-1.719,0,3.059,3.059,0,0,0-.8.311,2.17,2.17,0,0,0-.663.556,2.52,2.52,0,0,0-.434.852,3.873,3.873,0,0,0-.162,1.178v1.013a3.872,3.872,0,0,0,.162,1.178,2.708,2.708,0,0,0,.434.868,2.624,2.624,0,0,0,.663.556,3.25,3.25,0,0,0,.8.311,4.415,4.415,0,0,0,1.815,0,3.105,3.105,0,0,0,.839-.366,2.234,2.234,0,0,0,.7-.724,3.046,3.046,0,0,0,.379-1.056v-.145H45.3v.1a1.516,1.516,0,0,1-.556.92,1.828,1.828,0,0,1-1.11.3,1.706,1.706,0,0,1-1.349-.472,2.4,2.4,0,0,1-.434-1.5h4.672v-.948a3.926,3.926,0,0,0-.162-1.178A2.518,2.518,0,0,0,45.95,133.167Zm-.569,1.9H41.875a2.113,2.113,0,0,1,.46-1.355,1.719,1.719,0,0,1,1.355-.434,1.759,1.759,0,0,1,1.355.434,2.112,2.112,0,0,1,.339,1.355Z" transform="translate(14.412 -63.166)" fill="#78787b"/>
        <path id="Path_23" data-name="Path 23" d="M50.781,132.983H49.189a3.43,3.43,0,0,0-.852.094,3,3,0,0,0-.8.3,2.246,2.246,0,0,0-.663.569,2.708,2.708,0,0,0-.434.868,3.845,3.845,0,0,0-.177,1.178v.724a3.98,3.98,0,0,0,.177,1.178,2.275,2.275,0,0,0,1.1,1.355,2.478,2.478,0,0,0,.8.3,3.426,3.426,0,0,0,.852.1H51.9v-9.19h-1.11Zm-3.344,3.249a2.573,2.573,0,0,1,.42-1.666,1.679,1.679,0,0,1,1.355-.488h1.57V138.6H49.189a1.665,1.665,0,0,1-1.355-.488,2.614,2.614,0,0,1-.42-1.679Z" transform="translate(16.378 -63.794)" fill="#78787b"/>
        <rect id="Rectangle_3" data-name="Rectangle 3" width="1.165" height="6.702" transform="translate(70.476 69.188)" fill="#78787b"/>
        <path id="Path_24" data-name="Path 24" d="M59.038,135.942a2.8,2.8,0,0,1-.394,1.695,2.045,2.045,0,0,1-2.614,0,2.884,2.884,0,0,1-.379-1.692V132.34H54.494V136.2a4.44,4.44,0,0,0,.145,1.178,3.039,3.039,0,0,0,.407.868,2.5,2.5,0,0,0,.637.556,2.809,2.809,0,0,0,.786.311,4.446,4.446,0,0,0,.88.081,4.3,4.3,0,0,0,.868-.081A2.809,2.809,0,0,0,59,138.8a2.505,2.505,0,0,0,.637-.556,2.858,2.858,0,0,0,.407-.868,4.442,4.442,0,0,0,.145-1.178V132.34H59.032Z" transform="translate(19.292 -63.125)" fill="#78787b"/>
        <path id="Path_25" data-name="Path 25" d="M70.77,139.528h4.964v-1.082h-3.7v-2.735h3.507v-1.1H72.029v-2.627h3.7v-1.1H70.77Z" transform="translate(25.052 -63.639)" fill="#78787b"/>
        <path id="Path_26" data-name="Path 26" d="M89.85,133.167h0a2.332,2.332,0,0,0-.663-.541,2.883,2.883,0,0,0-.8-.311,4.063,4.063,0,0,0-1.719,0,2.879,2.879,0,0,0-.8.311,2.169,2.169,0,0,0-.663.556,2.521,2.521,0,0,0-.434.852,3.875,3.875,0,0,0-.162,1.178v1.013a3.873,3.873,0,0,0,.162,1.178,2.711,2.711,0,0,0,.434.868,2.409,2.409,0,0,0,.663.556,3.059,3.059,0,0,0,.8.311,4.239,4.239,0,0,0,.852.081,4.353,4.353,0,0,0,.961-.108,3.107,3.107,0,0,0,.839-.366,2.291,2.291,0,0,0,.69-.7,2.966,2.966,0,0,0,.392-1.07v-.145H89.2v.1a1.461,1.461,0,0,1-.569.92,1.8,1.8,0,0,1-1.11.3,1.665,1.665,0,0,1-1.355-.473,2.4,2.4,0,0,1-.434-1.5h4.685v-.948a3.926,3.926,0,0,0-.162-1.178,2.316,2.316,0,0,0-.4-.868Zm-.556,1.9H85.788a2.113,2.113,0,0,1,.46-1.355,1.706,1.706,0,0,1,1.272-.434,1.773,1.773,0,0,1,1.355.434A2.111,2.111,0,0,1,89.294,135.063Z" transform="translate(29.951 -63.166)" fill="#78787b"/>
        <path id="Path_27" data-name="Path 27" d="M98.866,133.248a2.626,2.626,0,0,0-.663-.556,3.008,3.008,0,0,0-.8-.3,3.467,3.467,0,0,0-.868-.094H93.83v9.18h1.158V139H96.58a3.481,3.481,0,0,0,.868-.094,3.011,3.011,0,0,0,.8-.3,2.41,2.41,0,0,0,.663-.556,2.545,2.545,0,0,0,.447-.852,4.063,4.063,0,0,0,.162-1.178v-.745a4.062,4.062,0,0,0-.162-1.178,2.544,2.544,0,0,0-.488-.852Zm-.556,2.3v.2a2.6,2.6,0,0,1-.434,1.679,1.666,1.666,0,0,1-1.355.488H94.954V133.4h1.582a1.692,1.692,0,0,1,1.354.488,2.558,2.558,0,0,1,.42,1.692Z" transform="translate(33.215 -63.139)" fill="#78787b"/>
        <rect id="Rectangle_4" data-name="Rectangle 4" width="1.165" height="6.702" transform="translate(139.284 69.188)" fill="#78787b"/>
        <path id="Path_28" data-name="Path 28" d="M109.149,135.36l-1.07-.258c-.556-.136-.948-.23-1.178-.311a.96.96,0,0,1-.488-.258.649.649,0,0,1-.109-.42h0a.65.65,0,0,1,.352-.541,2.3,2.3,0,0,1,1.137-.23c1.53,0,1.53.69,1.53.921v.121h1.158v-.121a2.071,2.071,0,0,0-.217-.935,1.723,1.723,0,0,0-.609-.637,2.94,2.94,0,0,0-.852-.326,3.976,3.976,0,0,0-1.013-.109,3.346,3.346,0,0,0-1.881.473,1.476,1.476,0,0,0-.771,1.355h0a1.76,1.76,0,0,0,.326,1.125,1.91,1.91,0,0,0,1.042.637l1.029.258,1.191.311a1.135,1.135,0,0,1,.5.271.637.637,0,0,1,.108.407v.136c0,.217,0,.893-1.355.893s-1.5-.7-1.5-.935v-.524H105.3v.528a2.07,2.07,0,0,0,.217.935,1.652,1.652,0,0,0,.622.637,2.438,2.438,0,0,0,.839.339,4.553,4.553,0,0,0,1,.109,4.367,4.367,0,0,0,.961-.094,2.709,2.709,0,0,0,.812-.326,1.557,1.557,0,0,0,.6-.622,1.815,1.815,0,0,0,.217-.921v-.109a1.828,1.828,0,0,0-.326-1.137,1.909,1.909,0,0,0-1.1-.637Z" transform="translate(37.216 -63.156)" fill="#78787b"/>
        <path id="Path_29" data-name="Path 29" d="M115.574,133.157a2.331,2.331,0,0,0-.663-.541,3.253,3.253,0,0,0-.8-.311,4.158,4.158,0,0,0-1.737,0,2.807,2.807,0,0,0-.786.311,2.017,2.017,0,0,0-.663.556,2.423,2.423,0,0,0-.447.852,3.87,3.87,0,0,0-.162,1.178v1.013a3.871,3.871,0,0,0,.162,1.178,2.49,2.49,0,0,0,.447.868,2.409,2.409,0,0,0,.663.556,2.963,2.963,0,0,0,.786.311,4.378,4.378,0,0,0,.868.081,4.241,4.241,0,0,0,.948-.108,3.186,3.186,0,0,0,.852-.366,2.29,2.29,0,0,0,.69-.7,3.249,3.249,0,0,0,.392-1.07v-.145h-1.2v.094a1.355,1.355,0,0,1-.556.92,1.827,1.827,0,0,1-1.11.3,1.706,1.706,0,0,1-1.355-.473,2.4,2.4,0,0,1-.42-1.5h4.685V135.2a3.928,3.928,0,0,0-.162-1.178,2.7,2.7,0,0,0-.434-.868Zm-.569,1.909H111.5a2.194,2.194,0,0,1,.46-1.355,1.759,1.759,0,0,1,1.354-.434,1.72,1.72,0,0,1,1.355.434A2.026,2.026,0,0,1,115.006,135.066Z" transform="translate(39.05 -63.17)" fill="#78787b"/>
        <path id="Path_30" data-name="Path 30" d="M119.876,135.36l-1.056-.258c-.556-.136-.948-.23-1.178-.311a1.081,1.081,0,0,1-.488-.258.649.649,0,0,1-.108-.419h0a.65.65,0,0,1,.352-.541,2.3,2.3,0,0,1,1.137-.23c1.53,0,1.53.69,1.53.921v.121h1.158v-.121a2.018,2.018,0,0,0-.217-.935,1.652,1.652,0,0,0-.622-.637,2.713,2.713,0,0,0-.839-.326,4.067,4.067,0,0,0-1.013-.109,3.346,3.346,0,0,0-1.881.473,1.476,1.476,0,0,0-.771,1.355h0a1.761,1.761,0,0,0,.326,1.125,1.91,1.91,0,0,0,1.042.637l1.029.258,1.191.311a1.242,1.242,0,0,1,.5.271.636.636,0,0,1,.109.407v.136c0,.217,0,.893-1.355.893s-1.5-.7-1.5-.935v-.524H116.04v.528a2.069,2.069,0,0,0,.217.935,1.626,1.626,0,0,0,.609.637,2.612,2.612,0,0,0,.852.339,4.553,4.553,0,0,0,1,.109,4.383,4.383,0,0,0,.961-.094,2.708,2.708,0,0,0,.812-.326,1.654,1.654,0,0,0,.6-.622,1.816,1.816,0,0,0,.217-.92v-.109a1.828,1.828,0,0,0-.326-1.137A1.909,1.909,0,0,0,119.876,135.36Z" transform="translate(41.017 -63.156)" fill="#78787b"/>
        <path id="Path_31" data-name="Path 31" d="M124.972,132.444a1.84,1.84,0,0,1,1.447-.528,1.923,1.923,0,0,1,1.354.447,2.085,2.085,0,0,1,.541,1.355v.081h1.355v-.122a3.3,3.3,0,0,0-.19-1.158,2.288,2.288,0,0,0-.488-.839,2.343,2.343,0,0,0-.724-.541,3.065,3.065,0,0,0-.852-.3,4.952,4.952,0,0,0-1.9,0,3,3,0,0,0-.868.3,2.316,2.316,0,0,0-1.191,1.421,3.532,3.532,0,0,0-.177,1.178v2.952a3.473,3.473,0,0,0,.177,1.178,2.627,2.627,0,0,0,.473.868,2.7,2.7,0,0,0,.724.556,3.317,3.317,0,0,0,.868.311,5.139,5.139,0,0,0,.948.081,6.322,6.322,0,0,0,1.828-.23,3.237,3.237,0,0,0,1.354-.786h0v-3.737h-2.829v1.1h1.489V138.2a2.707,2.707,0,0,1-.7.311,4.731,4.731,0,0,1-1.232.122,1.881,1.881,0,0,1-1.447-.515,2.477,2.477,0,0,1-.473-1.706v-2.329a2.437,2.437,0,0,1,.512-1.638Z" transform="translate(43.64 -63.689)" fill="#78787b"/>
        <path id="Path_32" data-name="Path 32" d="M134.5,133.165h0a2.324,2.324,0,0,0-.663-.541,3.054,3.054,0,0,0-.8-.311,4.375,4.375,0,0,0-.868-.081,4.229,4.229,0,0,0-.852.081,2.883,2.883,0,0,0-.8.311,2.17,2.17,0,0,0-.663.556,2.519,2.519,0,0,0-.434.852,3.847,3.847,0,0,0-.177,1.178v1.013a3.847,3.847,0,0,0,.177,1.178,2.7,2.7,0,0,0,.434.868,2.407,2.407,0,0,0,.663.556,3.057,3.057,0,0,0,.8.311,4.245,4.245,0,0,0,.852.081,4.457,4.457,0,0,0,.961-.108,3.288,3.288,0,0,0,.839-.366,2.288,2.288,0,0,0,.69-.7,2.968,2.968,0,0,0,.392-1.069v-.145h-1.205v.094a1.463,1.463,0,0,1-.569.921,1.8,1.8,0,0,1-1.11.3,1.665,1.665,0,0,1-1.355-.473,2.4,2.4,0,0,1-.434-1.5h4.684v-.948a3.92,3.92,0,0,0-.162-1.178A2.423,2.423,0,0,0,134.5,133.165Zm-.569,1.9h-3.494a2.026,2.026,0,0,1,.46-1.355,1.705,1.705,0,0,1,1.272-.434,1.774,1.774,0,0,1,1.355.434,2.112,2.112,0,0,1,.407,1.353Z" transform="translate(45.752 -63.164)" fill="#78787b"/>
        <path id="Path_33" data-name="Path 33" d="M139.9,132.982a2.124,2.124,0,0,0-.948-.515,5.983,5.983,0,0,0-1.436-.145H135v6.77h1.158v-5.6h1.462a4.052,4.052,0,0,1,.893.081,1.108,1.108,0,0,1,.515.29.946.946,0,0,1,.271.447,3.341,3.341,0,0,1,0,.7v4.062h1.178v-3.954a4.4,4.4,0,0,0-.145-1.219A1.854,1.854,0,0,0,139.9,132.982Z" transform="translate(47.786 -63.132)" fill="#78787b"/>
        <path id="Path_34" data-name="Path 34" d="M145.693,133.167h0a2.323,2.323,0,0,0-.663-.541,2.88,2.88,0,0,0-.8-.311,4.064,4.064,0,0,0-1.719,0,2.881,2.881,0,0,0-.8.311,2.171,2.171,0,0,0-.663.556,2.518,2.518,0,0,0-.434.852,3.839,3.839,0,0,0-.177,1.178v1.013a3.839,3.839,0,0,0,.177,1.178,2.706,2.706,0,0,0,.434.868,2.4,2.4,0,0,0,.663.556,3.054,3.054,0,0,0,.8.311,4.226,4.226,0,0,0,.852.081,4.358,4.358,0,0,0,.961-.108,3.3,3.3,0,0,0,.839-.366,2.287,2.287,0,0,0,.69-.7,2.964,2.964,0,0,0,.392-1.069v-.145h-1.219v.1a1.463,1.463,0,0,1-.569.921,1.8,1.8,0,0,1-1.11.3,1.651,1.651,0,0,1-1.354-.473,2.313,2.313,0,0,1-.434-1.5h4.684v-.948a3.922,3.922,0,0,0-.162-1.178A2.421,2.421,0,0,0,145.693,133.167Zm-.556,1.9h-3.507a2.026,2.026,0,0,1,.46-1.355,1.706,1.706,0,0,1,1.272-.434,1.774,1.774,0,0,1,1.355.434A2.112,2.112,0,0,1,145.138,135.063Z" transform="translate(49.713 -63.166)" fill="#78787b"/>
        <path id="Path_35" data-name="Path 35" d="M146.194,139.022h1.158v-5.6h1.868v-1.1h-3.039Z" transform="translate(51.745 -63.132)" fill="#78787b"/>
        <path id="Path_36" data-name="Path 36" d="M151.208,132.447a2.924,2.924,0,0,0-.786.3,2.356,2.356,0,0,0-1.11,1.354,3.92,3.92,0,0,0-.162,1.178v.745a4.061,4.061,0,0,0,.162,1.178,2.423,2.423,0,0,0,.447.852,2.233,2.233,0,0,0,.663.556,2.535,2.535,0,0,0,.786.3,3.542,3.542,0,0,0,.868.094h2.708V132.23h-2.708A3.551,3.551,0,0,0,151.208,132.447Zm-.88,3.155a2.573,2.573,0,0,1,.42-1.666,1.638,1.638,0,0,1,1.355-.488h1.592v4.527H152.1a1.639,1.639,0,0,1-1.355-.488,2.614,2.614,0,0,1-.42-1.679Z" transform="translate(52.796 -63.164)" fill="#78787b"/>
        <rect id="Rectangle_5" data-name="Rectangle 5" width="1.165" height="9.18" transform="translate(209.785 66.71)" fill="#78787b"/>
        <path id="Path_37" data-name="Path 37" d="M162.677,130.89h-1.53l-2.708,8.476v.162h1.355l.579-1.8h3.289l.579,1.8H165.6l-2.708-8.538Zm.528,5.741h-2.586l1.287-4.062Z" transform="translate(56.083 -63.639)" fill="#78787b"/>
        <path id="Path_38" data-name="Path 38" d="M169.212,135.942a2.8,2.8,0,0,1-.392,1.692,1.592,1.592,0,0,1-1.355.473,1.569,1.569,0,0,1-1.354-.473,2.789,2.789,0,0,1-.379-1.692v-3.6h-1.158V136.2a4.438,4.438,0,0,0,.145,1.178,2.707,2.707,0,0,0,.407.868,2.507,2.507,0,0,0,.637.556,2.809,2.809,0,0,0,.786.311,4.3,4.3,0,0,0,.868.081,4.443,4.443,0,0,0,.88-.081,2.814,2.814,0,0,0,.786-.311,2.236,2.236,0,0,0,.622-.556,2.588,2.588,0,0,0,.42-.868,4.44,4.44,0,0,0,.145-1.178V132.34h-1.057Z" transform="translate(58.256 -63.125)" fill="#78787b"/>
        <path id="Path_39" data-name="Path 39" d="M178.66,133.632a2,2,0,0,0-.948-.514,5.987,5.987,0,0,0-1.436-.145h-1.355V130.49h-1.158v9.18h1.158v-5.6h1.462a4.062,4.062,0,0,1,.894.081,1.11,1.11,0,0,1,.515.289,1.011,1.011,0,0,1,.271.447,3.347,3.347,0,0,1,.068.7v4.062h1.158v-3.954a4.457,4.457,0,0,0-.136-1.219,1.854,1.854,0,0,0-.494-.844Z" transform="translate(61.509 -63.78)" fill="#78787b"/>
        <path id="Path_40" data-name="Path 40" d="M184.453,133.167h0a2.326,2.326,0,0,0-.663-.541,3.055,3.055,0,0,0-.8-.311,4.066,4.066,0,0,0-1.719,0,2.881,2.881,0,0,0-.8.311,2.171,2.171,0,0,0-.663.556,2.3,2.3,0,0,0-.434.852,3.472,3.472,0,0,0-.177,1.178v1.013a3.472,3.472,0,0,0,.177,1.178,2.48,2.48,0,0,0,.434.868,2.409,2.409,0,0,0,.663.556,2.963,2.963,0,0,0,.786.311,4.657,4.657,0,0,0,1.737,0,3.056,3.056,0,0,0,.8-.311,2.621,2.621,0,0,0,.663-.556,2.5,2.5,0,0,0,.447-.868,3.93,3.93,0,0,0,.162-1.178v-1.013a3.931,3.931,0,0,0-.162-1.178A2.424,2.424,0,0,0,184.453,133.167Zm-.556,2.288v.528a2.6,2.6,0,0,1-.434,1.679,1.665,1.665,0,0,1-1.355.488,1.638,1.638,0,0,1-1.354-.488,2.585,2.585,0,0,1-.42-1.679v-.5a2.544,2.544,0,0,1,.42-1.666,1.638,1.638,0,0,1,1.354-.488,1.665,1.665,0,0,1,1.354.488,2.532,2.532,0,0,1,.434,1.638Z" transform="translate(63.432 -63.166)" fill="#78787b"/>
        <rect id="Rectangle_6" data-name="Rectangle 6" width="1.165" height="6.702" transform="translate(255.089 69.188)" fill="#78787b"/>
        <path id="Path_41" data-name="Path 41" d="M192.805,130.89h-1.158v1.936h-1.082v1.1h1.082v5.605h1.158v-5.605h1.11v-1.1h-1.11Z" transform="translate(67.455 -63.639)" fill="#78787b"/>
        <path id="Path_42" data-name="Path 42" d="M199.169,132.32l-2.026,5.415-2-5.307v-.081h-1.246l2.41,6.368a.826.826,0,0,0,.352.392l-.92,2.424h1.232l3.493-9.18Z" transform="translate(68.634 -63.132)" fill="#78787b"/>
        <path id="Path_43" data-name="Path 43" d="M184.954,139.022h1.158v-5.6h1.868v-1.1h-3.039Z" transform="translate(65.464 -63.132)" fill="#78787b"/>
        <path id="Path_44" data-name="Path 44" d="M99.424,139.022h1.158v-5.6h1.868v-1.1H99.411Z" transform="translate(35.188 -63.132)" fill="#78787b"/>
        <path id="Path_45" data-name="Path 45" d="M90.354,139.022h1.158v-5.6H93.38v-1.1H90.341Z" transform="translate(31.979 -63.132)" fill="#78787b"/>
        <path id="Path_46" data-name="Path 46" d="M172.212,130.89h-1.158v1.936h-1.07v1.1h1.07v5.605h1.158v-5.605h1.11v-1.1h-1.11Z" transform="translate(60.171 -63.639)" fill="#78787b"/>
        <path id="Path_47" data-name="Path 47" d="M83.557,130.89H82.4v1.936H81.31v1.1h1.082v5.605H83.55v-5.605h1.11v-1.1H83.55Z" transform="translate(28.783 -63.639)" fill="#78787b"/>
        <path id="Path_48" data-name="Path 48" d="M80.792,132.982a2.125,2.125,0,0,0-.948-.515,5.985,5.985,0,0,0-1.436-.145H75.89v6.77h1.172v-5.6h1.447a4.051,4.051,0,0,1,.893.081,1.1,1.1,0,0,1,.528.29,1.057,1.057,0,0,1,.258.447,2.575,2.575,0,0,1,.081.7v4.062h1.178v-3.954A4.4,4.4,0,0,0,81.3,133.9,1.855,1.855,0,0,0,80.792,132.982Z" transform="translate(26.864 -63.132)" fill="#78787b"/>
        <path id="Path_49" data-name="Path 49" d="M104.085,131.179a.447.447,0,0,0-.243-.23.921.921,0,0,0-.724,0,.487.487,0,0,0-.23.2.706.706,0,0,0-.081.217.807.807,0,0,0,0,.177,1.072,1.072,0,0,0,0,.19.639.639,0,0,0,.081.2.516.516,0,0,0,.23.217h0a1.035,1.035,0,0,0,.366,0,1.063,1.063,0,0,0,.379,0,.515.515,0,0,0,.23-.217.87.87,0,0,0,.081-.217.77.77,0,0,0,0-.177.954.954,0,0,0,0-.189A.724.724,0,0,0,104.085,131.179Z" transform="translate(36.391 -63.644)" fill="#78787b"/>
        <path id="Path_50" data-name="Path 50" d="M53.268,131.167a.513.513,0,0,0-.23-.217.948.948,0,0,0-.745,0,.406.406,0,0,0-.23.217.991.991,0,0,0-.081.19.8.8,0,0,0,0,.19.917.917,0,0,0,0,.19,1.527,1.527,0,0,0,.081.2.514.514,0,0,0,.23.217,1.029,1.029,0,0,0,.366,0,.92.92,0,0,0,.366,0,.489.489,0,0,0,.243-.217,1.042,1.042,0,0,0,.081-.2.919.919,0,0,0,0-.19.8.8,0,0,0,0-.19A1.044,1.044,0,0,0,53.268,131.167Z" transform="translate(18.4 -63.645)" fill="#78787b"/>
        <path id="Path_51" data-name="Path 51" d="M189.616,131.179a.447.447,0,0,0-.243-.23.921.921,0,0,0-.724,0,.488.488,0,0,0-.23.2.709.709,0,0,0-.081.217.405.405,0,0,0,0,.177.489.489,0,0,0,0,.19,1.187,1.187,0,0,0,0,.2.636.636,0,0,0,.243.217h0a1.034,1.034,0,0,0,.366,0,.927.927,0,0,0,.366,0,.488.488,0,0,0,.243-.217.868.868,0,0,0,.081-.217.78.78,0,0,0,0-.177.954.954,0,0,0,0-.189A.724.724,0,0,0,189.616,131.179Z" transform="translate(66.663 -63.644)" fill="#78787b"/>
        <path id="Path_52" data-name="Path 52" d="M68.777,133.014a1.843,1.843,0,0,0-.894-.528,4.924,4.924,0,0,0-1.355-.162H60.26v6.769h1.158v-5.6h2.708v5.6h1.191v-5.6h1.158a4.191,4.191,0,0,1,.894.081,1.11,1.11,0,0,1,.515.29,1.134,1.134,0,0,1,.258.447,3.338,3.338,0,0,1,0,.7v4.062h1.232v-3.954a5.009,5.009,0,0,0-.122-1.205,2.017,2.017,0,0,0-.488-.893Z" transform="translate(21.332 -63.131)" fill="#78787b"/>
        <path id="Path_53" data-name="Path 53" d="M14.577,133.014a1.9,1.9,0,0,0-.893-.528,5.047,5.047,0,0,0-1.355-.162H6.06v6.768H7.218v-5.6H9.933v5.6h1.178v-5.6h1.158a4.08,4.08,0,0,1,.893.081,1.045,1.045,0,0,1,.515.29.88.88,0,0,1,.258.447,2.573,2.573,0,0,1,.081.7v4.062h1.158v-3.954a4.413,4.413,0,0,0-.136-1.205,1.937,1.937,0,0,0-.46-.895Z" transform="translate(2.147 -63.131)" fill="#78787b"/>
        <rect id="Rectangle_7" data-name="Rectangle 7" width="1.219" height="11.861" transform="translate(267.843 49.42)" fill="#78787b"/>
        <path id="Path_54" data-name="Path 54" d="M203.051,117.734v10.643h-2.842v-2.709a7.448,7.448,0,0,0-.19-1.881,2.709,2.709,0,0,0-.637-1.191,2.315,2.315,0,0,0-1.056-.622,5.808,5.808,0,0,0-1.585-.177h-1.988v1.219h2.071a3.769,3.769,0,0,1,.961.109,1.489,1.489,0,0,1,1.084,1.158,5.089,5.089,0,0,1,.136,1.232V128.3h-1.213v-1.747a3.422,3.422,0,0,0-.145-1.029,2.067,2.067,0,0,0-.379-.724,2.122,2.122,0,0,0-.569-.473,2.921,2.921,0,0,0-.69-.271,3.355,3.355,0,0,0-.758,0,3.433,3.433,0,0,0-.758,0,2.623,2.623,0,0,0-.677.271,2.125,2.125,0,0,0-.569.473,2.316,2.316,0,0,0-.379.724,3.44,3.44,0,0,0-.136,1.029v.081a5.875,5.875,0,0,0,.136,1.355,2.7,2.7,0,0,0,.176.339h-3.669v-6.161h-1.219v6.223H183.7v-6.223h-1.218v6.223h-4.171v-3.643a3.5,3.5,0,0,0-.136-1.029A2.315,2.315,0,0,0,177.8,123a2.231,2.231,0,0,0-.579-.473,2.179,2.179,0,0,0-.677-.258,3.42,3.42,0,0,0-.758-.081h-1.069a2.833,2.833,0,0,0-.69.081,2.243,2.243,0,0,0-.69.258,2.408,2.408,0,0,0-.569.473,2.3,2.3,0,0,0-.366.731,3.1,3.1,0,0,0-.145,1.029v2.275a3,3,0,0,0,.145,1.029,2.379,2.379,0,0,0,.366.745,2.122,2.122,0,0,0,.569.473,2.707,2.707,0,0,0,.69.271,3.363,3.363,0,0,0,.758,0h29.489V117.682ZM177.1,128.377h-2.316a1.259,1.259,0,0,1-1-.366,1.91,1.91,0,0,1-.311-1.218v-1.828a1.909,1.909,0,0,1,.311-1.219,1.191,1.191,0,0,1,.935-.366h1.07a1.259,1.259,0,0,1,1,.366,1.828,1.828,0,0,1,.311,1.219Zm19.484,0h-1.355a1.259,1.259,0,0,1-.988-.379,1.435,1.435,0,0,1-.311-.839v-.488a1.693,1.693,0,0,1,.311-1.029,1.544,1.544,0,0,1,1.99,0,1.829,1.829,0,0,1,.326,1.219Z" transform="translate(60.973 -68.314)" fill="#78787b"/>
        <path id="Path_55" data-name="Path 55" d="M181.836,120.8h.136v-.845h-1a.461.461,0,0,1-.258-.5c0-.289.379-.46.88-.46h.488v-.839h-.609c-1.056,0-1.611.407-1.638,1.232a1.762,1.762,0,0,0,.108.569h-.731v.852Z" transform="translate(63.437 -68.145)" fill="#78787b"/>
        <path id="Path_56" data-name="Path 56" d="M185.091,128.821a1.012,1.012,0,0,0,.42.081.921.921,0,0,0,.42-.081.434.434,0,0,0,.243-.217c0-.081.068-.162.1-.23a1.036,1.036,0,0,0,0-.2,1.107,1.107,0,0,0,0-.217l-.094-.23a.475.475,0,0,0-.243-.2.921.921,0,0,0-.42-.081,1.013,1.013,0,0,0-.42.081.487.487,0,0,0-.23.2,1.365,1.365,0,0,0-.094.23.825.825,0,0,0,0,.42,1.051,1.051,0,0,0,.1.23.447.447,0,0,0,.23.217Z" transform="translate(65.393 -64.859)" fill="#78787b"/>
        <path id="Path_57" data-name="Path 57" d="M184.185,128.821a.434.434,0,0,0,.243-.217.578.578,0,0,0,.1-.433,1.1,1.1,0,0,0,0-.217,1.347,1.347,0,0,0-.1-.23.473.473,0,0,0-.243-.2.921.921,0,0,0-.42-.081.908.908,0,0,0-.407.081.475.475,0,0,0-.243.2,1.359,1.359,0,0,0-.094.23,1.117,1.117,0,0,0,0,.217,1.032,1.032,0,0,0,0,.2,1.043,1.043,0,0,0,.094.23.435.435,0,0,0,.243.217.906.906,0,0,0,.407.081A.919.919,0,0,0,184.185,128.821Z" transform="translate(64.783 -64.859)" fill="#78787b"/>
        <path id="Path_58" data-name="Path 58" d="M174.931,120.118a.513.513,0,0,0,.23.217,1.355,1.355,0,0,0,.42,0,1.23,1.23,0,0,0,.42,0,.637.637,0,0,0,.243-.217,1.2,1.2,0,0,0,.081-.23.555.555,0,0,0,0-.217.53.53,0,0,0,0-.2,1.184,1.184,0,0,0-.081-.23.638.638,0,0,0-.243-.217,1.22,1.22,0,0,0-.42-.081,1.351,1.351,0,0,0-.42.081.514.514,0,0,0-.23.217.756.756,0,0,0-.094.23.823.823,0,0,0,0,.42.756.756,0,0,0,.094.23Z" transform="translate(61.879 -67.868)" fill="#78787b"/>
        <path id="Path_59" data-name="Path 59" d="M173.171,120.118a.514.514,0,0,0,.23.217,1.355,1.355,0,0,0,.42,0,1.231,1.231,0,0,0,.42,0,.555.555,0,0,0,.243-.217,1.193,1.193,0,0,0,.081-.23.552.552,0,0,0,0-.217.528.528,0,0,0,0-.2,1.182,1.182,0,0,0-.081-.23.554.554,0,0,0-.243-.217,1.22,1.22,0,0,0-.42-.081,1.359,1.359,0,0,0-.42.081.515.515,0,0,0-.23.217.75.75,0,0,0-.094.23.826.826,0,0,0,0,.42.749.749,0,0,0,.094.23Z" transform="translate(61.255 -67.868)" fill="#78787b"/>
        <path id="Path_60" data-name="Path 60" d="M145.449,117.736v10.643h-3.2V117.736h-1.206v10.643h-2.505v-3.643a3.494,3.494,0,0,0-.145-1.029,2.07,2.07,0,0,0-.379-.724,2.192,2.192,0,0,0-1.259-.731,3.342,3.342,0,0,0-.758-.081h-1.057a2.874,2.874,0,0,0-.7.081,2.392,2.392,0,0,0-.69.258,2.1,2.1,0,0,0-.556.473,2.072,2.072,0,0,0-.379.724,3.057,3.057,0,0,0-.136.961h0v.771a3.641,3.641,0,0,1-.541,2.179,2.247,2.247,0,0,1-1.868.69h-1.355v-6.133H127.5V128.4h-5.172v-6.223h-1.219V128.4H119.97a2.3,2.3,0,0,1-1.881-.69,3.873,3.873,0,0,1-.541-2.356v-2.518h-1.205v2.518a3.873,3.873,0,0,1-.541,2.356,2.248,2.248,0,0,1-1.868.69h-1.137V122.82h-1.219V128.4H106V117.756h-1.205v11.867h9.139a4.922,4.922,0,0,0,1.125-.122,3.384,3.384,0,0,0,.988-.379,2.854,2.854,0,0,0,.8-.7l.109-.176.109.176a2.787,2.787,0,0,0,.786.7,3.545,3.545,0,0,0,.988.379,5.828,5.828,0,0,0,1,.109h10.289a4.848,4.848,0,0,0,1.125-.122,3.251,3.251,0,0,0,.988-.379,2.606,2.606,0,0,0,.677-.6,1.354,1.354,0,0,0,.7.758,2.928,2.928,0,0,0,.69.271,3.357,3.357,0,0,0,.758,0H146.74V117.675Zm-8.123,10.643H135a1.232,1.232,0,0,1-.988-.366,1.828,1.828,0,0,1-.326-1.219v-1.828a1.828,1.828,0,0,1,.326-1.219,1.191,1.191,0,0,1,.935-.366H136a1.259,1.259,0,0,1,1,.366,1.829,1.829,0,0,1,.326,1.219Z" transform="translate(37.096 -68.317)" fill="#78787b"/>
        <path id="Path_61" data-name="Path 61" d="M103.57,116.684l1.191-.907a1.666,1.666,0,0,0,1.246.556,2.139,2.139,0,0,0,1.355-.569v.975a2.126,2.126,0,0,1-1.447.5,1.57,1.57,0,0,1-1.206-.434l-.69.515Z" transform="translate(36.662 -68.992)" fill="#78787b"/>
        <path id="Path_62" data-name="Path 62" d="M105.178,127.2H97.056a2.248,2.248,0,0,1-1.868-.69,3.858,3.858,0,0,1-.556-2.356V122.8H93.44v1.855a5.133,5.133,0,0,0,.19,1.5,3.186,3.186,0,0,0,.514,1.1,2.858,2.858,0,0,0,.8.7,3.252,3.252,0,0,0,.988.379,5.539,5.539,0,0,0,1,.109h9.475V121h-1.219Z" transform="translate(33.076 -67.14)" fill="#78787b"/>
        <path id="Path_63" data-name="Path 63" d="M114.216,119.238l-.1.23a1.031,1.031,0,0,0,0,.2,1.093,1.093,0,0,0,0,.217l.1.23a.557.557,0,0,0,.243.217,1.176,1.176,0,0,0,.42,0,1.353,1.353,0,0,0,.42,0,.515.515,0,0,0,.23-.217.756.756,0,0,0,.1-.23.826.826,0,0,0,0-.42.757.757,0,0,0-.1-.23.513.513,0,0,0-.217-.217,1.352,1.352,0,0,0-.42-.081,1.157,1.157,0,0,0-.42.081A.557.557,0,0,0,114.216,119.238Z" transform="translate(40.395 -67.868)" fill="#78787b"/>
        <path id="Path_64" data-name="Path 64" d="M121.486,120.118a.556.556,0,0,0,.243.217,1.179,1.179,0,0,0,.42,0,1.353,1.353,0,0,0,.42,0,.514.514,0,0,0,.23-.217,1.355,1.355,0,0,0,.094-.23.825.825,0,0,0,0-.42,1.342,1.342,0,0,0-.094-.23.515.515,0,0,0-.23-.217,1.351,1.351,0,0,0-.42-.081,1.15,1.15,0,0,0-.42.081.555.555,0,0,0-.243.217l-.094.23a1.038,1.038,0,0,0,0,.2,1.1,1.1,0,0,0,0,.217Z" transform="translate(42.968 -67.868)" fill="#78787b"/>
        <path id="Path_65" data-name="Path 65" d="M113.481,118.725a.447.447,0,0,0,.23.217,1.012,1.012,0,0,0,.42.081.96.96,0,0,0,.42-.081.542.542,0,0,0,.243-.217.951.951,0,0,0,.081-.23.827.827,0,0,0,0-.42,1.192,1.192,0,0,0-.081-.23.61.61,0,0,0-.243-.2.96.96,0,0,0-.42-.081,1.012,1.012,0,0,0-.42.081.487.487,0,0,0-.23.2.758.758,0,0,0-.094.23.825.825,0,0,0,0,.42A.637.637,0,0,0,113.481,118.725Z" transform="translate(40.127 -68.356)" fill="#78787b"/>
        <path id="Path_66" data-name="Path 66" d="M112.456,120.118a.636.636,0,0,0,.243.217,1.177,1.177,0,0,0,.42,0,1.353,1.353,0,0,0,.42,0,.516.516,0,0,0,.23-.217.757.757,0,0,0,.094-.23.826.826,0,0,0,0-.42.76.76,0,0,0-.094-.23.515.515,0,0,0-.23-.217,1.355,1.355,0,0,0-.42-.081,1.158,1.158,0,0,0-.42.081.638.638,0,0,0-.243.217l-.1.23a1.031,1.031,0,0,0,0,.2,1.1,1.1,0,0,0,0,.217Z" transform="translate(39.771 -67.868)" fill="#78787b"/>
        <path id="Path_67" data-name="Path 67" d="M98.616,120.118a.556.556,0,0,0,.243.217,1.18,1.18,0,0,0,.42,0,1.353,1.353,0,0,0,.42,0,.514.514,0,0,0,.23-.217.757.757,0,0,0,.094-.23.827.827,0,0,0,0-.42.758.758,0,0,0-.094-.23.514.514,0,0,0-.23-.217,1.35,1.35,0,0,0-.42-.081,1.157,1.157,0,0,0-.42.081.556.556,0,0,0-.243.217l-.094.23a1.015,1.015,0,0,0,0,.2,1.091,1.091,0,0,0,0,.217Z" transform="translate(34.874 -67.868)" fill="#78787b"/>
        <path id="Path_68" data-name="Path 68" d="M96.86,120.109a.636.636,0,0,0,.23.258,1.177,1.177,0,0,0,.42,0,1.35,1.35,0,0,0,.42,0,.515.515,0,0,0,.23-.217.759.759,0,0,0,.094-.23.827.827,0,0,0,0-.42.758.758,0,0,0-.094-.23.515.515,0,0,0-.23-.217,1.352,1.352,0,0,0-.42-.081,1.157,1.157,0,0,0-.42.041.636.636,0,0,0-.243.217l-.094.23a1.017,1.017,0,0,0,0,.2,1.086,1.086,0,0,0,0,.217Z" transform="translate(34.248 -67.859)" fill="#78787b"/>
        <rect id="Rectangle_8" data-name="Rectangle 8" width="1.219" height="11.861" transform="translate(119.652 49.42)" fill="#78787b"/>
        <path id="Path_69" data-name="Path 69" d="M94.074,117.72v10.643H91.243v-3.155a3.114,3.114,0,0,0-1.855-2.708,5.094,5.094,0,0,0-5.1.771v-1.11H83.059v6.214H80.276a7.943,7.943,0,0,1-2.058-.243,5.673,5.673,0,0,0,2.153-3.358,2.288,2.288,0,0,0-2.233-2.614,9.8,9.8,0,0,0-3.683.352l-.3.1-.108.3a5.091,5.091,0,0,0,1.666,5.375,1.518,1.518,0,0,1-.473.081H70.366v-6.2H69.147v6.223H64.61v-6.223H63.392v6.094a5.768,5.768,0,0,1-.109,1.355,2.026,2.026,0,0,1-.366.826,1.53,1.53,0,0,1-.6.434,2.565,2.565,0,0,1-.812.19v1.355a4.942,4.942,0,0,0,.961-.145,3.293,3.293,0,0,0,.839-.379,2.478,2.478,0,0,0,.69-.663,3.344,3.344,0,0,0,.447-1.083,2.7,2.7,0,0,0,.081-.5H75.292a3.619,3.619,0,0,0,1.76-.556,8.531,8.531,0,0,0,3.223.556h15V117.778Zm-17.1,9.857a3.6,3.6,0,0,1-1.158-1.042,3.494,3.494,0,0,1-.69-2.912,8.123,8.123,0,0,1,2.844-.243c1.137.177,1.232.758,1.191,1.246a4.752,4.752,0,0,1-2.188,2.951Zm13.052.745H84.283v-3.575c1.737-1.355,3.385-1.737,4.576-1.158a1.909,1.909,0,0,1,1.158,1.592Z" transform="translate(21.773 -68.3)" fill="#78787b"/>
        <path id="Path_70" data-name="Path 70" d="M72.361,120.118a.514.514,0,0,0,.23.217,1.355,1.355,0,0,0,.42,0,1.174,1.174,0,0,0,.42,0,.556.556,0,0,0,.243-.217l.1-.23a1.093,1.093,0,0,0,0-.217,1.026,1.026,0,0,0,0-.2l-.1-.23a.554.554,0,0,0-.243-.217,1.15,1.15,0,0,0-.42-.081,1.353,1.353,0,0,0-.42.081.516.516,0,0,0-.23.217,1.357,1.357,0,0,0-.094.23.826.826,0,0,0,0,.42A1.356,1.356,0,0,0,72.361,120.118Z" transform="translate(25.572 -67.868)" fill="#78787b"/>
        <path id="Path_71" data-name="Path 71" d="M59.111,120.118a.513.513,0,0,0,.23.217,1.35,1.35,0,0,0,.42,0,1.176,1.176,0,0,0,.42,0,.489.489,0,0,0,.243-.217l.094-.23a1.094,1.094,0,0,0,0-.217,1.019,1.019,0,0,0,0-.2l-.094-.23a.488.488,0,0,0-.243-.217,1.157,1.157,0,0,0-.42-.081,1.351,1.351,0,0,0-.42.081.515.515,0,0,0-.23.217,1.354,1.354,0,0,0-.094.23.827.827,0,0,0,0,.42,1.358,1.358,0,0,0,.094.23Z" transform="translate(20.883 -67.868)" fill="#78787b"/>
        <path id="Path_72" data-name="Path 72" d="M57.346,120.118a.488.488,0,0,0,.243.217,1.15,1.15,0,0,0,.407,0,1.175,1.175,0,0,0,.42,0,.488.488,0,0,0,.243-.217,1.35,1.35,0,0,0,.094-.23,1.089,1.089,0,0,0,0-.217,1.025,1.025,0,0,0,0-.2,1.349,1.349,0,0,0-.094-.23.488.488,0,0,0-.243-.217,1.157,1.157,0,0,0-.42-.081,1.137,1.137,0,0,0-.407.081.488.488,0,0,0-.243.217,1.351,1.351,0,0,0-.094.23,1.022,1.022,0,0,0,0,.2,1.09,1.09,0,0,0,0,.217,1.352,1.352,0,0,0,.094.23Z" transform="translate(20.265 -67.868)" fill="#78787b"/>
        <path id="Path_73" data-name="Path 73" d="M68.292,128.821a.92.92,0,0,0,.42.081,1.013,1.013,0,0,0,.42-.081.447.447,0,0,0,.23-.217.88.88,0,0,0,.122-.434,1.058,1.058,0,0,0,0-.217,1.364,1.364,0,0,0-.094-.23.488.488,0,0,0-.23-.2,1.016,1.016,0,0,0-.42-.081.92.92,0,0,0-.42.081.475.475,0,0,0-.243.2l-.094.23a1.1,1.1,0,0,0,0,.217,1.026,1.026,0,0,0,0,.2.26.26,0,0,0,.094.23.434.434,0,0,0,.217.217Z" transform="translate(24.064 -64.86)" fill="#78787b"/>
        <path id="Path_74" data-name="Path 74" d="M67.609,127.724a.488.488,0,0,0-.23-.2,1.013,1.013,0,0,0-.42-.081.92.92,0,0,0-.42.081.529.529,0,0,0-.243.2l-.094.23a1.109,1.109,0,0,0,0,.217,1.039,1.039,0,0,0,0,.2.261.261,0,0,0,.094.23.488.488,0,0,0,.243.217.919.919,0,0,0,.42.081,1.014,1.014,0,0,0,.42-.081.446.446,0,0,0,.23-.217.635.635,0,0,0,.094-.23.826.826,0,0,0,0-.42A.758.758,0,0,0,67.609,127.724Z" transform="translate(23.434 -64.859)" fill="#78787b"/>
        <path id="Path_75" data-name="Path 75" d="M57.537,128.1a2.627,2.627,0,0,0,.677.271,3.359,3.359,0,0,0,.758,0H62.52v-4.861a3.493,3.493,0,0,0-.145-1.029,2.071,2.071,0,0,0-.379-.724,2.193,2.193,0,0,0-1.259-.731,3.348,3.348,0,0,0-.758-.081H58.922a2.867,2.867,0,0,0-.7.081,2.178,2.178,0,0,0-.677.258,1.965,1.965,0,0,0-.569.473,2.074,2.074,0,0,0-.379.724,3.494,3.494,0,0,0-.145,1.029v2.275a3.369,3.369,0,0,0,.145,1.029,2.139,2.139,0,0,0,.379.745,1.774,1.774,0,0,0,.569.541Zm.136-4.292a1.828,1.828,0,0,1,.311-1.219,1.191,1.191,0,0,1,.935-.366h1.056a1.246,1.246,0,0,1,1,.366,1.828,1.828,0,0,1,.326,1.219v3.413H58.97a1.232,1.232,0,0,1-.988-.366,1.828,1.828,0,0,1-.311-1.219Z" transform="translate(19.983 -67.158)" fill="#78787b"/>
        <rect id="Rectangle_9" data-name="Rectangle 9" width="1.219" height="11.861" transform="translate(226.655 49.42)" fill="#78787b"/>
        <path id="Path_76" data-name="Path 76" d="M143.512,120.118a.513.513,0,0,0,.23.217,1.35,1.35,0,0,0,.42,0,1.23,1.23,0,0,0,.42,0,.636.636,0,0,0,.243-.217,1.2,1.2,0,0,0,.081-.23.547.547,0,0,0,0-.217.525.525,0,0,0,0-.2,1.2,1.2,0,0,0-.081-.23.638.638,0,0,0-.243-.217,1.22,1.22,0,0,0-.42-.081,1.355,1.355,0,0,0-.42.081.514.514,0,0,0-.23.217.757.757,0,0,0-.1.23.829.829,0,0,0,0,.42.758.758,0,0,0,.094.23Z" transform="translate(50.757 -67.868)" fill="#78787b"/>
        <path id="Path_77" data-name="Path 77" d="M141.751,120.118a.515.515,0,0,0,.23.217,1.354,1.354,0,0,0,.42,0,1.176,1.176,0,0,0,.42,0,.555.555,0,0,0,.243-.217l.1-.23a1.093,1.093,0,0,0,0-.217,1.031,1.031,0,0,0,0-.2l-.1-.23a.555.555,0,0,0-.243-.217,1.156,1.156,0,0,0-.42-.081,1.352,1.352,0,0,0-.42.081.516.516,0,0,0-.23.217.76.76,0,0,0-.094.23.827.827,0,0,0,0,.42.756.756,0,0,0,.094.23Z" transform="translate(50.133 -67.868)" fill="#78787b"/>
        <path id="Path_78" data-name="Path 78" d="M168.081,117.734v10.643h-2.708a8.79,8.79,0,0,1-1.977-.2,5.9,5.9,0,0,0,2.085-3.52c0-.622-.081-2.085-2.234-2.424a10.047,10.047,0,0,0-3.683.366l-.311.081-.1.311a5.036,5.036,0,0,0,.663,4.36,4.062,4.062,0,0,0,.948.975,1.978,1.978,0,0,1-.366,0h-4.454V117.68h-1.219v11.867H160.4a3.724,3.724,0,0,0,1.737-.515,9.057,9.057,0,0,0,3.074.515h4.062V117.68Zm-6.052,9.965a3.474,3.474,0,0,1-1.232-1.056,3.941,3.941,0,0,1-.579-2.965,8.122,8.122,0,0,1,2.829-.23c1.272.19,1.232.84,1.206,1.11a5.173,5.173,0,0,1-2.224,3.138Z" transform="translate(54.77 -68.315)" fill="#78787b"/>
        <path id="Path_79" data-name="Path 79" d="M157.292,128.423v-4.861a3.507,3.507,0,0,0-.136-1.029,2.315,2.315,0,0,0-.379-.731,2.235,2.235,0,0,0-.579-.473,2.179,2.179,0,0,0-.677-.258,3.426,3.426,0,0,0-.758-.081h-1.069a2.846,2.846,0,0,0-.69.081,2.126,2.126,0,0,0-.69.258,2.408,2.408,0,0,0-.569.473,2.316,2.316,0,0,0-.379.724,3.514,3.514,0,0,0-.122.961h0v.663a3.874,3.874,0,0,1-.541,2.356,2.248,2.248,0,0,1-1.868.69h-1.9v-3.643a3.5,3.5,0,0,0-.136-1.029,2.313,2.313,0,0,0-.379-.731,2.194,2.194,0,0,0-1.259-.724,3.431,3.431,0,0,0-.758-.081h-1.056a2.87,2.87,0,0,0-.7.081,2.4,2.4,0,0,0-.69.258,2.1,2.1,0,0,0-.556.473,2.069,2.069,0,0,0-.379.724,3.493,3.493,0,0,0-.145,1.029v2.275a3.369,3.369,0,0,0,.145,1.029,2.142,2.142,0,0,0,.379.745,1.881,1.881,0,0,0,.556.473,2.922,2.922,0,0,0,.69.271,3.352,3.352,0,0,0,.758,0h5.415a4.929,4.929,0,0,0,1.124-.122,3.251,3.251,0,0,0,.988-.379,2.705,2.705,0,0,0,.677-.609.688.688,0,0,0,.145.3,2.124,2.124,0,0,0,.569.473,2.533,2.533,0,0,0,.69.271,3.323,3.323,0,0,0,.745,0ZM142.4,126.831a1.828,1.828,0,0,1-.326-1.219v-1.828a1.828,1.828,0,0,1,.326-1.219,1.138,1.138,0,0,1,.92-.366h1.069a1.259,1.259,0,0,1,1,.366,1.828,1.828,0,0,1,.326,1.219V127.2h-2.33a1.205,1.205,0,0,1-.988-.366Zm10.372,0a1.909,1.909,0,0,1-.311-1.219v-1.828a1.909,1.909,0,0,1,.311-1.219,1.191,1.191,0,0,1,.935-.366h1.069a1.354,1.354,0,0,1,1,.366,1.828,1.828,0,0,1,.311,1.219V127.2h-2.316a1.259,1.259,0,0,1-1.029-.366Z" transform="translate(49.866 -67.143)" fill="#78787b"/>
        <rect id="Rectangle_10" data-name="Rectangle 10" width="1.219" height="11.861" transform="translate(61.201 49.42)" fill="#78787b"/>
        <path id="Path_80" data-name="Path 80" d="M30.613,128.369H29.488a2.26,2.26,0,0,1-1.881-.69,3.873,3.873,0,0,1-.541-2.356V122.79H25.86v2.533a3.873,3.873,0,0,1-.541,2.356,2.26,2.26,0,0,1-1.881.69H22.313V122.79H21.095v5.579H17.766V125.2a3.114,3.114,0,0,0-1.855-2.708,5.076,5.076,0,0,0-5.1.758V117.7H9.559v10.643H6.3V124.7a3.492,3.492,0,0,0-.145-1.029,2.071,2.071,0,0,0-.379-.724,1.964,1.964,0,0,0-.569-.473,2.125,2.125,0,0,0-.69-.258,3.306,3.306,0,0,0-.745-.081H2.7a3.039,3.039,0,0,0-.7.081,2.178,2.178,0,0,0-.677.258,2.411,2.411,0,0,0-.569.473,2.316,2.316,0,0,0-.379.724A3.506,3.506,0,0,0,.229,124.7v2.275A3.385,3.385,0,0,0,.365,128a2.4,2.4,0,0,0,.379.745,2.125,2.125,0,0,0,.569.473,2.629,2.629,0,0,0,.677.271,3.445,3.445,0,0,0,.758,0H23.444a5.056,5.056,0,0,0,1.137-.122,3.383,3.383,0,0,0,.988-.379,2.789,2.789,0,0,0,.786-.7l.122-.177.109.177a2.79,2.79,0,0,0,.786.7,3.386,3.386,0,0,0,.988.379,5.812,5.812,0,0,0,1,.109h2.478V122.17H30.62Zm-25.536,0H2.749A1.246,1.246,0,0,1,1.76,128a1.909,1.909,0,0,1-.311-1.219v-1.828a1.909,1.909,0,0,1,.311-1.219,1.191,1.191,0,0,1,.935-.366H3.765a1.355,1.355,0,0,1,1,.366,1.909,1.909,0,0,1,.311,1.219Zm11.468,0H10.756v-3.588c1.737-1.355,3.385-1.737,4.59-1.158a1.909,1.909,0,0,1,1.158,1.592Z" transform="translate(0.083 -68.307)" fill="#78787b"/>
        <path id="Path_81" data-name="Path 81" d="M2.9,120.109a.637.637,0,0,0,.19.258,1.231,1.231,0,0,0,.42,0,1.357,1.357,0,0,0,.42,0,.515.515,0,0,0,.23-.217.759.759,0,0,0,.094-.23.826.826,0,0,0,0-.42.757.757,0,0,0-.094-.23.515.515,0,0,0-.23-.217,1.355,1.355,0,0,0-.42-.081,1.217,1.217,0,0,0-.42.041.637.637,0,0,0-.243.217,1.189,1.189,0,0,0-.081.23.528.528,0,0,0,0,.2.556.556,0,0,0,0,.217,1.188,1.188,0,0,0,.136.23Z" transform="translate(0.977 -67.859)" fill="#78787b"/>
        <path id="Path_82" data-name="Path 82" d="M1.137,120.118a.637.637,0,0,0,.243.217,1.235,1.235,0,0,0,.42,0,1.235,1.235,0,0,0,.42,0,.515.515,0,0,0,.23-.217.758.758,0,0,0,.094-.23.826.826,0,0,0,0-.42.759.759,0,0,0-.1-.23.516.516,0,0,0-.23-.217,1.22,1.22,0,0,0-.42-.081,1.221,1.221,0,0,0-.42.081.636.636,0,0,0-.243.217,1.192,1.192,0,0,0-.081.23.826.826,0,0,0,0,.42,1.19,1.19,0,0,0,.081.23Z" transform="translate(0.362 -67.868)" fill="#78787b"/>
        <path id="Path_83" data-name="Path 83" d="M32.9,120.109a.637.637,0,0,0,.19.258,1.178,1.178,0,0,0,.42,0,1.357,1.357,0,0,0,.42,0,.516.516,0,0,0,.23-.217.757.757,0,0,0,.1-.23.826.826,0,0,0,0-.42.759.759,0,0,0-.094-.23.516.516,0,0,0-.23-.217,1.351,1.351,0,0,0-.42-.081,1.159,1.159,0,0,0-.42.04.637.637,0,0,0-.243.217l-.094.23a1.031,1.031,0,0,0,0,.2,1.1,1.1,0,0,0,0,.217Z" transform="translate(11.593 -67.859)" fill="#78787b"/>
        <path id="Path_84" data-name="Path 84" d="M31.128,120.118a.636.636,0,0,0,.243.217,1.176,1.176,0,0,0,.42,0,1.35,1.35,0,0,0,.42,0,.513.513,0,0,0,.23-.217.758.758,0,0,0,.094-.23.827.827,0,0,0,0-.42.759.759,0,0,0-.094-.23.514.514,0,0,0-.23-.217,1.351,1.351,0,0,0-.42-.081,1.15,1.15,0,0,0-.42.081.636.636,0,0,0-.243.217,1.188,1.188,0,0,0-.081.23.528.528,0,0,0,0,.2.556.556,0,0,0,0,.217A1.19,1.19,0,0,0,31.128,120.118Z" transform="translate(10.989 -67.868)" fill="#78787b"/>
        <path id="Path_85" data-name="Path 85" d="M53.9,128.423v-4.861a3.493,3.493,0,0,0-.145-1.029,2.072,2.072,0,0,0-.379-.731,2.17,2.17,0,0,0-.569-.473,2.126,2.126,0,0,0-.69-.258,3.308,3.308,0,0,0-.745-.081H50.307a3.043,3.043,0,0,0-.7.081,2.179,2.179,0,0,0-.677.258,2.406,2.406,0,0,0-.569.473,2.073,2.073,0,0,0-.379.731,3.508,3.508,0,0,0-.136,1.029v2.275a3.384,3.384,0,0,0,.136,1.029,1.964,1.964,0,0,0,.948,1.219,2.626,2.626,0,0,0,.677.271,3.439,3.439,0,0,0,.758,0h2.288c0,1.747-1,1.9-1.855,1.9H49.439v1.355h1.355a2.829,2.829,0,0,0,3.114-3.184Zm-1.219-3.954v2.708H50.358a1.246,1.246,0,0,1-.988-.366,1.909,1.909,0,0,1-.311-1.219v-1.828a1.909,1.909,0,0,1,.311-1.219,1.191,1.191,0,0,1,.935-.366h1.069a1.353,1.353,0,0,1,1,.366,1.909,1.909,0,0,1,.311,1.219Z" transform="translate(16.936 -67.143)" fill="#78787b"/>
        <path id="Path_86" data-name="Path 86" d="M48.48,117.744v10.643H45.57v-3.643a3.493,3.493,0,0,0-.145-1.029,2.071,2.071,0,0,0-.379-.724,2.194,2.194,0,0,0-1.259-.724,3.345,3.345,0,0,0-.758-.081H41.972a2.952,2.952,0,0,0-.7.081,2.179,2.179,0,0,0-.677.258,1.962,1.962,0,0,0-.569.473,2.07,2.07,0,0,0-.379.724,3.508,3.508,0,0,0-.136.961h0v.771a3.642,3.642,0,0,1-.541,2.179,2.247,2.247,0,0,1-1.868.69H35.742v-6.133H34.415v6.223H31.26v-3.643a3.507,3.507,0,0,0-.136-1.029,2.315,2.315,0,0,0-.379-.731,2.232,2.232,0,0,0-.579-.473,2.179,2.179,0,0,0-.677-.258,3.425,3.425,0,0,0-.758-.081H27.648a2.846,2.846,0,0,0-.69.081,2.248,2.248,0,0,0-.69.258,2.408,2.408,0,0,0-.569.473,2.315,2.315,0,0,0-.379.731,3.505,3.505,0,0,0-.136,1.029v2.275a3.385,3.385,0,0,0,.136,1.029,2.4,2.4,0,0,0,.379.745,2.126,2.126,0,0,0,.569.473,2.708,2.708,0,0,0,.69.271,3.313,3.313,0,0,0,.745,0h2.281c0,1.747-.988,1.9-1.841,1.9H26.788v1.355h1.355a2.816,2.816,0,0,0,3.1-3.236h5.876a5.044,5.044,0,0,0,1.137-.122,3.55,3.55,0,0,0,.988-.379,2.79,2.79,0,0,0,.663-.6,1.881,1.881,0,0,0,.145.289,1.774,1.774,0,0,0,.569.473,2.623,2.623,0,0,0,.677.271,3.362,3.362,0,0,0,.758,0h7.67V117.649Zm-18.441,7.908v2.708H27.723a1.259,1.259,0,0,1-1-.366,1.909,1.909,0,0,1-.311-1.219v-1.828a1.909,1.909,0,0,1,.311-1.219,1.191,1.191,0,0,1,.935-.366h1.069a1.259,1.259,0,0,1,1,.366,1.828,1.828,0,0,1,.311,1.219ZM44.35,128.36H42.023a1.232,1.232,0,0,1-.988-.366,1.828,1.828,0,0,1-.311-1.219v-1.828a1.828,1.828,0,0,1,.311-1.219,1.191,1.191,0,0,1,.935-.366h1.056a1.246,1.246,0,0,1,1,.366,1.828,1.828,0,0,1,.326,1.219Z" transform="translate(8.916 -68.326)" fill="#78787b"/>
      </g>
    </g>
  </g>
</svg>
