<svg width="753" height="215" viewBox="0 0 753 215" fill="none" xmlns="http://www.w3.org/2000/svg">
<g clip-path="url(#clip0_192_74980)">
<path d="M272.808 102.36V62.5249H261.756V102.947C261.756 112.026 258.411 114.715 252.8 114.715C250.12 114.715 247.944 114.291 246.02 113.704L245.103 122.531C247.199 123.036 249.546 123.37 252.135 123.37C269.201 123.37 272.808 113.118 272.808 102.36Z" fill="#00714D"/>
<path d="M367.417 56.1334C370.52 56.1334 372.947 53.5249 372.947 50.4209C372.947 47.226 370.52 44.7085 367.417 44.7085C364.314 44.7085 361.886 47.317 361.886 50.4209C361.886 53.6159 364.324 56.1334 367.417 56.1334Z" fill="#00714D"/>
<path d="M374.289 44.2027C377.221 44.2027 379.477 41.847 379.477 38.9048C379.477 35.9627 377.221 33.6069 374.289 33.6069C371.438 33.6069 369.181 35.9627 369.181 38.9048C369.181 41.847 371.438 44.2027 374.289 44.2027Z" fill="#00714D"/>
<path d="M375.708 50.4209C375.708 53.6159 378.136 56.1334 381.319 56.1334C384.422 56.1334 386.85 53.5249 386.85 50.4209C386.85 47.226 384.422 44.7085 381.319 44.7085C378.136 44.7085 375.708 47.3069 375.708 50.4209Z" fill="#00714D"/>
<path d="M397.147 56.1334C400.33 56.1334 402.758 53.5249 402.758 50.4209C402.758 47.226 400.33 44.7085 397.147 44.7085C394.044 44.7085 391.616 47.317 391.616 50.4209C391.616 53.6159 394.044 56.1334 397.147 56.1334Z" fill="#00714D"/>
<path d="M411.049 56.1334C414.152 56.1334 416.58 53.5249 416.58 50.4209C416.58 47.226 414.152 44.7085 411.049 44.7085C407.946 44.7085 405.518 47.317 405.518 50.4209C405.518 53.6159 407.946 56.1334 411.049 56.1334Z" fill="#00714D"/>
<path d="M485.569 82.4389C485.569 74.118 484.481 65.8779 482.889 59.1544L472.089 60.671C473.51 67.0608 474.517 74.7954 474.517 83.1972C474.517 85.8057 474.265 89.9207 473.933 93.2774H471.001C463.627 93.2774 461.793 90.9216 461.793 83.9454V64.1996H451.235V84.2892C451.235 90.3352 449.895 93.9548 445.039 93.9548C440.103 93.9548 438.672 90.5071 438.672 84.2083V67.5664H427.621V82.7827C427.621 91.1036 425.525 93.2875 420.085 93.2875H418.665H417.405H411.21V62.5212H400.158V93.2774H389.691H388.431H381.48V62.5212H370.428V93.2774H360.052H358.702H352.929V81.438C352.929 69.1638 347.066 61.4394 333.586 61.4394C319.512 61.4394 312.228 71.1859 312.228 83.2073C312.228 90.8509 309.971 93.2875 305.942 93.2875H305.529H304.269H297.157V42.7754H286.115V102.023H304.279H305.539H305.549C310.566 102.023 314.505 99.92 316.6 95.5523C319.109 99.6672 323.975 102.023 333.848 102.023H358.712H360.062H388.441H389.701H417.415H418.675H420.005C426.2 102.023 429.636 99.8391 431.147 95.805C432.567 100.173 436.92 102.781 443.035 102.781C448.314 102.781 453.17 100.517 455.174 95.805C457.018 100.345 461.461 102.023 468.745 102.023H484.32C485.065 96.0578 485.569 88.576 485.569 82.4389ZM342.139 93.2875H334.936C326.312 93.2875 323.129 89.5871 323.129 82.1963C323.129 75.0481 326.725 70.1749 332.84 70.1749C338.956 70.1749 342.139 73.8753 342.139 82.7018V93.2875Z" fill="#00714D"/>
<path d="M534.3 42.7754H523.248V93.2875H497.367V102.023H534.3V42.7754Z" fill="#00714D"/>
<path d="M517.135 86.9798L504.904 42.1802L493.933 43.6968L505.912 86.9798H517.135Z" fill="#00714D"/>
<path d="M559.496 42.7754H548.444V102.023H559.496V42.7754Z" fill="#00714D"/>
<path d="M631.004 102.025V80.7624C631.004 68.9938 625.141 61.4312 612.074 61.4312C597.507 61.4312 590.213 71.1777 590.213 82.6127C590.213 94.4622 596.328 102.025 612.659 102.025H631.004ZM601.275 81.5207C601.275 74.9691 604.962 70.1767 611.238 70.1767C616.85 70.1767 620.194 73.7053 620.194 82.1071V93.2894H613.827C605.133 93.2894 601.275 89.417 601.275 81.5207Z" fill="#00714D"/>
<path d="M618.28 56.1334C621.383 56.1334 623.811 53.5249 623.811 50.4209C623.811 47.226 621.383 44.7085 618.28 44.7085C615.178 44.7085 612.75 47.317 612.75 50.4209C612.75 53.6159 615.178 56.1334 618.28 56.1334Z" fill="#00714D"/>
<path d="M604.379 56.1334C607.562 56.1334 609.99 53.5249 609.99 50.4209C609.99 47.226 607.562 44.7085 604.379 44.7085C601.276 44.7085 598.848 47.317 598.848 50.4209C598.848 53.6159 601.276 56.1334 604.379 56.1334Z" fill="#00714D"/>
<path d="M654.365 102.36V62.5249H643.313V102.947C643.313 112.026 639.969 114.715 634.357 114.715C631.677 114.715 629.501 114.291 627.577 113.704L626.65 122.531C628.746 123.036 631.093 123.37 633.682 123.37C650.758 123.37 654.365 113.118 654.365 102.36Z" fill="#00714D"/>
<path d="M678.727 42.7754H667.676V102.023H678.727V42.7754Z" fill="#00714D"/>
<path d="M675.715 122.531C677.811 123.036 680.158 123.37 682.747 123.37C699.834 123.37 703.43 113.118 703.43 102.36V62.5249H692.378V102.947C692.378 112.026 689.034 114.715 683.422 114.715C680.743 114.715 678.566 114.291 676.642 113.704L675.715 122.531Z" fill="#00714D"/>
<path d="M697.91 55.4654C701.094 55.4654 703.693 52.8569 703.693 49.6721C703.693 46.4772 701.094 43.8687 697.91 43.8687C694.727 43.8687 692.127 46.4772 692.127 49.6721C692.127 52.9378 694.727 55.4654 697.91 55.4654Z" fill="#00714D"/>
<path d="M734.993 61.4312C719.589 61.4312 712.799 71.5113 712.799 82.5217C712.799 94.4521 718.914 102.025 735.245 102.025H741.773V103.289C741.773 111.185 735.99 114.471 727.286 114.471C720.758 114.471 714.219 113.045 714.219 113.045L713.544 122.125C713.544 122.125 719.992 123.216 726.278 123.216C745.037 123.216 752.492 113.804 752.492 102.207V64.3733C752.502 64.3733 744.876 61.4312 734.993 61.4312ZM741.783 93.2894H736.423C727.628 93.2894 723.861 89.1744 723.861 81.5207C723.861 74.9691 727.548 70.1767 733.824 70.1767C738.599 70.1767 741.783 71.6933 741.783 71.6933V93.2894Z" fill="#00714D"/>
<path d="M274.601 133.903L268.657 151.859C267.791 154.428 267.217 156.389 266.713 159.058H266.612C266.149 156.591 265.534 154.225 264.718 151.758L258.915 133.903H251.128L245.798 168.623H252.568L254.513 152.628C254.926 149.595 255.278 146.865 255.49 143.781H255.591C256.004 146.562 256.87 149.696 257.797 152.527L263.076 168.623H269.685L275.165 151.182C276.032 148.452 276.596 145.985 277.059 143.771H277.16C277.412 146.187 277.724 148.756 278.238 152.052L280.696 168.613H287.718L282.338 133.893H274.601V133.903Z" fill="#00714D"/>
<path d="M296.119 131.799C293.862 131.799 292.069 133.598 292.069 135.762C292.069 137.976 293.862 139.776 296.119 139.776C298.375 139.776 300.219 137.976 300.219 135.762C300.219 133.548 298.375 131.799 296.119 131.799Z" fill="#00714D"/>
<path d="M299.392 143.062H292.834V168.631H299.392V143.062Z" fill="#00714D"/>
<path d="M321.026 142.498C316.875 142.498 313.903 144.611 312.362 147.644L312.311 147.594C312.563 146.259 312.674 144.247 312.674 143.064H306.468V168.634H313.027V156.289C313.027 151.81 315.646 148.008 318.971 148.008C321.378 148.008 322.094 149.606 322.094 152.275V168.634H328.602V150.677C328.612 146.198 326.768 142.498 321.026 142.498Z" fill="#00714D"/>
<path d="M342.29 143.062H335.732V168.631H342.29V143.062Z" fill="#00714D"/>
<path d="M339.007 131.799C336.751 131.799 334.958 133.598 334.958 135.762C334.958 137.976 336.751 139.776 339.007 139.776C341.264 139.776 343.108 137.976 343.108 135.762C343.108 133.548 341.264 131.799 339.007 131.799Z" fill="#00714D"/>
<path d="M354.694 150.111C354.694 148.514 355.923 147.493 358.482 147.493C360.074 147.493 361.766 147.745 363.197 148.16L363.398 142.963C361.867 142.71 360.225 142.498 358.734 142.498C351.561 142.498 347.914 146.198 347.914 150.677C347.914 159.372 358.22 156.794 358.22 161.324C358.22 163.022 356.578 164.054 354.07 164.054C352.125 164.054 350.171 163.69 348.589 163.285L348.438 168.684C350.08 168.937 351.924 169.149 353.767 169.149C360.739 169.149 365.141 165.752 365.141 160.717C365.151 152.427 354.694 154.277 354.694 150.111Z" fill="#00714D"/>
<path d="M378.418 133.448L371.86 135.197V143.063H367.498V148.159H371.91V161.121C371.91 167.086 373.653 169.148 379.295 169.148C381.088 169.148 382.982 168.896 384.624 168.481V163.183C383.697 163.436 382.519 163.598 381.451 163.598C379.194 163.598 378.428 162.668 378.428 159.382V148.169H384.634V143.073H378.428V133.448H378.418Z" fill="#00714D"/>
<path d="M395.784 148.21H395.683C395.996 146.41 396.147 144.348 396.147 143.064H389.941V168.633H396.499V158.189C396.499 151.091 398.857 148.008 403.572 148.978L403.884 142.497C399.481 142.143 397.013 144.964 395.784 148.21Z" fill="#00714D"/>
<path d="M420.137 151.757C419.311 154.173 418.243 157.571 417.679 159.886H417.628C417.064 157.571 416.399 155.053 415.624 152.839L412.188 143.062H404.915L414.294 168.631L413.427 171.098C412.098 174.9 410.657 175.881 408.511 175.881C407.282 175.881 406.204 175.679 405.025 175.315L404.612 180.976C405.69 181.229 407.07 181.391 408.199 181.391C414.042 181.391 416.712 178.975 419.734 170.997L430.181 143.062H423.159L420.137 151.757Z" fill="#00714D"/>
<path d="M456.204 142.546C448.467 142.546 443.188 148.309 443.188 156.276C443.188 165.386 447.852 169.137 455.076 169.137C462.712 169.137 468.092 163.374 468.092 155.356C468.102 146.56 463.438 142.546 456.204 142.546ZM455.65 163.535C451.852 163.535 449.958 160.856 449.958 155.609C449.958 150.361 452.829 148.097 455.751 148.097C459.599 148.097 461.332 150.776 461.332 155.71C461.332 160.907 458.874 163.535 455.65 163.535Z" fill="#00714D"/>
<path d="M474.71 141.001V143.053H470.247V148.149H474.71V168.623H481.218V148.149H487.162V143.053H481.218V140.89C481.218 137.492 482.497 136.006 485.368 136.006C486.346 136.006 487.524 136.107 488.542 136.471L489.005 131.072C487.675 130.759 486.235 130.658 484.855 130.658C477.883 130.668 474.71 134.065 474.71 141.001Z" fill="#00714D"/>
<path d="M509.398 133.903H502.738V168.622H509.398V133.903Z" fill="#00714D"/>
<path d="M531.076 142.497C526.925 142.497 523.953 144.61 522.412 147.643L522.362 147.593C522.613 146.258 522.714 144.246 522.714 143.063H516.508V168.633H523.067V156.288C523.067 151.809 525.676 148.007 529.011 148.007C531.418 148.007 532.134 149.605 532.134 152.274V168.633H538.642V150.676C538.662 146.198 536.818 142.497 531.076 142.497Z" fill="#00714D"/>
<path d="M556.947 154.792C556.333 156.541 555.819 158.492 555.406 160.241H555.305C554.842 158.391 554.227 156.328 553.613 154.579L549.563 143.053H542.39L551.819 168.623H558.478L568.009 143.053H561.037L556.947 154.792Z" fill="#00714D"/>
<path d="M581.851 142.497C574.215 142.497 569.913 148.26 569.913 156.075C569.913 165.074 574.426 169.138 582.526 169.138C585.7 169.138 588.934 168.572 591.654 167.49L591.039 162.395C588.833 163.426 586.123 163.992 583.604 163.992C578.889 163.992 576.532 161.677 576.582 156.894H592.369C592.52 155.813 592.57 154.781 592.57 153.912C592.57 147.593 589.286 142.497 581.851 142.497ZM576.673 152.426C577.036 149.342 578.93 147.33 581.65 147.33C584.42 147.33 586.163 149.231 586.052 152.426H576.673Z" fill="#00714D"/>
<path d="M603.378 150.111C603.378 148.514 604.607 147.493 607.176 147.493C608.768 147.493 610.461 147.745 611.891 148.16L612.093 142.963C610.551 142.71 608.919 142.498 607.428 142.498C600.255 142.498 596.608 146.198 596.608 150.677C596.608 159.372 606.915 156.794 606.915 161.324C606.915 163.022 605.272 164.054 602.764 164.054C600.819 164.054 598.865 163.69 597.283 163.285L597.132 168.684C598.774 168.937 600.618 169.149 602.462 169.149C609.433 169.149 613.836 165.752 613.836 160.717C613.826 152.427 603.378 154.277 603.378 150.111Z" fill="#00714D"/>
<path d="M627.105 133.448L620.547 135.197V143.063H616.195V148.159H620.597V161.121C620.597 167.086 622.34 169.148 627.982 169.148C629.775 169.148 631.669 168.896 633.311 168.481V163.183C632.384 163.436 631.206 163.598 630.128 163.598C627.871 163.598 627.105 162.668 627.105 159.382V148.169H633.311V143.073H627.105V133.448Z" fill="#00714D"/>
<path d="M668.31 142.497C664.008 142.497 661.188 145.126 660.009 147.643C659.394 145.176 657.5 142.497 652.987 142.497C649.199 142.497 646.116 144.509 644.585 147.643H644.484C644.736 146.147 644.837 144.246 644.837 143.063H638.631V168.633H645.189V156.389C645.189 151.607 648.01 148.007 651.032 148.007C653.541 148.007 654.055 149.908 654.055 152.426V168.633H660.513V156.389C660.513 151.404 663.485 148.007 666.356 148.007C668.764 148.007 669.378 149.706 669.378 152.426V168.633H675.937V151.04C675.947 145.227 673.227 142.497 668.31 142.497Z" fill="#00714D"/>
<path d="M693.152 142.498C685.516 142.498 681.214 148.261 681.214 156.076C681.214 165.075 685.727 169.139 693.827 169.139C697.001 169.139 700.234 168.573 702.944 167.491L702.33 162.396C700.124 163.427 697.414 163.993 694.895 163.993C690.18 163.993 687.823 161.678 687.873 156.895H703.66C703.811 155.814 703.861 154.782 703.861 153.913C703.871 147.594 700.587 142.498 693.152 142.498ZM687.984 152.427C688.347 149.343 690.241 147.331 692.961 147.331C695.731 147.331 697.474 149.232 697.363 152.427H687.984Z" fill="#00714D"/>
<path d="M723.899 142.498C719.748 142.498 716.776 144.611 715.235 147.644L715.184 147.594C715.436 146.259 715.537 144.247 715.537 143.064H709.331V168.634H715.889V156.289C715.889 151.81 718.499 148.008 721.833 148.008C724.241 148.008 724.956 149.606 724.956 152.275V168.634H731.465V150.677C731.485 146.198 729.641 142.498 723.899 142.498Z" fill="#00714D"/>
<path d="M746.294 133.448L739.736 135.197V143.063H735.384V148.159H739.786V161.12C739.786 167.085 741.529 169.148 747.171 169.148C748.964 169.148 750.858 168.895 752.5 168.481V163.183C751.573 163.436 750.395 163.597 749.317 163.597C747.06 163.597 746.294 162.667 746.294 159.381V148.169H752.5V143.073H746.294V133.448Z" fill="#00714D"/>
<path d="M78.0885 54.8692C60.972 61.2187 63.6921 77.3752 63.6921 77.3752C64.4578 74.9993 69.767 64.3327 79.912 61.8253C68.5681 73.4726 71.7819 88.0418 71.7819 88.0418C72.1647 86.1815 75.3986 71.319 86.6518 68.1949C79.6601 77.4157 82.4809 89.3461 83.1962 91.9243C83.1962 87.324 87.8305 79.3064 90.6715 75.6565C93.5427 81.6217 93.1397 93.0769 93.1397 93.0769H91.014L93.0893 106.625H91.4069L93.0087 120.173H91.6185L93.3714 137.502L87.2965 140.819V141.628H104.342V140.819L98.2676 137.502L100.021 120.173H98.6303L100.232 106.625H98.5597L100.625 93.0769H98.4993C98.4993 93.0769 98.0862 81.6116 100.968 75.6565C103.809 79.3064 108.443 87.324 108.443 91.9243C109.158 89.3461 111.979 77.4157 104.977 68.1949C116.24 71.319 119.474 86.1815 119.847 88.0418C119.847 88.0418 123.061 73.4726 111.707 61.8253C121.862 64.3327 127.171 74.9993 127.927 77.3752C127.927 77.3752 130.637 61.2187 113.53 54.8692C113.883 54.8692 114.628 54.6569 115.847 54.6569C119.575 54.6569 125.176 56.2443 129.075 58.0844C129.075 58.0844 125.297 48.4086 110.589 48.4086C110.004 48.4086 109.531 48.439 109.531 48.439C109.531 48.439 110.035 44.7587 116.724 44.7587C118.94 44.7587 120.774 45.1227 120.774 45.1227C120.774 45.1227 116.915 41.5335 111.163 41.5335C104.473 41.5335 100.152 46.9022 99.4161 47.6402C96.5046 45.517 100.061 42.0087 101.552 41.0381C101.552 41.0381 100.998 40.6842 100.111 40.6842C99.0232 40.6842 98.0359 41.3515 97.6933 41.7458C97.6933 41.7458 97.3609 38.8946 99.9198 37.7319C98.1467 37.7319 95.7893 39.4608 95.7893 40.0371C95.7893 39.4608 93.4419 37.7319 91.6688 37.7319C94.2277 38.8946 93.8953 41.7458 93.8953 41.7458C93.5527 41.3515 92.5655 40.6842 91.4774 40.6842C90.5909 40.6842 90.0368 41.0381 90.0368 41.0381C91.5177 42.0087 95.074 45.517 92.1725 47.6402C91.4371 46.9022 87.1051 41.5335 80.4157 41.5335C74.6632 41.5335 70.8047 45.1227 70.8047 45.1227C70.8047 45.1227 72.6382 44.7587 74.8546 44.7587C81.5339 44.7587 82.0477 48.439 82.0477 48.439C82.0477 48.439 81.5742 48.4086 80.9899 48.4086C66.2812 48.4086 62.5033 58.0844 62.5033 58.0844C66.4021 56.2443 72.0035 54.6569 75.7311 54.6569C76.9904 54.6569 77.7359 54.8692 78.0885 54.8692ZM145.738 130.476C126.244 130.476 95.8699 150.575 95.8699 150.575L95.8195 150.606L95.7691 150.575C95.7691 150.575 65.3947 130.476 45.9007 130.476C35.3628 130.476 30.0435 134.115 28.4014 135.642C31.061 134.055 38.5363 134.156 38.5363 134.156C45.2861 134.156 54.8468 136.623 61.788 139.949C77.1717 147.31 89.2308 154.609 89.2308 154.609L89.3819 154.7L74.3307 164.275C74.3307 164.275 69.223 158.148 64.7197 158.148C61.8082 158.148 61.2843 159.857 61.2843 160.625C61.2843 161.383 61.7478 162.971 63.672 162.971C65.5861 162.971 65.6768 161.636 65.6768 161.191C65.9286 161.292 66.1201 161.252 66.3719 161.616C66.6238 161.98 69.5857 166.671 69.5857 166.671C69.5857 166.671 60.0351 171.979 59.3601 171.979C58.8665 171.979 57.9295 170.817 57.0027 170.817C56.0758 170.817 56.096 171.666 56.096 171.807C56.096 172.323 58.4333 176.317 61.7477 176.317C62.2615 176.317 63.9843 176.408 64.891 176.064C68.548 174.659 72.6281 172.636 73.5348 172.131C73.5348 172.131 76.8292 176.256 79.1362 176.256C79.1362 176.256 79.9724 176.276 80.2847 176.276C81.4433 176.276 82.7328 176.003 82.7328 176.003C82.7328 176.003 84.4858 177.247 85.8055 177.247C87.1353 177.247 88.6163 176.468 88.6163 174.921C88.6163 173.375 87.5786 172.363 86.1883 172.363C84.7981 172.363 84.1029 173.577 84.1029 174.082C83.7503 174.082 83.4884 174.103 83.4884 174.103L78.834 169.179L95.8497 158.684L112.876 169.179L108.211 174.103C108.211 174.103 107.959 174.082 107.597 174.082C107.597 173.577 106.901 172.363 105.511 172.363C104.121 172.363 103.093 173.385 103.093 174.921C103.093 176.468 104.564 177.247 105.894 177.247C107.224 177.247 108.977 176.003 108.977 176.003C108.977 176.003 110.266 176.276 111.425 176.276C111.737 176.276 112.573 176.256 112.573 176.256C114.88 176.256 118.175 172.131 118.175 172.131C119.081 172.636 123.162 174.659 126.819 176.064C127.725 176.408 129.448 176.317 129.962 176.317C133.266 176.317 135.614 172.323 135.614 171.807C135.614 171.666 135.634 170.817 134.707 170.817C133.78 170.817 132.843 171.979 132.349 171.979C131.674 171.979 122.124 166.671 122.124 166.671C122.124 166.671 125.076 161.98 125.328 161.616C125.579 161.262 125.771 161.303 126.023 161.191C126.023 161.636 126.103 162.971 128.027 162.971C129.942 162.971 130.415 161.383 130.415 160.625C130.415 159.857 129.891 158.148 126.98 158.148C122.466 158.148 117.369 164.275 117.369 164.275L102.318 154.7L102.469 154.609C102.469 154.609 114.538 147.32 129.911 139.949C136.853 136.623 146.413 134.156 153.163 134.156C153.163 134.156 160.648 134.055 163.298 135.642C161.595 134.115 156.286 130.476 145.738 130.476Z" fill="#00714D"/>
<path d="M191.636 215H0V0H191.636V215ZM10.8703 204.091H180.766V10.9092H10.8703V204.091Z" fill="#00714D"/>
</g>
<defs>
<clipPath id="clip0_192_74980">
<rect width="752.5" height="215" fill="white"/>
</clipPath>
</defs>
</svg>
