<svg width="188" height="65" viewBox="0 0 188 65" fill="none" xmlns="http://www.w3.org/2000/svg">
<g clip-path="url(#clip0_11_24)">
<path d="M125.5 62.3L124.9 62.4L122.5 64.8C130.2 63.2 141.4 62.1 153.8 62.1C166.2 62.1 177.4 63.2 185.1 64.8L187.7 62.2C179.7 60.5 168.5 59.6 156.7 59.6C144.9 59.7 133.5 60.7 125.5 62.3Z" fill="#005E50"/>
<path d="M124.9 62.6L125 62C126.7 54 127.7 42.6 127.7 30.7C127.7 18.9 126.7 7.70001 125.1 -0.299988L122.5 2.30001C124.1 10 125.2 21.2 125.2 33.6C125.2 46 124.1 57.2 122.5 64.9L124.9 62.6Z" fill="#005E50"/>
<path d="M4.8 28C4.8 27.4 4.2 26.8 2.9 26C2.5 26.4 2.1 27.1 1.6 27.8C1.5 28 1.5 28.2 1.5 28.3C1.5 28.8 1.9 29.1 2.5 29.1C3.1 29.1 3.7 28.9 4.4 28.7C4.6 28.5 4.8 28.2 4.8 28ZM5.5 21.1L4.7 22.4L2.8 21.2L2.3 22.3L0.3 21.1L1.1 19.7L3 20.9L3.6 19.8L5.5 21.1ZM6.1 27C6.1 27.4 5.8 28.1 5.4 29C5 29.4 4.8 29.8 4.4 30C3.8 30.4 3.1 30.7 2.3 30.9C1.8 31 1.3 30.9 0.9 30.7C0.3 30.5 0 30.1 0 29.7C0 28.9 0.6 27.7 1.9 26.1L3.5 24.1C3.7 24.3 4 24.6 4.5 25C5 25.4 5.3 25.6 5.5 25.7C5.9 26 6.1 26.4 6.1 27Z" fill="#005E50"/>
<path d="M13.7 30C13.7 31.2 13.3 32.5 12.3 33.8C11.4 35 10.5 35.7 9.50001 35.7C9.10001 35.7 8.30001 35.5 7.10001 35.1C5.90001 34.7 5.20001 34.3 5.20001 33.9L5.40001 33.7C5.50001 33.7 5.80001 33.9 6.50001 34.1C7.20001 34.3 7.70001 34.5 8.10001 34.5C9.00001 34.5 10.1 33.9 11.3 32.7C12.5 31.5 13.2 30.5 13.2 29.6C13.2 29 12.5 28.1 11 27C11.1 26.6 11.3 25.9 11.4 25C12.2 25.6 12.7 26.2 13.1 26.8C13.4 27.8 13.7 28.8 13.7 30Z" fill="#005E50"/>
<path d="M20 30.8H16.7C16.5 26.7 16.2 22.9 15.8 19.1C16.1 18.7 16.4 18.3 16.9 17.6L17.4 24C17.7 26.8 17.8 28.4 17.9 28.6L18.1 28.8C18.3 29 18.5 29.1 19 29.1H19.9L20 30.8Z" fill="#005E50"/>
<path d="M35.6 29.1H19.3V30.8H35.6V29.1Z" fill="#005E50"/>
<path d="M38.5 29.1H35.2V30.8H38.5V29.1Z" fill="#005E50"/>
<path d="M46.7 34.2L45.9 35.5L44 34.4L44.8 33.1L46.7 34.2ZM51.9 30.8H47.3C46.9 30.8 46.6 30.5 46.5 29.9C46.4 29.7 46.4 29.3 46.3 28.6C46.1 28.8 45.8 29 45.2 29.4C44.8 29.7 44.4 29.9 44.1 30.1C43.6 30.6 42.9 30.9 42.1 30.9H38V29.2H42.2C43.4 29.2 44.8 28.6 46.3 27.3C45.7 27.1 44.7 26.9 43.4 26.7L42.5 26.5C42.1 26.5 41.4 26.8 40.6 27.4V27.3C40.6 27.1 40.7 26.9 40.8 26.6C41.3 25.4 42.1 24.7 43.1 24.7C43.6 24.7 44.6 24.9 45.8 25.2C47.7 25.7 49 26 49.9 26H50.4C50.9 26 51.1 26 51 26C50.8 26.4 50.6 27 50.3 27.8C50.1 27.8 49.9 27.8 49.7 27.8C48.5 27.8 47.7 28 46.9 28.2C46.9 28.6 47.1 28.8 47.3 29L47.5 29.1H51.8V30.8H51.9Z" fill="#005E50"/>
<path d="M57.3 21.8L56.5 23.1L54.7 22L54 23.1L52 21.9L52.8 20.5L54.7 21.7L55.3 20.6L57.3 21.8ZM58 30.8H57C56.7 30.8 56.6 30.7 56.3 30.5C56.2 30.4 56.1 30.3 56 30.1C55.9 29.9 55.8 29.7 55.8 29.7C55.7 29.7 55.6 29.9 55.4 30.2C55.2 30.6 55 30.7 55 30.7H51.5V29H56L56.1 26.8C56.5 26.3 57 25.6 57.6 24.9V25.1C57.6 25.8 57.5 26.9 57.2 28.3C57.1 28.7 57.1 28.7 57.1 28.8C57.1 28.9 57.2 29 57.5 29H58V30.8Z" fill="#005E50"/>
<path d="M63.3 20.1L62.3 22.1L62.1 22L62.6 27.7C62.6 28.1 62.5 28.8 62.3 29.6C62.1 30.5 61.9 30.9 61.8 30.9H57.3V29.2H61.5C61.6 29.2 61.6 29.1 61.6 28.8C61.6 27.6 61.2 25.1 60.6 21.2L60.5 21.1C60.3 20.9 60.1 20.8 60.1 20.6C60.1 20.4 60.1 20.3 60.2 20.2L61.1 18.7C61.3 18.4 61.4 18.3 61.5 18.3L61.7 18.5L61.6 18.8L61.5 19C61.5 19.1 61.6 19.2 61.7 19.3C62.4 19.6 62.9 19.9 63.3 20.1Z" fill="#005E50"/>
<path d="M67.6 28.7C67.6 29.3 67.3 30.3 66.8 31.6C66.5 28.6 66.2 25 65.7 20.7C65.6 20.3 66.1 19.3 66.9 17.8C67 17.9 67.1 19.8 67.3 23.2L67.6 28.7Z" fill="#005E50"/>
<path d="M79.7 28C79.7 27.4 79.1 26.8 77.8 26C77.4 26.4 77 27.1 76.5 27.8C76.4 28 76.4 28.2 76.4 28.3C76.4 28.8 76.8 29.1 77.4 29.1C78 29.1 78.6 28.9 79.3 28.7C79.6 28.5 79.7 28.2 79.7 28ZM80.4 21.1L79.6 22.4L77.7 21.2L77.2 22.3L75.2 21.1L76 19.7L77.9 20.9L78.5 19.8L80.4 21.1ZM80.9 27C80.9 27.4 80.7 28.1 80.3 29C79.9 29.4 79.7 29.8 79.3 30C78.7 30.4 78 30.7 77.2 30.9C76.7 31 76.2 30.9 75.8 30.7C75.3 30.4 75 30.1 75 29.6C75 28.8 75.6 27.6 76.9 26L78.5 24C78.7 24.2 79 24.5 79.5 24.9C80 25.3 80.3 25.5 80.5 25.6C80.8 26 80.9 26.4 80.9 27Z" fill="#005E50"/>
<path d="M88.7 30C88.7 31.2 88.3 32.5 87.3 33.8C86.4 35 85.5 35.7 84.5 35.7C84.1 35.7 83.3 35.5 82.1 35.1C80.9 34.7 80.2 34.3 80.2 33.9L80.4 33.7C80.5 33.7 80.8 33.9 81.5 34.1C82.2 34.3 82.7 34.5 83.1 34.5C84 34.5 85.1 33.9 86.3 32.7C87.5 31.5 88.2 30.5 88.2 29.6C88.2 29 87.5 28.1 86 27C86.1 26.6 86.3 25.9 86.4 25C87.2 25.6 87.7 26.2 88.1 26.8C88.4 27.8 88.7 28.8 88.7 30Z" fill="#005E50"/>
<path d="M93 28.7C93 29.3 92.7 30.3 92.2 31.6C91.9 28.6 91.6 25 91.1 20.7C91 20.3 91.5 19.3 92.3 17.8C92.4 17.9 92.5 19.8 92.7 23.2L93 28.7Z" fill="#005E50"/>
<path d="M99.6 21.5L98.8 22.8L96.8 21.6L97.6 20.3L99.6 21.5ZM101.8 30C101.8 31.2 101.4 32.5 100.4 33.8C99.5 35 98.6 35.7 97.6 35.7C97.2 35.7 96.4 35.5 95.2 35.1C94 34.7 93.4 34.3 93.4 33.9L93.6 33.7C93.7 33.7 94 33.9 94.7 34.1C95.4 34.3 95.9 34.5 96.3 34.5C97.2 34.5 98.3 33.9 99.5 32.7C100.7 31.5 101.4 30.5 101.4 29.6C101.4 29 100.7 28.1 99.2 27C99.3 26.6 99.5 25.9 99.6 25C100.4 25.6 100.9 26.2 101.3 26.8C101.5 27.8 101.8 28.8 101.8 30Z" fill="#005E50"/>
<path d="M108.6 28.2C108.6 27.8 108.5 27.5 108.2 27C107.9 26.6 107.7 26.3 107.3 26.3C107 26.3 106.8 26.5 106.4 26.8C106 27.1 105.9 27.4 106 27.7C106 28 106.3 28.1 106.6 28.3C106.9 28.4 107.2 28.5 107.5 28.5C108.1 28.7 108.5 28.5 108.6 28.2ZM109.9 28.5C109.9 30.1 109.5 31.6 108.9 33C108.5 33.7 108.1 34.3 107.6 34.9C106.9 35.6 106.3 35.9 105.6 35.9C105.1 35.8 104.3 35.7 103.2 35.5C102 35.2 101.2 35 101.2 34.8C101.2 34.7 101.3 34.6 101.5 34.6C101.8 34.6 102.1 34.7 102.6 34.8C103.1 34.9 103.5 35 103.8 35C104.1 35 104.3 35 104.5 34.9C105.6 34.5 106.6 33.8 107.6 32.9C108.7 31.8 109.2 30.9 109.2 30C109.2 29.6 109.2 29.2 109 28.9C108.6 29.7 108.3 30.2 107.8 30.4C107.5 30.6 107.2 30.6 106.6 30.6C106.2 30.6 105.8 30.3 105.5 29.8C105.3 29.4 105.2 29 105.2 28.5C105.2 28 105.5 27.2 106.1 26.2C106.7 25.1 107.3 24.6 107.8 24.6C108.2 24.6 108.5 25 109 25.9C109.6 26.6 109.9 27.5 109.9 28.5Z" fill="#005E50"/>
<path d="M2.79999 39.5L5.19999 45.6L7.49999 39.5H8.99999V47.5H7.69999V42L5.49999 47.5H4.59999L2.69999 42V47.5H1.29999V39.5H2.79999Z" fill="#005E50"/>
<path d="M10.1 47.5H11.4V41.7H10.1V47.5ZM10.1 40.6H11.4V39.5H10.1V40.6Z" fill="#005E50"/>
<path d="M12.3 41.8H13.6V42.2C13.9 42 14.1 41.8 14.4 41.8C14.7 41.8 15 41.6 15.3 41.6C15.6 41.6 15.8 41.6 16.1 41.7C16.4 41.8 16.5 41.9 16.7 42.1C16.9 42.3 17 42.5 17.1 42.6C17.2 42.7 17.2 43 17.2 43.3V47.4H15.9V43.4C15.9 43 15.8 42.8 15.7 42.7C15.5 42.5 15.3 42.5 15.2 42.5C15 42.5 14.8 42.5 14.6 42.6C14.4 42.7 14.2 42.8 14.1 43C13.9 43.2 13.8 43.3 13.7 43.4C13.6 43.6 13.6 43.8 13.6 43.9V47.4H12.4C12.3 47.4 12.3 41.8 12.3 41.8Z" fill="#005E50"/>
<path d="M18.3 47.5H19.6V41.7H18.3V47.5ZM18.3 40.6H19.6V39.5H18.3V40.6Z" fill="#005E50"/>
<path d="M21.9 45.6C21.9 45.8 21.9 46 22 46.1C22.1 46.3 22.1 46.4 22.3 46.5L22.7 46.7C22.8 46.7 23 46.8 23.1 46.8C23.2 46.8 23.4 46.8 23.5 46.8C23.7 46.8 23.8 46.7 23.9 46.7L24.2 46.4C24.3 46.3 24.3 46.1 24.3 46C24.3 45.8 24.3 45.7 24.2 45.6L23.9 45.3C23.8 45.2 23.6 45.1 23.5 45.1C23.3 45 23.2 45 23.1 44.9C22.8 44.8 22.6 44.7 22.4 44.6C22.1 44.5 22 44.4 21.8 44.2C21.6 44 21.4 43.9 21.4 43.8C21.3 43.6 21.2 43.4 21.2 43.1C21.2 42.8 21.3 42.7 21.4 42.4C21.5 42.2 21.7 42 21.8 42C22 41.9 22.2 41.8 22.5 41.7C22.8 41.6 23 41.6 23.3 41.6C23.7 41.6 23.9 41.6 24.2 41.7C24.5 41.8 24.7 41.9 24.9 42C25.1 42.2 25.3 42.4 25.4 42.5C25.5 42.7 25.6 42.9 25.6 43.3H25.5H25.3H25H24.7H23.8C23.8 43.1 23.7 43 23.7 42.9L23.5 42.6L23.2 42.5H23C22.7 42.5 22.6 42.6 22.4 42.7C22.2 42.8 22.2 43 22.2 43.1L22.3 43.5L22.6 43.8C22.7 43.9 22.9 44 23 44C23.2 44.1 23.3 44.1 23.4 44.2C23.7 44.3 23.8 44.4 24.1 44.5C24.4 44.6 24.5 44.7 24.7 44.9C24.9 45 25.1 45.2 25.1 45.3C25.2 45.5 25.3 45.7 25.3 45.9C25.3 46.3 25.2 46.5 25.1 46.7C24.9 47 24.7 47.1 24.6 47.2C24.3 47.4 24.2 47.5 23.8 47.6C23.5 47.7 23.2 47.7 22.8 47.7C22.4 47.7 22.2 47.7 21.9 47.6C21.6 47.5 21.4 47.4 21.2 47.2C21 47 20.8 46.8 20.7 46.6C20.6 46.3 20.5 46.1 20.5 45.7H21.8C21.9 45.9 21.9 45.6 21.9 45.6Z" fill="#005E50"/>
<path d="M28 40.1V41.8H28.9V42.7H28V46.3C28 46.5 28 46.7 28.1 46.7L28.4 46.8H28.6C28.7 46.8 28.9 46.8 29 46.7V47.6C28.8 47.6 28.6 47.7 28.5 47.7C28.3 47.7 28.1 47.7 28.1 47.7C27.9 47.7 27.7 47.7 27.6 47.6C27.4 47.6 27.2 47.5 27.2 47.4C27.1 47.3 26.9 47.2 26.9 47C26.8 46.8 26.8 46.6 26.8 46.5V42.7H25.9V41.8H26.8V40.1H28Z" fill="#005E50"/>
<path d="M29.7 41.8H30.9L31 42.3C31.2 42.1 31.4 41.9 31.5 41.9C31.7 41.8 31.9 41.7 32.1 41.7H32.4L32.8 41.8V42.9C32.4 42.7 32.2 42.7 32.2 42.7C32 42.7 31.8 42.7 31.8 42.8C31.6 42.9 31.5 43 31.4 43.1C31.3 43.2 31.2 43.4 31.2 43.5C31.1 43.6 31.1 43.8 31.1 43.9V47.4H29.8C29.7 47.4 29.7 41.8 29.7 41.8Z" fill="#005E50"/>
<path d="M35.8 45.8L37.1 41.9H38.4L36 48.8C35.9 49.1 35.8 49.2 35.7 49.4C35.6 49.6 35.4 49.7 35.3 49.8C35.3 49.9 35.2 50 35 50C34.8 50 34.7 50 34.5 50C34.4 50 34.2 50 34.1 50C34 50 33.8 49.9 33.7 49.8V48.8L33.9 48.9L34.1 49L34.3 49.1H34.4L34.6 49L34.7 48.8L34.8 48.5L34.9 48.2L35.2 47.4L33.1 41.6H34.5L35.8 45.8Z" fill="#005E50"/>
<path d="M42.7 44.7C42.7 45 42.7 45.2 42.8 45.5C42.9 45.8 43 45.9 43.1 46.1C43.2 46.3 43.4 46.5 43.5 46.5C43.7 46.6 43.9 46.7 44.1 46.7C44.4 46.7 44.5 46.6 44.7 46.5C44.9 46.4 45.1 46.2 45.1 46.1C45.1 46 45.4 45.7 45.4 45.5C45.5 45.2 45.5 45 45.5 44.7C45.5 44.4 45.5 44.2 45.4 43.9C45.3 43.6 45.2 43.5 45.1 43.3C45 43.1 44.8 42.9 44.7 42.9C44.6 42.9 44.3 42.7 44.1 42.7C43.9 42.7 43.7 42.8 43.5 42.9C43.3 43 43.1 43.2 43.1 43.3C43 43.5 42.8 43.7 42.8 43.9C42.7 44.1 42.7 44.4 42.7 44.7ZM41.3 44.7C41.3 44.3 41.4 43.9 41.5 43.5C41.6 43.1 41.8 42.8 42 42.5C42.3 42.2 42.5 42.1 42.9 41.9C43.3 41.7 43.6 41.6 44.1 41.6C44.5 41.6 44.9 41.7 45.3 41.9C45.7 42.1 45.9 42.3 46.2 42.5C46.5 42.8 46.6 43.1 46.7 43.5C46.8 43.9 46.9 44.2 46.9 44.7C46.9 45.1 46.8 45.5 46.7 45.9C46.6 46.3 46.4 46.6 46.2 46.9C45.9 47.2 45.7 47.3 45.3 47.5C44.9 47.7 44.6 47.8 44.1 47.8C43.7 47.8 43.3 47.7 42.9 47.5C42.5 47.3 42.3 47.1 42 46.9C41.7 46.6 41.6 46.3 41.5 45.9C41.4 45.4 41.3 45 41.3 44.7Z" fill="#005E50"/>
<path d="M48.4 41.8V40.5C48.4 40.3 48.4 40.1 48.5 40.1C48.6 39.9 48.7 39.8 48.8 39.7C48.9 39.6 49.1 39.5 49.2 39.4C49.3 39.3 49.6 39.3 49.8 39.3C49.9 39.3 50.1 39.3 50.2 39.4C50.4 39.5 50.6 39.5 50.7 39.7V40.6C50.5 40.5 50.3 40.4 50.3 40.4L50.1 40.3H50C49.9 40.4 49.9 40.5 49.9 40.7V41.9H50.9V42.8H49.9V47.6H48.6V42.8H47.6V41.9L48.4 41.8Z" fill="#005E50"/>
<path d="M55.2 43.4C55.2 43.9 55.3 44.5 55.4 44.9C55.6 45.3 55.8 45.7 55.9 46C56.2 46.3 56.3 46.4 56.7 46.6C57 46.8 57.2 46.8 57.6 46.8C57.9 46.8 58.1 46.7 58.4 46.6C58.7 46.5 58.8 46.3 59 46.2C59.2 46 59.4 45.8 59.4 45.5C59.5 45.2 59.6 45 59.7 44.7H61C60.9 45.1 60.8 45.5 60.6 45.9C60.4 46.3 60.2 46.6 59.9 46.9C59.6 47.2 59.3 47.4 58.8 47.5C58.4 47.7 57.9 47.8 57.5 47.8C57 47.8 56.4 47.7 56 47.5C55.6 47.3 55.1 47.1 54.8 46.6C54.4 46.2 54.2 45.8 54.1 45.3C53.9 44.8 53.8 44.1 53.8 43.4C53.8 43 53.8 42.7 53.9 42.3C54 41.9 54.1 41.7 54.3 41.3C54.5 41 54.7 40.7 54.8 40.5C55 40.2 55.2 40.1 55.5 39.9C55.8 39.7 56.1 39.5 56.4 39.5C56.8 39.4 57.1 39.3 57.5 39.3C58 39.3 58.5 39.4 58.8 39.5C59.2 39.6 59.5 39.9 59.9 40C60.2 40.3 60.4 40.5 60.6 40.8C60.8 41.2 61 41.5 61 41.9H59.7C59.5 41.3 59.3 40.9 58.8 40.6C58.4 40.3 58 40.2 57.5 40.2C57.1 40.2 56.8 40.3 56.5 40.5C56.2 40.7 56 40.9 55.8 41.2C55.6 41.5 55.4 41.8 55.3 42.2C55.3 42.7 55.2 42.9 55.2 43.4Z" fill="#005E50"/>
<path d="M63.3 44.7C63.3 45 63.3 45.2 63.4 45.5C63.5 45.8 63.6 45.9 63.7 46.1C63.8 46.3 64 46.5 64.1 46.5C64.3 46.6 64.5 46.7 64.7 46.7C64.9 46.7 65.1 46.6 65.3 46.5C65.5 46.4 65.7 46.2 65.7 46.1C65.8 45.9 66 45.7 66 45.5C66.1 45.2 66.1 45 66.1 44.7C66.1 44.4 66.1 44.2 66 43.9C65.9 43.6 65.8 43.5 65.7 43.3C65.6 43.1 65.4 42.9 65.3 42.9C65.2 42.9 64.9 42.7 64.7 42.7C64.5 42.7 64.3 42.8 64.1 42.9C63.9 43 63.7 43.2 63.7 43.3C63.6 43.5 63.4 43.7 63.4 43.9C63.4 44.1 63.3 44.4 63.3 44.7ZM62.1 44.7C62.1 44.3 62.2 43.9 62.3 43.5C62.4 43.1 62.6 42.8 62.8 42.5C63.1 42.2 63.3 42.1 63.7 41.9C64.1 41.7 64.4 41.6 64.9 41.6C65.3 41.6 65.7 41.7 66.1 41.9C66.5 42.1 66.7 42.3 67 42.5C67.3 42.8 67.4 43.1 67.5 43.5C67.6 43.9 67.7 44.2 67.7 44.7C67.7 45.1 67.6 45.5 67.5 45.9C67.4 46.3 67.2 46.6 67 46.9C66.7 47.2 66.5 47.3 66.1 47.5C65.7 47.7 65.4 47.8 64.9 47.8C64.5 47.8 64.1 47.7 63.7 47.5C63.3 47.3 63.1 47.1 62.8 46.9C62.5 46.6 62.4 46.3 62.3 45.9C62.1 45.4 62.1 45 62.1 44.7Z" fill="#005E50"/>
<path d="M68.5 41.8H69.8V42.2C70.1 42 70.2 41.8 70.5 41.8C70.8 41.8 71 41.7 71.3 41.7C71.6 41.7 71.8 41.8 72.1 41.9C72.4 42 72.5 42.2 72.8 42.5C72.9 42.3 73.1 42.2 73.2 42.1C73.4 42 73.5 41.9 73.6 41.8C73.8 41.7 74 41.7 74 41.6C74.2 41.6 74.4 41.6 74.4 41.6C74.7 41.6 74.9 41.6 75.2 41.8C75.5 41.9 75.6 42 75.8 42.2C76 42.4 76.1 42.6 76.2 42.7C76.3 42.9 76.4 43.1 76.4 43.4V47.5H75.1V43.7C75.1 43.5 75.1 43.3 75 43.2C74.9 43 74.9 42.9 74.8 42.8L74.5 42.6L74.2 42.5C74 42.5 73.9 42.5 73.8 42.6C73.7 42.7 73.5 42.8 73.4 42.9C73.3 43 73.2 43.2 73.1 43.3C73 43.5 73 43.7 73 43.8V47.4H71.7V43.6C71.7 43.4 71.7 43.2 71.6 43.1C71.5 42.9 71.5 42.8 71.4 42.7L71.1 42.5L70.8 42.4C70.6 42.4 70.4 42.5 70.3 42.6C70.2 42.7 70 42.8 69.9 43C69.8 43.2 69.7 43.3 69.6 43.4C69.5 43.6 69.5 43.8 69.5 43.9V47.4H68.2V41.8H68.5Z" fill="#005E50"/>
<path d="M77.6 41.8H79V42.2C79.3 42 79.4 41.8 79.7 41.8C80 41.7 80.2 41.7 80.5 41.7C80.8 41.7 81 41.8 81.3 41.9C81.6 42 81.7 42.2 82 42.5C82.1 42.3 82.3 42.2 82.4 42.1C82.6 42 82.7 41.9 82.8 41.8C83 41.7 83.2 41.7 83.2 41.6C83.4 41.6 83.6 41.6 83.6 41.6C83.9 41.6 84.1 41.6 84.4 41.8C84.7 41.9 84.8 42 85 42.2C85.2 42.4 85.3 42.6 85.4 42.7C85.5 42.9 85.6 43.1 85.6 43.4V47.5H84.3V43.7C84.3 43.5 84.3 43.3 84.2 43.2C84.1 43 84.1 42.9 84 42.8L83.7 42.6L83.4 42.5C83.2 42.5 83.1 42.5 83 42.6C82.9 42.7 82.7 42.8 82.6 42.9C82.5 43 82.4 43.2 82.3 43.3C82.2 43.5 82.2 43.7 82.2 43.8V47.4H80.9V43.6C80.9 43.4 80.9 43.2 80.8 43.1C80.7 42.9 80.7 42.8 80.6 42.7L80.3 42.5L80 42.4C79.8 42.4 79.6 42.5 79.5 42.6C79.3 42.7 79.2 42.8 79.1 43C79 43.2 78.9 43.3 78.8 43.4C79 43.6 79 43.8 79 44V47.5H77.7L77.6 41.8Z" fill="#005E50"/>
<path d="M90.8 44C90.8 43.8 90.7 43.6 90.7 43.4C90.6 43.2 90.5 43 90.4 43C90.3 42.8 90.1 42.7 90 42.6C89.9 42.5 89.6 42.5 89.5 42.5C89.3 42.5 89.1 42.5 89 42.6C88.8 42.7 88.7 42.8 88.6 43C88.5 43.2 88.4 43.3 88.3 43.4C88.2 43.6 88.2 43.8 88.2 43.9L90.8 44ZM88.1 44.9C88.1 45.2 88.2 45.3 88.3 45.6C88.4 45.9 88.5 46 88.6 46.2C88.7 46.4 88.9 46.5 89 46.6C89.2 46.7 89.4 46.8 89.5 46.8C90.1 46.8 90.7 46.4 90.9 45.6H92.1C92 46 91.9 46.2 91.7 46.5C91.5 46.8 91.3 46.9 91.1 47.1C90.8 47.3 90.6 47.4 90.3 47.5C90 47.6 89.8 47.6 89.4 47.6C89 47.6 88.6 47.5 88.2 47.3C87.8 47.1 87.6 46.9 87.3 46.6C87 46.3 86.9 46 86.8 45.6C86.7 45.2 86.6 44.8 86.6 44.4C86.6 44 86.7 43.7 86.8 43.3C86.9 42.9 87.2 42.7 87.3 42.4C87.6 42.1 87.8 42 88.2 41.8C88.6 41.6 88.9 41.5 89.4 41.5C89.9 41.5 90.2 41.6 90.6 41.7C91 41.9 91.2 42.1 91.5 42.3C91.8 42.6 91.9 42.8 92 43.2C92.1 43.6 92.2 43.9 92.2 44.4V45L88.1 44.9Z" fill="#005E50"/>
<path d="M93 41.8H94.2L94.3 42.2C94.5 42 94.7 41.8 94.8 41.8C95 41.7 95.2 41.6 95.4 41.6H95.7L96.1 41.7V42.8C95.7 42.6 95.5 42.6 95.5 42.6C95.3 42.6 95.1 42.6 95.1 42.7C94.9 42.8 94.8 42.9 94.7 43C94.6 43.1 94.5 43.3 94.5 43.4C94.4 43.6 94.4 43.8 94.4 43.9V47.4H93V41.8Z" fill="#005E50"/>
<path d="M100.6 43.6C100.5 43.2 100.3 42.9 100.2 42.8C100 42.6 99.8 42.5 99.5 42.5C99.3 42.5 99.1 42.6 98.9 42.7C98.7 42.8 98.5 43 98.5 43.1C98.4 43.3 98.3 43.5 98.2 43.7C98 44.1 98 44.3 98 44.5C98 44.8 98 45 98.1 45.3C98.2 45.6 98.3 45.8 98.4 46C98.5 46.2 98.7 46.4 98.8 46.4C98.9 46.4 99.2 46.6 99.3 46.6C99.5 46.6 99.6 46.6 99.7 46.5L100.1 46.2C100.2 46.1 100.3 45.9 100.4 45.8C100.5 45.6 100.5 45.4 100.6 45.3H102C102 45.7 101.9 46 101.7 46.3C101.5 46.6 101.3 46.8 101.2 47C101 47.2 100.8 47.4 100.4 47.4C100.1 47.5 99.8 47.6 99.4 47.6C99 47.6 98.5 47.5 98.2 47.3C97.8 47.1 97.6 46.9 97.4 46.6C97.2 46.3 97 46 97 45.6C96.9 45.2 96.8 44.9 96.8 44.5C96.8 44.1 96.9 43.7 97 43.3C97.1 42.9 97.3 42.7 97.5 42.4C97.8 42.1 98 42 98.4 41.8C98.8 41.6 99.1 41.5 99.6 41.5C100 41.5 100.3 41.6 100.6 41.7C100.9 41.8 101.1 42 101.3 42.1C101.5 42.3 101.7 42.5 101.8 42.7C101.9 43 102.1 43.2 102.1 43.5L100.6 43.6Z" fill="#005E50"/>
<path d="M106.9 44C106.9 43.8 106.8 43.6 106.8 43.4C106.7 43.2 106.6 43 106.5 43C106.4 42.8 106.2 42.7 106.1 42.6C106 42.5 105.7 42.5 105.6 42.5C105.4 42.5 105.2 42.5 105.1 42.6C104.9 42.7 104.8 42.8 104.7 43C104.6 43.2 104.5 43.3 104.4 43.4C104.3 43.6 104.3 43.8 104.3 43.9L106.9 44ZM104.2 44.9C104.2 45.2 104.3 45.3 104.4 45.6C104.5 45.9 104.6 46 104.7 46.2C104.8 46.4 105 46.5 105.1 46.6C105.3 46.7 105.5 46.8 105.6 46.8C106.2 46.8 106.8 46.4 107 45.6H108.2C108.1 46 108 46.2 107.8 46.5C107.6 46.8 107.4 46.9 107.2 47.1C106.9 47.3 106.7 47.4 106.4 47.5C106.1 47.6 105.8 47.6 105.5 47.6C105.1 47.6 104.7 47.5 104.3 47.3C103.9 47.1 103.7 46.9 103.4 46.6C103.1 46.3 103 46 102.9 45.6C102.8 45.2 102.7 44.8 102.7 44.4C102.7 44 102.8 43.7 102.9 43.3C103 42.9 103.3 42.7 103.4 42.4C103.7 42.1 103.9 42 104.3 41.8C104.7 41.6 105 41.5 105.5 41.5C106 41.5 106.3 41.6 106.7 41.7C107.1 41.9 107.3 42.1 107.6 42.3C107.9 42.6 108 42.8 108.1 43.2C108.2 43.6 108.3 43.9 108.3 44.4V45L104.2 44.9Z" fill="#005E50"/>
<path d="M187.5 -0.200012C179.5 1.39999 168.4 2.39999 156.7 2.39999C145.1 2.39999 133.9 1.49999 125.9 -0.200012C127.5 7.79999 128.5 19 128.5 30.6C128.5 42.3 127.6 53.4 125.9 61.4C133.9 59.8 145.1 58.8 156.7 58.8C168.4 58.8 179.5 59.7 187.5 61.4C185.9 53.4 184.9 42.3 184.9 30.6C185 19 185.9 7.79999 187.5 -0.200012ZM166.9 14.9C167 15 167 15 167 15.2V15.4H167.1C167.1 15.4 167.9 15.5 167.9 16.6V16.7H168C168 16.7 168.7 17.1 168.8 17.7C168.8 17.9 168.8 18 168.7 18.1C168.6 18.1 168.3 18.1 168.1 18.1C167.6 18.1 167.2 18 167.1 17.8C167.1 17.8 166.3 17.5 165.5 16.9L165.4 16.8H165.3C165.3 16.8 165 17 164.7 17C164.4 17 164 16.8 163.6 16.6L163.5 16.5L163.4 16.6C163.4 16.6 163.3 16.7 163.1 16.8H163C162.7 16.8 162.4 16.7 162 16.4H161.9L161.8 16.6C161.8 16.6 161.6 17 160.6 17C160.4 17 160.3 17 160.2 17C160 16.9 158.9 16.5 157.8 16.3L157.4 16.2C157.8 16.1 158.1 15.9 158.5 15.8C159 15.6 159.6 15.5 159.6 15.5C160.5 15.1 160.7 14.6 160.8 14.3C161.2 14.3 161.4 14.2 161.6 14.1C161.6 14.1 162.2 13.8 162.8 13.8C163 13.8 163.2 13.9 163.2 14C163.3 14.1 163.3 14.2 163.3 14.3V14.6L163.5 14.5C163.5 14.5 164.3 14.1 164.9 14.1C165.1 14.1 165.2 14.1 165.3 14.2C165.3 14.3 165.3 14.4 165.3 14.5L165.2 14.7H165.4C165.4 14.7 165.7 14.6 165.9 14.6C166.5 14.6 166.8 14.7 166.9 14.9ZM162.9 23.3C162.9 23.3 163.3 23.9 162.6 24.5L162.5 24.6V24.7C162.5 24.9 162.6 25.5 162.4 25.8L162.1 26C161.7 25.6 161.4 25.1 161.4 24.8C161.4 24.8 161 24.1 161 23.2V23H160.9C160.9 23 160.2 22.6 160.2 21.7V21.6H160.1C160.1 21.6 159.6 21.6 159.4 20.4V20.2L159.2 20.3C159.2 20.3 158.8 20.5 158.1 19.4C158 19.2 157.6 18 157.1 17.1C158.1 17.8 159.3 19.2 159.3 19.2C159.7 19.6 160.2 19.7 160.5 19.7C160.8 19.7 160.9 19.6 161 19.5C161.1 19.7 161.3 19.9 161.4 19.9L161.3 20L161.1 20.1L161.3 20.2C161.7 20.5 162.5 21 162.4 21.3L162.2 21.5L162 21.6L162.2 21.8C162.4 22 162.9 22.6 162.9 23V23.3ZM151.2 26L150.9 25.8C150.6 25.4 150.8 24.7 150.8 24.7V24.6L150.7 24.5C150.1 24 150.4 23.3 150.4 23.3L150.5 23.2L150.4 23.1L150.2 22.8C150.2 22.4 150.7 21.8 150.9 21.6L151.1 21.4L150.9 21.3L150.7 21.1C150.7 20.8 151.3 20.3 151.8 20L152 19.9L151.8 19.8L151.7 19.7C151.8 19.6 151.9 19.4 152.1 19.3C152.2 19.4 152.4 19.5 152.6 19.5C153 19.5 153.4 19.3 153.8 19C153.8 19 155 17.6 156 16.9C155.6 17.8 155.1 19 155 19.2C154.4 20.3 153.9 20.1 153.9 20.1L153.7 20V20.2C153.6 21.3 153 21.4 153 21.4H152.9V21.6C152.9 22.7 152.2 22.9 152.2 22.9H152.1V23C152.1 23.9 151.7 24.6 151.7 24.6C151.9 25.1 151.5 25.6 151.2 26ZM146.7 22.1C146.4 20.9 147.1 20.4 147.1 20.3L147.2 20.2V20.1C147.1 19.9 147.1 19.7 147.2 19.5C147.5 18.9 148.5 18.6 148.5 18.6H148.7L148.6 18.4C148.5 18.2 148.5 18 148.6 18C148.9 17.6 149.8 17.5 150.2 17.5H150.4L150.3 17.3V17.1H150.4C150.7 17.1 151 17 151.4 16.7C151.6 16.9 151.8 17.1 152.7 17.1C152.9 17.1 153.1 17.1 153.2 17.1C153.2 17.1 155 16.4 156 16.3H156.2L155.9 16.5L155.5 16.8C154.6 17.5 153.6 18.7 153.5 18.8C153.1 19.1 152.7 19.2 152.4 19.2C152.1 19.2 152 19 152 19L151.9 19.2C151.7 19.5 151.6 19.6 151.5 19.8L151.4 19.9C151.1 20.2 151 20.2 150.9 20.2L150.7 20.1L150.6 20L150.5 20.2C150 21.3 149.3 21.4 149.2 21.4H149.1H149V21.5C148.5 22.7 147.8 23.3 147.8 23.3C147.6 23.7 146.8 24.2 146.5 24.3C145.8 23.5 146.7 22.2 146.7 22.1ZM152.7 36.9H156.2L155.5 33.7L156 33.2L155.3 30.3L155.9 30L155.1 26.8L155.8 26.3L155.2 23.6L155.9 23.2L155.5 20.8L156 20.4L155.9 17.8C155.9 17.7 156.2 17 156.7 16.5C157.3 17 157.5 17.8 157.5 17.8L157.4 20.4L157.9 20.8L157.5 23.2L158.2 23.6L157.6 26.3L158.3 26.8L157.6 30L158.1 30.3L157.4 33.2L157.9 33.7L157.4 36.9H160.8C160.8 36.9 161.2 37.1 161.1 37.4C160.9 37.8 159.1 39.5 159.1 39.4C158.9 39.3 158.9 38.6 158.8 38.5C158.7 38.4 158 39.2 157.6 39.4C157.6 39.4 157.2 39 156.7 38.7C156.2 39.1 155.6 39.4 155.6 39.4C155.2 39.2 154.7 38.4 154.7 38.5C154.6 38.6 154.6 39.3 154.4 39.4C154.2 39.5 152.4 37.7 152.4 37.4C152.3 37 152.7 36.9 152.7 36.9ZM162.9 20.1L162.8 19.9L162.7 20C162.7 20 162.6 20.1 162.5 20.1C162.4 20.1 162.1 20 162 19.8L161.9 19.7C161.8 19.5 161.6 19.3 161.5 19.1L161.4 18.9L161.3 19L161.2 19.1C161.2 19.1 161.1 19.3 160.8 19.3C160.5 19.3 160.2 19.1 159.7 18.9C159.6 18.7 158.5 17.7 157.7 16.9C157.5 16.8 157.4 16.7 157.3 16.6L157 16.4H157.2C158.4 16.6 160 17.2 160 17.2C160.2 17.2 160.4 17.2 160.5 17.2C161.3 17.2 161.7 16.9 161.8 16.8C162.2 17.1 162.5 17.2 162.9 17.2H163V17.4L162.9 17.6H163.1C163.5 17.6 164.4 17.7 164.7 18.1C164.8 18.2 164.8 18.4 164.7 18.5L164.6 18.7L164.8 18.8C164.8 18.8 165.8 19.1 166.1 19.7C166.2 19.9 166.2 20.1 166.1 20.3V20.4L166.2 20.5C166.2 20.5 167 21 166.6 22.3V22.4V22.5C166.6 22.5 167.5 23.8 167 24.5C166.6 24.3 165.8 24 165.7 23.5C165.7 23.5 165 22.8 164.5 21.7L164.4 21.6H164.3H164.2C164 21.3 163.4 21.2 162.9 20.1ZM163.8 10.8H164C164 10.8 164.2 10.7 164.4 10.7C164.7 10.7 164.9 10.9 165.1 11.2V11.3H165.2H165.3C165.5 11.3 166 11.3 166.2 11.6C166.3 11.7 166.3 11.8 166.3 12C166 12.2 165.5 12.6 165.1 12.6H165C165 12.6 164.6 12.8 163.9 12.8C163.7 12.8 163.6 12.8 163.5 12.8H163.4V12.9C163.4 12.9 163 13.4 162.3 13.4H162V13.5C162 13.5 162 13.7 161.8 13.8L161.7 13.9L161.4 14H161.3C161.2 14 161 14 160.9 14H160.8H160.7C160.7 14.1 160.7 14.5 159.7 15.1C159.5 15.1 158.6 15.4 157.8 15.6C157.5 15.7 157.4 15.8 157.1 15.9L157.4 15.5C157.9 15 158.6 14.3 158.6 14.3C159.1 13.6 159.1 13.1 159.1 13C159.7 12.6 159.8 12.2 159.8 12C160.1 11.9 160.2 11.7 160.4 11.6C160.5 11.6 160.6 11.6 160.6 11.8L160.7 12L160.8 11.8C161.1 11.4 161.6 10.8 161.9 10.8C161.9 10.8 162 10.8 162.1 11L162.2 11.2L162.4 11C162.6 10.8 163.1 10.5 163.5 10.5C163.7 10.5 163.7 10.6 163.8 10.8ZM158.2 11.2L158.4 11.4L158.5 11.1C158.6 10.6 158.9 9.89999 159 9.89999L159.1 9.99999L159.3 10.2L159.4 9.99999C159.5 9.69999 159.8 9.09999 160.2 9.09999L160.4 9.19999L160.5 9.29999L160.6 9.19999C160.6 9.19999 160.8 8.89999 161 8.89999C161.2 8.89999 161.3 8.99999 161.4 9.09999L161.5 9.19999H161.6C161.6 9.19999 162 8.99999 162.2 8.99999C162.4 8.99999 162.6 9.09999 162.6 9.19999C162.4 9.59999 162.2 10.1 161.9 10.1C161.9 10.1 161.5 10.5 160.7 10.8H160.6V10.9C160.6 10.9 160.6 11.1 160.4 11.3C160.3 11.5 160 11.7 159.8 11.7H159.7V11.9V12V12.1C159.7 12.2 159.7 12.4 159.5 12.5C159.4 12.6 159.2 12.7 159.1 12.9L159 13L159.1 13.1C159.1 13.1 159.3 13.5 158.7 14.3C158.6 14.4 158.2 14.7 157.7 15.1L157.4 15.4L157.1 15.7L157.2 15.5C157.6 14.4 158.1 12.4 158.3 11.1L158.2 11.2ZM155.6 10.2L155.7 9.99999C155.6 8.99999 155.7 8.19999 155.9 7.99999L156 7.89999H156.1L156.3 7.99999C156.5 7.29999 156.7 6.79999 156.9 6.59999C157.1 6.79999 157.3 7.19999 157.5 7.99999V8.19999L157.7 8.09999H157.8L157.9 8.19999C158.1 8.49999 158.2 9.29999 158.1 10.2V10.4H158.2C158.2 10.5 158.2 10.8 158.1 11.1V11.3L158 11.7C157.8 12.6 157.5 13.8 157.1 15.2V15.3L157 15.7V15.6L156.9 15.2V15C156.5 13.8 156.2 12.4 156 11.5L155.9 11.1V11C155.6 10.6 155.6 10.3 155.6 10.2ZM151.4 8.99999C151.7 8.99999 152 9.19999 152 9.19999H152.1L152.2 9.09999C152.4 8.99999 152.5 8.89999 152.6 8.89999C152.9 8.89999 153 9.19999 153 9.19999L153.1 9.29999L153.2 9.19999L153.4 9.09999C153.7 9.09999 154 9.69999 154.1 9.99999L154.2 10.2L154.3 9.99999L154.4 9.89999C154.6 9.89999 154.8 10.5 154.9 11.1V11.4L155.1 11.2L155.3 11.1C155.6 12.3 156.1 14.4 156.4 15.5L156.5 15.7L156.2 15.4L155.9 15.1C155.5 14.7 155 14.3 154.9 14.3C154.3 13.5 154.5 13.1 154.5 13.1L154.6 13L154.5 12.9C154.3 12.8 154.1 12.7 154.1 12.5C153.9 12.3 153.9 12.1 153.9 12.1V12H153.8C153.4 11.9 153.3 11.7 153.2 11.6C153 11.3 153 11.2 153 11.2V11H152.9C152.3 10.7 151.7 10.3 151.7 10.3C151.4 10.3 151.2 9.79999 151 9.39999C151 8.99999 151.2 8.99999 151.4 8.99999ZM147.4 11.7C147.7 11.4 148.2 11.4 148.3 11.4H148.4H148.5V11.3C148.7 10.9 148.9 10.8 149.2 10.8C149.4 10.8 149.6 10.9 149.6 10.9L149.7 11L149.8 10.9C149.9 10.7 150 10.6 150.2 10.6C150.6 10.6 151.3 11.1 151.3 11.1L151.5 11.3L151.6 11.1C151.6 10.9 151.7 10.9 151.8 10.9C152.1 10.9 152.6 11.5 152.9 11.9L153 12.1L153.1 11.9C153.2 11.7 153.3 11.7 153.4 11.7C153.6 11.9 153.8 12.1 154 12.1C154 12.3 154.1 12.7 154.7 13.1C154.6 13.3 154.6 13.8 155.1 14.4C155.1 14.4 155.8 14.9 156.3 15.6L156.6 16C156.4 15.9 156.2 15.8 155.9 15.7C155.1 15.4 154.2 15.2 154 15.2C153 14.8 153 14.2 153 14.1V14H152.9H152.8C152.6 14 152.5 14 152.4 14H152.3L152 13.9L151.9 13.8C151.7 13.6 151.7 13.5 151.7 13.5V13.4H151.6H151.3C150.6 13.4 150.2 12.9 150.2 12.9L150.1 12.8H150C149.8 12.8 149.7 12.8 149.6 12.8C149 12.8 148.5 12.6 148.5 12.6H148.4C148 12.6 147.5 12.2 147.2 12C147.2 11.8 147.3 11.8 147.4 11.7ZM144.6 17.6C144.7 17.1 145.4 16.6 145.4 16.6H145.5V16.5C145.5 15.4 146.3 15.3 146.3 15.3H146.4V15.1C146.4 14.9 146.4 14.8 146.5 14.7C146.7 14.5 147 14.4 147.5 14.4C147.8 14.4 148 14.5 148 14.5H148.2L148.1 14.3C148.1 14.2 148.1 14 148.1 14C148.2 13.9 148.3 13.9 148.5 13.9C149 13.9 149.9 14.3 149.9 14.3L150.1 14.4V14.1C150.1 13.9 150.1 13.8 150.2 13.8C150.3 13.7 150.5 13.6 150.6 13.6C151.1 13.6 151.8 13.9 151.8 13.9H151.9C152.1 14 152.3 14.1 152.7 14.1C152.7 14.4 153 14.8 153.9 15.3C153.9 15.3 154.3 15.4 155 15.6C155.4 15.7 155.7 15.8 156.1 16L155.7 16.1C154.6 16.4 153.5 16.8 153.3 16.8C153.1 16.8 152.9 16.8 152.9 16.8C151.9 16.8 151.7 16.4 151.7 16.4L151.6 16.2L151.5 16.3C151.1 16.6 150.8 16.7 150.5 16.7H150.4H150.3C150.1 16.6 150 16.5 150 16.5L149.9 16.4L149.8 16.5C149.4 16.8 149.1 16.9 148.7 16.9C148.3 16.9 148.1 16.7 148.1 16.7H148L147.9 16.8C147.1 17.4 146.3 17.7 146.3 17.7C146.1 17.9 145.9 18 145.3 18C145 18 144.9 18 144.7 18C144.6 18 144.6 17.8 144.6 17.6ZM165.3 41.8C162.9 43.4 160.5 45.3 158.4 47.1C159.6 48.2 160.7 49.2 161.8 50.5L161.9 50.4H162.2L162.3 50.6L162.5 50.3C162.4 50 162.5 49.7 162.8 49.5C163.2 49.2 163.5 49.2 163.8 49.5C164.1 49.8 164 50.2 163.7 50.5C163.5 50.7 163.3 50.8 163 50.7C162.8 51 162.9 51.1 162.9 51.1C163.2 51.8 164.5 52.3 165.6 52.3C166.4 52.3 166.9 52 167.7 51.2C168.6 50.3 169.4 51.2 169.4 51.2C170.6 53.1 168.1 54.7 166.3 54.8C164.1 54.8 162 53.5 161.5 52.8C161.3 52.6 161.1 52.5 161 52.6C160.9 52.6 160.8 52.8 160.8 53C160.8 53.3 160.7 53.4 160.5 53.6C160.2 53.9 159.8 53.9 159.5 53.6C159.2 53.3 159.3 52.9 159.6 52.6C159.8 52.4 160 52.4 160.1 52.4H160.2L160.1 52.3V52L160.4 51.7C160 51.3 158.6 49.9 156.7 48.3C154.9 49.9 153.6 51.2 153 51.7L153.3 52V52.3L153.2 52.4H153.3C153.5 52.4 153.7 52.5 153.8 52.6C154.1 52.9 154.2 53.3 153.9 53.6C153.6 53.9 153.2 53.9 152.9 53.6C152.7 53.4 152.6 53.2 152.6 53C152.6 52.8 152.5 52.7 152.4 52.6C152.2 52.5 152.1 52.6 151.9 52.8C151.4 53.4 149.4 54.8 147.2 54.8C145.3 54.8 142.7 53.1 144.1 51.2C144.1 51.2 144.9 50.3 145.8 51.2C146.6 52 147.1 52.3 147.9 52.3C148.9 52.3 150.2 51.7 150.5 51.1C150.5 51.1 150.6 50.8 150.4 50.7C150.2 50.8 150 50.7 149.7 50.5C149.4 50.2 149.3 49.8 149.6 49.5C149.9 49.2 150.3 49.2 150.6 49.5C150.9 49.7 151 50 150.9 50.3L151.1 50.6V50.4H151.4L151.5 50.5C152.7 49.3 153.8 48.2 154.9 47.1C152.9 45.4 150.4 43.4 148 41.8C140.4 36.7 134.7 37.3 134.7 37.3C139 35.7 144.4 37.3 146.8 38.6C148.6 39.6 152.3 41.9 156.5 45.5C160.7 41.8 164.5 39.5 166.2 38.6C168.7 37.2 174 35.7 178.3 37.3C178.6 37.1 172.9 36.7 165.3 41.8Z" fill="#005E50"/>
</g>
<defs>
<clipPath id="clip0_11_24">
<rect width="187.8" height="65" fill="white"/>
</clipPath>
</defs>
</svg>
