<svg width="970" height="229" viewBox="0 0 970 229" fill="none" xmlns="http://www.w3.org/2000/svg">
<path d="M145.726 150.512H150.588V122.376H145.726V150.512ZM332.416 122.376H339.527V127.238H337.277V150.512H305.107C303.167 152.556 300.4 153.797 297.4 153.797C294.452 153.797 291.736 152.504 289.849 150.512H175.285C169.906 150.512 165.535 146.142 165.535 140.737C165.535 135.332 169.906 130.988 175.285 130.988H178.078V129.255H182.94V145.651H213.456V130.988H218.317V145.651H251.756V139.884C251.756 138.513 250.644 137.401 249.273 137.401H233.394L231.739 132.591L237.351 122.402H242.549L237.17 132.591H249.919C253.618 132.591 256.617 135.591 256.617 139.289V145.677H269.212V122.402H274.074V145.677H287.314C287.133 144.978 287.082 144.228 287.082 143.452C287.082 137.556 291.736 132.85 297.452 132.85C303.322 132.85 308.003 137.453 308.003 143.452C308.003 144.228 307.9 144.978 307.77 145.677H320.494V122.402H325.356V145.677H332.493V122.376H332.416ZM178.052 135.849H175.259C172.544 135.849 170.346 138.048 170.346 140.763C170.346 143.478 172.544 145.677 175.259 145.677H178.052V135.849ZM303.064 143.375C303.064 140.116 300.71 137.685 297.374 137.685C294.142 137.685 291.866 140.22 291.866 143.375C291.866 146.504 294.271 148.961 297.374 148.961C300.581 148.961 303.064 146.633 303.064 143.375ZM353.208 140.737C353.208 135.358 357.578 130.988 362.957 130.988H365.75V129.255H370.612V145.651H398.8V130.988H403.662V150.512H362.957C357.578 150.512 353.208 146.142 353.208 140.737ZM358.07 140.737C358.07 143.452 360.268 145.651 362.983 145.651H365.776V135.849H362.983C360.268 135.849 358.07 138.048 358.07 140.737ZM547.681 150.512H552.543V122.376H547.681V150.512ZM624.592 125.712H619.807V124.781C619.807 123.669 620.299 123.048 621.669 123.048H623.48V121.497H621.411C618.695 121.497 617.04 122.686 617.04 125.789V128.324H624.592V125.712V125.712ZM567.439 140.737C567.439 135.358 571.81 130.988 577.189 130.988H579.982V129.255H584.844V145.651H618.54V130.988H623.402V145.651H639.85V130.988H644.711V145.651H660.487H660.616C660.176 144.72 659.944 143.659 659.944 142.573C659.944 138.461 663.28 135.125 667.391 135.125C671.503 135.125 674.839 138.461 674.839 142.573C674.839 143.685 674.581 144.72 674.167 145.651H674.348H677.426C677.736 144.668 677.891 143.634 677.891 142.573C677.891 136.78 673.184 132.1 667.417 132.1C665.323 132.1 663.383 132.72 661.754 133.755L659.064 129.488C661.469 127.936 664.34 127.031 667.417 127.031C676.003 127.031 682.96 133.987 682.96 142.573C682.96 143.634 682.856 144.668 682.649 145.651H696.925V122.376H704.036V127.238H701.786V150.512H577.266C571.81 150.512 567.439 146.142 567.439 140.737ZM664.288 142.573C664.288 144.28 665.659 145.651 667.366 145.651C669.072 145.651 670.443 144.28 670.443 142.573C670.443 140.866 669.072 139.496 667.366 139.496C665.685 139.47 664.288 140.866 664.288 142.573ZM572.301 140.737C572.301 143.452 574.499 145.651 577.215 145.651H580.008V135.849H577.215C574.499 135.849 572.301 138.048 572.301 140.737ZM707.579 122.376V150.512H712.441V122.376H707.579ZM34.0329 155.297C34.0329 156.745 35.1966 157.909 36.6449 157.909C38.0931 157.909 39.2568 156.745 39.2568 155.297C39.2568 153.849 38.0931 152.685 36.6449 152.685C35.1966 152.685 34.0329 153.849 34.0329 155.297ZM42.3342 152.685C40.886 152.685 39.7223 153.849 39.7223 155.297C39.7223 156.745 40.886 157.909 42.3342 157.909C43.7825 157.909 44.9462 156.745 44.9462 155.297C44.9203 153.849 43.7566 152.685 42.3342 152.685ZM116.219 126.927C117.667 126.927 118.831 125.764 118.831 124.315C118.831 122.867 117.667 121.703 116.219 121.703C114.771 121.703 113.607 122.867 113.607 124.315C113.633 125.764 114.796 126.927 116.219 126.927ZM212.576 152.685C211.128 152.685 209.964 153.849 209.964 155.297C209.964 156.745 211.128 157.909 212.576 157.909C214.025 157.909 215.188 156.745 215.188 155.297C215.162 153.849 213.999 152.685 212.576 152.685ZM220.852 155.297C220.852 153.849 219.688 152.685 218.24 152.685C216.792 152.685 215.628 153.849 215.628 155.297C215.628 156.745 216.792 157.909 218.24 157.909C219.688 157.883 220.852 156.719 220.852 155.297ZM576.387 126.927C577.835 126.927 578.999 125.764 578.999 124.315C578.999 122.867 577.835 121.703 576.387 121.703C574.939 121.703 573.775 122.867 573.775 124.315C573.801 125.764 574.965 126.927 576.387 126.927ZM582.076 126.927C583.525 126.927 584.688 125.764 584.688 124.315C584.688 122.867 583.525 121.703 582.076 121.703C580.628 121.703 579.465 122.867 579.465 124.315C579.465 125.764 580.628 126.927 582.076 126.927ZM395.283 152.685C393.835 152.685 392.671 153.849 392.671 155.297C392.671 156.745 393.835 157.909 395.283 157.909C396.732 157.909 397.895 156.745 397.895 155.297C397.895 153.849 396.732 152.685 395.283 152.685ZM403.559 155.297C403.559 153.849 402.395 152.685 400.947 152.685C399.499 152.685 398.335 153.849 398.335 155.297C398.335 156.745 399.499 157.909 400.947 157.909C402.395 157.883 403.559 156.719 403.559 155.297ZM639.229 152.685C637.781 152.685 636.617 153.849 636.617 155.297C636.617 156.745 637.781 157.909 639.229 157.909C640.677 157.909 641.841 156.745 641.841 155.297C641.815 153.849 640.651 152.685 639.229 152.685ZM642.306 155.297C642.306 156.745 643.47 157.909 644.918 157.909C646.367 157.909 647.53 156.745 647.53 155.297C647.53 153.849 646.367 152.685 644.918 152.685C643.47 152.685 642.306 153.849 642.306 155.297ZM362.156 126.927C363.604 126.927 364.768 125.764 364.768 124.315C364.768 122.867 363.604 121.703 362.156 121.703C360.707 121.703 359.544 122.867 359.544 124.315C359.57 125.764 360.733 126.927 362.156 126.927ZM367.845 126.927C369.293 126.927 370.457 125.764 370.457 124.315C370.457 122.867 369.293 121.703 367.845 121.703C366.397 121.703 365.233 122.867 365.233 124.315C365.233 125.764 366.397 126.927 367.845 126.927ZM424.817 137.685C424.817 133.987 421.817 130.988 418.119 130.988H413.593L412.429 135.798H417.472C418.843 135.798 419.955 136.91 419.955 138.28V145.651H407.541V150.512H424.817V137.685ZM174.457 126.927C175.906 126.927 177.069 125.764 177.069 124.315C177.069 122.867 175.906 121.703 174.457 121.703C173.009 121.703 171.845 122.867 171.845 124.315C171.845 125.764 173.009 126.927 174.457 126.927ZM180.121 126.927C181.569 126.927 182.733 125.764 182.733 124.315C182.733 122.867 181.569 121.703 180.121 121.703C178.673 121.703 177.509 122.867 177.509 124.315C177.535 125.764 178.699 126.927 180.121 126.927ZM8.94786 126.927C10.3961 126.927 11.5598 125.764 11.5598 124.315C11.5598 122.867 10.3961 121.703 8.94786 121.703C7.49965 121.703 6.33591 122.867 6.33591 124.315C6.36177 125.764 7.52551 126.927 8.94786 126.927ZM14.6373 126.927C16.0855 126.927 17.2492 125.764 17.2492 124.315C17.2492 122.867 16.0855 121.703 14.6373 121.703C13.189 121.703 12.0253 122.867 12.0253 124.315C12.0253 125.764 13.189 126.927 14.6373 126.927ZM0 140.737C0 135.358 4.37049 130.988 9.74955 130.988H12.5425V129.255H17.4044V145.651H39.4637V130.988H44.3255V150.512H9.77541C4.37049 150.512 0 146.142 0 140.737ZM4.86184 140.737C4.86184 143.452 7.06002 145.651 9.77541 145.651H12.5684V135.849H9.74955C7.06002 135.849 4.86184 138.048 4.86184 140.737ZM50.8425 158.141C49.9373 158.141 48.9805 158.012 48.3857 157.831V153.047C49.1098 153.228 49.7046 153.28 50.3253 153.28C52.2648 153.28 52.9372 152.271 52.9372 149.892V130.988H57.799V145.651H88.5993V139.884C88.5993 138.513 87.4873 137.401 86.1167 137.401H70.2381L68.583 132.591L74.1948 122.402H79.3929L74.0138 132.591H86.7632C90.4613 132.591 93.4612 135.591 93.4612 139.289V145.677H107.012C106.159 144.228 105.668 142.573 105.668 140.763C105.668 135.384 110.038 131.013 115.417 131.013H118.184H119.503H123.02L122.994 145.677H135.071V122.402H142.183V127.264H139.907V150.538H57.7473C57.4629 155.84 55.4198 158.141 50.8425 158.141ZM110.478 140.737C110.478 143.452 112.676 145.625 115.365 145.651H118.132V135.849H115.365C112.676 135.849 110.478 138.048 110.478 140.737ZM440.643 150.512H437.954C432.575 150.512 428.204 146.142 428.204 140.737C428.204 135.332 432.575 130.988 437.954 130.988H440.721H442.04H445.557L445.531 145.651H460.091L455.798 134.634C459.134 131.763 462.444 129.72 466.452 129.72C470.487 129.72 473.952 131.763 477.133 134.686L472.969 145.677H485.46C488.176 145.677 490.374 143.478 490.374 140.763V128.22H495.236V140.763C495.236 143.478 497.434 145.677 500.149 145.677C502.865 145.677 505.063 143.478 505.063 140.763V132.384H509.925V140.763C509.925 143.478 512.123 145.677 514.838 145.677C517.554 145.677 519.752 143.478 519.752 140.763V128.22H524.614V140.763C524.614 143.478 526.812 145.677 529.527 145.677H537.027V122.402H544.139V127.264H541.889V150.538H529.527C526.605 150.538 523.993 149.245 522.183 147.202C520.398 149.245 517.786 150.538 514.838 150.538C511.916 150.538 509.304 149.245 507.494 147.202C505.709 149.245 503.097 150.538 500.149 150.538C497.227 150.538 494.615 149.245 492.805 147.202C491.02 149.245 488.408 150.538 485.46 150.538H445.453C445.117 155.09 442.842 158.167 436.609 158.167C434.747 158.167 433.661 157.935 431.54 157.34V152.556C433.247 153.073 434.721 153.331 436.247 153.331C438.937 153.28 440.333 152.943 440.643 150.512ZM461.229 136.703L464.384 145.651H468.547L471.702 136.677C469.763 135.358 468.418 134.841 466.427 134.841C464.539 134.841 463.013 135.41 461.229 136.703ZM440.721 145.651V135.824H437.954C435.238 135.824 433.04 138.022 433.04 140.737C433.04 143.452 435.238 145.651 437.954 145.651H440.721Z" fill="white"/>
<path d="M40.7309 182.373V193.364C38.3517 194.295 35.3002 194.838 32.5072 194.838C27.7746 194.838 23.5593 193.183 23.5593 188.579C23.5593 184.364 27.2057 182.166 32.352 182.166C33.3606 182.166 34.6278 182.243 36.0501 182.424V182.166C36.0501 180.019 34.2657 179.425 31.6796 179.425C29.7401 179.425 26.8954 180.2 25.0334 181.106L25.6282 176.321C27.1281 175.571 29.6884 174.925 32.3003 174.925C37.188 174.899 40.7309 176.864 40.7309 182.373ZM36.0501 186.252C35.1709 186.019 33.9037 185.838 32.8692 185.838C30.49 185.838 28.4729 186.433 28.4729 188.243C28.4729 189.976 30.2832 190.596 32.5848 190.596C33.7485 190.596 35.0416 190.39 36.0501 190.053V186.252ZM56.8681 189.769C55.4975 190.131 54.3855 190.234 53.351 190.234C50.7132 190.234 49.6271 189.2 49.6271 185.735V175.545H44.9204V187.079C44.9204 192.95 48.6444 194.838 53.4804 194.838C56.7388 194.838 58.8336 194.372 61.5489 193.467V175.571H56.8423V189.769H56.8681ZM78.9533 167.244H83.66V193.881C81.3584 194.527 78.7982 194.863 76.0828 194.863C69.1003 194.863 65.0402 190.571 65.0402 184.933C65.0402 179.295 69.2555 174.899 75.6948 174.899C76.5224 174.899 77.6603 175.002 78.9533 175.158V167.244V167.244ZM78.9533 179.89C77.8154 179.58 76.8844 179.476 76.031 179.476C72.3329 179.476 69.9537 181.261 69.9537 184.907C69.9537 188.553 72.3329 190.234 76.031 190.234C76.9362 190.234 77.9189 190.105 78.9533 189.872V179.89ZM88.7546 194.45H93.4613V175.571H88.7546V194.45ZM145.778 189.769C144.407 190.131 143.295 190.234 142.261 190.234C139.623 190.234 138.537 189.2 138.537 185.735V175.545H133.83V187.079C133.83 192.95 137.554 194.838 142.39 194.838C145.649 194.838 147.743 194.372 150.459 193.467V175.571H145.752V189.769H145.778ZM161.76 186.769V179.916H168.923V175.545H161.76V168.641H157.053V175.545H153.51V179.916H157.053V188.424C157.053 192.95 159.355 194.424 164.605 194.424H169.053V190.079H165.096C162.639 190.079 161.76 189.303 161.76 186.769ZM181.44 174.899C180.406 174.899 179.061 175.08 177.638 175.313V167.27H172.932V194.476H177.638V179.89C178.983 179.657 180.224 179.528 181.233 179.528C184.026 179.528 185.448 180.562 185.448 184.028V194.501H190.155V182.709C190.155 176.425 186.276 174.899 181.44 174.899ZM213.714 184.881C213.714 190.519 209.292 194.838 203.499 194.838C197.706 194.838 193.258 190.519 193.258 184.881C193.258 179.269 197.681 174.899 203.499 174.899C209.292 174.899 213.714 179.269 213.714 184.881ZM208.801 184.881C208.801 181.933 206.784 179.476 203.499 179.476C200.215 179.476 198.198 181.933 198.198 184.881C198.198 187.855 200.215 190.234 203.499 190.234C206.784 190.234 208.801 187.855 208.801 184.881ZM231.558 194.45H236.265V175.571H231.558V194.45ZM247.514 186.769V179.916H254.704V175.545H247.514V168.641H242.834V175.545H239.291V179.916H242.834V188.424C242.834 192.95 245.135 194.424 250.385 194.424H254.833V190.079H250.876C248.394 190.079 247.514 189.303 247.514 186.769ZM270.143 189.407C268.772 189.821 267.634 189.898 266.626 189.898C264.014 189.898 262.902 188.864 262.902 185.398V175.494H258.169V186.717C258.169 192.924 261.583 194.476 266.393 194.476C267.608 194.476 268.876 194.346 270.143 194.062V194.476C270.143 196.7 268.1 197.631 265.203 197.631C263.367 197.631 260.419 197.036 258.557 196.234L259.566 201.122C261.066 201.587 263.522 201.949 264.996 201.949C272.47 201.949 274.824 199.648 274.824 192.976V175.494H270.117V189.407H270.143ZM291.323 173.735V175.545H287.78V179.916H291.323V194.424H296.029V179.916H303.193V175.545H296.029V174.614C296.029 172.571 296.469 171.589 298.874 171.589H303.322V167.218H298.822C293.599 167.244 291.323 169.21 291.323 173.735ZM324.89 184.881C324.89 190.519 320.468 194.838 314.675 194.838C308.882 194.838 304.434 190.519 304.434 184.881C304.434 179.269 308.856 174.899 314.675 174.899C320.468 174.899 324.89 179.269 324.89 184.881ZM319.951 184.881C319.951 181.933 317.934 179.476 314.649 179.476C311.365 179.476 309.348 181.933 309.348 184.881C309.348 187.855 311.365 190.234 314.649 190.234C317.959 190.234 319.951 187.855 319.951 184.881ZM370.69 174.899C368.647 174.899 365.13 175.339 362.207 175.882V194.45H366.914V179.864C368.259 179.631 369.5 179.502 370.509 179.502C373.302 179.502 374.724 180.537 374.724 184.002V194.476H379.431V182.683C379.405 176.425 375.5 174.899 370.69 174.899ZM390.318 186.769V179.916H397.482V175.545H390.318V168.641H385.612V175.545H382.069V179.916H385.612V188.424C385.612 192.95 387.913 194.424 393.163 194.424H397.611V190.079H393.654C391.197 190.079 390.318 189.303 390.318 186.769ZM419.024 186.433H404.076C404.671 189.019 406.817 190.26 409.74 190.26H410.231C412.197 190.26 414.757 189.51 415.765 188.579L417.834 192.769C415.817 193.881 413.309 194.838 409.585 194.838C403.611 194.838 399.214 190.545 399.214 184.881C399.214 179.037 403.662 174.899 409.248 174.899C415.067 174.899 419.257 179.14 419.024 186.433ZM414.11 182.528C413.619 180.226 411.757 179.037 409.223 179.037C406.714 179.037 404.826 180.511 404.257 182.528H414.11ZM422.334 194.45H427.041V167.244H422.334V194.45ZM432.135 194.45H436.842V167.244H432.135V194.45ZM460.091 186.433H445.143C445.738 189.019 447.885 190.26 450.807 190.26H451.298C453.264 190.26 455.824 189.51 456.832 188.579L458.901 192.769C456.884 193.881 454.376 194.838 450.652 194.838C444.678 194.838 440.281 190.545 440.281 184.881C440.281 179.037 444.73 174.899 450.315 174.899C456.134 174.899 460.324 179.14 460.091 186.433ZM455.177 182.528C454.686 180.226 452.824 179.037 450.29 179.037C447.781 179.037 445.893 180.511 445.324 182.528H455.177ZM472.633 179.476C474.366 179.476 475.84 179.942 477.081 180.64L478.969 176.425C477.056 175.442 475.013 174.873 472.426 174.873C466.582 174.873 462.289 179.166 462.289 184.855C462.289 190.596 466.582 194.812 472.426 194.812C475.013 194.812 477.056 194.269 478.969 193.312L477.081 189.045C475.84 189.795 474.366 190.209 472.633 190.209C469.375 190.209 467.228 188.062 467.228 184.855C467.228 181.649 469.375 179.476 472.633 179.476ZM488.486 186.769V179.916H495.65V175.545H488.486V168.641H483.779V175.545H480.236V179.916H483.779V188.424C483.779 192.95 486.081 194.424 491.331 194.424H495.779V190.079H491.822C489.365 190.079 488.486 189.303 488.486 186.769ZM511.089 189.769C509.718 190.131 508.606 190.234 507.571 190.234C504.934 190.234 503.847 189.2 503.847 185.735V175.545H499.141V187.079C499.141 192.95 502.865 194.838 507.701 194.838C510.959 194.838 513.054 194.372 515.769 193.467V175.571H511.063V189.769H511.089ZM537.001 182.373V193.364C534.622 194.295 531.57 194.838 528.777 194.838C524.045 194.838 519.829 193.183 519.829 188.579C519.829 184.364 523.476 182.166 528.622 182.166C529.631 182.166 530.898 182.243 532.32 182.424V182.166C532.32 180.019 530.536 179.425 527.95 179.425C526.01 179.425 523.166 180.2 521.304 181.106L521.898 176.321C523.398 175.571 525.958 174.925 528.57 174.925C533.458 174.899 537.001 176.864 537.001 182.373ZM532.294 186.252C531.415 186.019 530.148 185.838 529.114 185.838C526.734 185.838 524.717 186.433 524.717 188.243C524.717 189.976 526.527 190.596 528.829 190.596C529.993 190.596 531.286 190.39 532.294 190.053V186.252V186.252ZM541.734 194.45H546.44V167.244H541.734V194.45ZM617.584 184.881C617.584 190.519 613.161 194.838 607.369 194.838C601.576 194.838 597.128 190.519 597.128 184.881C597.128 179.269 601.55 174.899 607.369 174.899C613.161 174.899 617.584 179.269 617.584 184.881ZM612.67 184.881C612.67 181.933 610.653 179.476 607.369 179.476C604.084 179.476 602.067 181.933 602.067 184.881C602.067 187.855 604.084 190.234 607.369 190.234C610.653 190.234 612.67 187.855 612.67 184.881ZM639.695 184.855C639.695 190.493 635.505 194.838 629.04 194.838C628.212 194.838 627.1 194.76 625.781 194.579V201.82H621.075V175.882C623.376 175.209 625.962 174.873 628.652 174.873C635.634 174.899 639.695 179.218 639.695 184.855ZM634.781 184.855C634.781 181.209 632.402 179.502 628.704 179.502C627.773 179.502 626.79 179.683 625.756 179.916V189.898C626.893 190.157 627.824 190.26 628.704 190.26C632.402 190.234 634.781 188.476 634.781 184.855ZM661.857 186.433H646.91C647.505 189.019 649.651 190.26 652.573 190.26H653.065C655.03 190.26 657.59 189.51 658.599 188.579L660.668 192.769C658.651 193.881 656.142 194.838 652.418 194.838C646.444 194.838 642.048 190.545 642.048 184.881C642.048 179.037 646.496 174.899 652.082 174.899C657.901 174.899 662.09 179.14 661.857 186.433ZM656.918 182.528C656.427 180.226 654.565 179.037 652.03 179.037C649.522 179.037 647.634 180.511 647.065 182.528H656.918ZM685.701 186.769V179.916H692.89V175.545H685.701V168.641H680.994V175.545H677.451V179.916H680.994V188.424C680.994 192.95 683.296 194.424 688.546 194.424H692.994V190.079H689.037C686.58 190.079 685.701 189.303 685.701 186.769ZM707.735 189.407C706.364 189.821 705.226 189.898 704.218 189.898C701.606 189.898 700.494 188.864 700.494 185.398V175.494H695.761V186.717C695.761 192.924 699.175 194.476 703.985 194.476C705.2 194.476 706.467 194.346 707.735 194.062V194.476C707.735 196.7 705.692 197.631 702.795 197.631C700.959 197.631 698.011 197.036 696.149 196.234L697.157 201.122C698.657 201.587 701.114 201.949 702.588 201.949C710.062 201.949 712.415 199.648 712.415 192.976V175.494H707.709V189.407H707.735ZM328.381 180.459V194.424H333.088V181.157C333.088 180.381 333.735 179.735 334.51 179.735C336.372 179.735 339.346 179.735 339.346 179.735V175.235H333.579C330.709 175.261 328.381 177.588 328.381 180.459ZM217.206 180.459V194.424H221.912V181.157C221.912 180.381 222.559 179.735 223.335 179.735C225.197 179.735 228.171 179.735 228.171 179.735V175.235H222.404C219.533 175.261 217.206 177.588 217.206 180.459ZM584.404 180.459V194.424H589.111V181.157C589.111 180.381 589.757 179.735 590.533 179.735C592.395 179.735 595.369 179.735 595.369 179.735V175.235H589.602C586.732 175.261 584.404 177.588 584.404 180.459ZM664.987 180.459V194.424H669.693V181.157C669.693 180.381 670.34 179.735 671.116 179.735C672.978 179.735 675.952 179.735 675.952 179.735V175.235H670.185C667.314 175.261 664.987 177.588 664.987 180.459ZM91.0821 167.503C89.6339 167.503 88.4701 168.666 88.4701 170.115C88.4701 171.563 89.6339 172.727 91.0821 172.727C92.5303 172.727 93.694 171.563 93.694 170.115C93.694 168.666 92.5303 167.503 91.0821 167.503ZM233.912 167.503C232.463 167.503 231.3 168.666 231.3 170.115C231.3 171.563 232.463 172.727 233.912 172.727C235.36 172.727 236.524 171.563 236.524 170.115C236.498 168.666 235.334 167.503 233.912 167.503Z" fill="white"/>
<path d="M20.7921 186.717C20.7921 191.941 16.1889 194.837 10.034 194.837C6.23247 194.837 2.32748 193.829 0 192.432L1.9137 188.165C3.82741 189.381 7.08588 190.286 9.90471 190.286C13.189 190.286 15.6975 189.2 15.6975 186.691C15.6975 184.415 13.6545 183.64 10.5254 182.864L8.27548 182.295C3.33605 181.079 0.801687 178.209 0.801687 174.174C0.801687 169.752 4.7584 166.727 10.6547 166.727C14.0425 166.727 17.8699 167.761 20.1715 169.183L18.2578 173.45C16.2665 172.183 13.2149 171.33 10.603 171.33C8.01687 171.33 5.76697 172.338 5.76697 174.278C5.76697 176.062 7.08588 177.019 10.0857 177.795L12.3615 178.364C16.9906 179.528 20.7921 181.855 20.7921 186.717ZM121.779 167.244L131.839 194.449H126.77L124.468 188.036H113.193L110.917 194.449H105.849L115.908 167.244H121.779ZM122.839 183.51L118.805 172.209L114.771 183.51H122.839ZM582.025 175.571C582.025 180.097 578.792 184.286 572.068 184.286H566.715V194.449H561.879V167.244H572.068C578.999 167.244 582.025 171.304 582.025 175.571ZM576.93 175.649C576.93 172.959 575.016 171.718 571.034 171.718H566.715V179.76H571.034C574.551 179.786 576.93 178.804 576.93 175.649ZM352.458 194.449H357.164V167.244H352.458V194.449Z" fill="white"/>
<path d="M919.252 79.6276C924.699 51.3358 929.991 22.7078 906.945 11.4583C867.816 -7.65284 768.207 -6.85115 757.006 44.9999C754.873 54.9046 759.035 72.4383 765.844 88.6789C768.362 71.3004 783.623 44.8189 851.887 40.3708C895.41 37.5261 913.445 55.0856 919.252 79.6276Z" fill="white"/>
<path d="M959.948 50.3526C959.332 31.0086 940.268 19.5006 917.607 12.5957C920.074 14.768 922.309 17.2248 924.21 20.0954C929.683 28.3708 929.863 45.0511 927.345 62.4296C909.591 184.415 863.345 182.036 859.415 182.165C909.797 199.44 928.706 157.21 931.147 152.555C932.406 150.124 961.387 95.7384 959.948 50.3526Z" fill="white"/>
<path d="M867.148 83.6881C869.28 83.3261 871.49 83.1192 873.751 83.1192C883.822 83.1192 892.994 86.9725 899.88 93.3084C893.585 80.3262 880.353 71.4042 865.041 71.4042C863.962 71.4042 862.883 71.4559 861.804 71.5335C865.118 66.7751 869.897 63.1287 875.498 61.2667C866.916 60.0513 858.155 63.258 852.349 69.8784C852.375 69.4905 852.375 69.0767 852.375 68.6888C852.375 63.6718 850.859 59.0168 848.29 55.1636C845.72 59.0427 844.204 63.6977 844.204 68.6888C844.204 69.0767 844.23 69.4905 844.23 69.8784C838.424 63.258 829.663 60.0513 821.081 61.2667C826.657 63.1287 831.461 66.7751 834.775 71.5335C833.696 71.4559 832.643 71.4042 831.538 71.4042C816.226 71.4042 802.994 80.3521 796.7 93.3084C803.585 86.9725 812.757 83.1192 822.829 83.1192C825.064 83.1192 827.273 83.3261 829.431 83.6881C820.028 88.8086 813.22 97.653 810.496 107.92C816.046 100.368 824.319 94.8083 834.185 92.8687C835.289 92.6618 836.394 92.4808 837.473 92.3774L848.264 103.239L859.055 92.3774C860.159 92.5067 861.264 92.6618 862.343 92.8687C872.235 94.8083 880.482 100.368 886.031 107.92C883.359 97.653 876.525 88.8086 867.148 83.6881Z" fill="white"/>
<path d="M848.289 130.65C851.028 130.65 853.248 128.416 853.248 125.659C853.248 122.903 851.028 120.668 848.289 120.668C845.551 120.668 843.331 122.903 843.331 125.659C843.331 128.416 845.551 130.65 848.289 130.65Z" fill="white"/>
<path d="M848.289 141.177C850.503 141.177 852.297 139.371 852.297 137.143C852.297 134.915 850.503 133.108 848.289 133.108C846.076 133.108 844.281 134.915 844.281 137.143C844.281 139.371 846.076 141.177 848.289 141.177Z" fill="white"/>
<path d="M848.289 118.368C851.723 118.368 854.507 115.566 854.507 112.109C854.507 108.653 851.723 105.851 848.289 105.851C844.855 105.851 842.072 108.653 842.072 112.109C842.072 115.566 844.855 118.368 848.289 118.368Z" fill="white"/>
<path d="M888.575 134.194C864.63 134.194 842.894 143.737 826.888 159.228H835.34C837.524 159.228 839.58 158.4 841.224 156.952C854.122 145.702 870.333 138.048 888.523 135.798C892.917 135.255 897.259 135.048 901.549 135.151C897.336 134.531 892.994 134.194 888.575 134.194Z" fill="white"/>
<path d="M808.004 134.194C831.949 134.194 853.685 143.737 869.691 159.228H861.238C859.054 159.228 856.999 158.4 855.355 156.952C842.457 145.702 826.246 138.048 808.055 135.798C803.662 135.255 799.32 135.048 795.03 135.151C799.217 134.531 803.585 134.194 808.004 134.194Z" fill="white"/>
<path d="M751.533 56.0942C744.211 63.4129 728.898 81.6706 732.392 103.549C736.965 132.048 803.611 228.121 852.837 228.121C876.885 228.121 895.435 210.044 914.473 181.597C873.879 217.932 771.419 163.572 751.533 56.0942Z" fill="white"/>
</svg>
